<?xml version="1.0" encoding="utf-8"?>
<!-- Generator: Adobe Adobe Illustrator 24.2.0, SVG Export Plug-In . SVG Version: 6.00 Build 0)  -->
<svg version="1.1" xmlns="http://www.w3.org/2000/svg" xmlns:xlink="http://www.w3.org/1999/xlink" x="0px" y="0px"
	 width="2599.07px" height="732.3px" viewBox="0 0 2599.07 732.3" style="enable-background:new 0 0 2599.07 732.3;"
	 xml:space="preserve">
<style type="text/css">
	.st0{fill:#FFFEFF;}
</style>
<g id="Layer_1">
	<rect width="2599.07" height="732.3"/>
</g>
<g id="Layer_2">
	<polygon class="st0" points="1404.38,320.17 1404.44,338.11 1418.96,351.74 1399.25,346.3 1383.44,365.66 1389.96,341.45 
		1374.99,332 1390.47,334.15 	"/>
	<polygon class="st0" points="1324.74,443.56 1336.89,450.77 1350.13,446.4 1340.99,457.59 1349.7,476.15 1335.13,461.95 
		1324.6,468.3 1330.34,458.66 	"/>
	<polygon class="st0" points="2443.45,104.23 2432.47,115.51 2433.39,132.42 2424.12,117.67 2402.12,120.72 2421.15,109.29 
		2417.37,94.76 2425.96,105 	"/>
	<polygon class="st0" points="1575.9,110.93 1569.53,128.49 1577.96,142.93 1561.85,136.13 1540.42,153.9 1555.06,130.69 
		1544.72,120.32 1558.14,123.58 	"/>
	<polygon class="st0" points="2128.81,284.25 2140.17,302.13 2163.22,306.56 2140.17,313.58 2136.62,342.91 2127.86,314.62 
		2107,314.65 2123.76,307.01 	"/>
	<polygon class="st0" points="1028.68,524.95 1040.04,542.82 1063.09,547.26 1040.04,554.28 1036.49,583.61 1027.72,555.31 
		1006.87,555.34 1023.63,547.7 	"/>
	<polygon class="st0" points="844.84,137.61 856.98,144.81 870.23,140.45 861.08,151.64 869.79,170.2 855.23,156 844.69,162.35 
		850.43,152.71 	"/>
	<polygon class="st0" points="1834.4,524.95 1845.76,542.82 1868.81,547.26 1845.76,554.28 1842.21,583.61 1833.45,555.31 
		1812.59,555.34 1829.35,547.7 	"/>
	<polygon class="st0" points="1274.14,260.26 1286.29,267.47 1299.54,263.1 1290.39,274.29 1299.1,292.85 1284.54,278.65 
		1274,285.01 1279.74,275.36 	"/>
</g>
</svg>
