<?xml version="1.0" encoding="utf-8"?>
<!-- Generator: Adobe Adobe Illustrator 24.2.0, SVG Export Plug-In . SVG Version: 6.00 Build 0)  -->
<svg version="1.1" xmlns="http://www.w3.org/2000/svg" xmlns:xlink="http://www.w3.org/1999/xlink" x="0px" y="0px"
	 viewBox="0 0 181.35 81.68" style="enable-background:new 0 0 181.35 81.68;" xml:space="preserve">
<style type="text/css">
	.st0{fill:#EAC788;}
	.st1{fill:#080000;}
	.st2{fill:#8D2B00;}
	.st3{fill:#434801;}
	.st4{fill:#080000;stroke:#000000;stroke-width:0.25;stroke-miterlimit:10;}
	.st5{display:none;}
	.st6{display:inline;}
	.st7{fill:#FFFFFF;}
	.st8{display:inline;fill:none;stroke:#FFFFFF;stroke-width:0.25;stroke-miterlimit:10;}
	.st9{fill:none;stroke:#000000;stroke-miterlimit:10;}
</style>
<g id="fondo">
</g>
<g id="Capa_1">
	<g>
		<g>
			<path class="st1" d="M79.04,45.59c-0.43,2.9-1.08,5.63-1.91,8.17C77.99,52.29,78.79,49.9,79.04,45.59z"/>
			<path class="st1" d="M74.66,56.74l-1.19-0.59l-0.18-0.1l-1.44-0.72l-0.27-0.13l-4.38-2.45c-0.44-0.3-2.25-0.2-2.25-0.52
				c0-1.52,0-2.94,0-2.94h1.62c-1.27-2.19-9.77-9.56-18.28-17.28c-1.62-1.47-3.56-4.56-6.49-7.36c-5.22,4.78-7.62,7.81-10.9,10.02
				c-1.14,0.77-11.07,9.06-16.01,13.5c0,0,1.06,0.31,0.97,0.53c0.04,0.89,0.08,3.39,0.16,4.1c-0.22-0.3,0.01-0.16-1.36-0.07
				c-0.81,0.05-1.8-1.06-2-1h-1v-1.91l-0.39,0.43l-0.61-3.52v3l-0.42,0.42l-0.1,0.82c-0.11-0.73-0.48-5.24-0.48-5.24
				c0-1,1.72-2.72,2-3c0,0-1,0-1.93,1.27l1.23-4.07c-0.34,0.06-1.11,2.55-1.23,2.83c-0.04-1.3,0.1-2.58-0.11-3.71l-0.31,0.62
				l0.1,3.09c-0.17-0.46-0.8-2.46-1.18-2.78c0.06,1.31,0.95,2.57,1.08,3.91c-0.4-0.78-1.36-2.52-2.11-2.98
				c-0.06,0.69,1.54,2,1.7,3.09c-0.7-0.82-1.46-1.64-2.57-1.85c0.95,0.85,2.26,1.6,2.67,2.88c-0.77-0.74-1.71-1.61-2.88-1.39
				c0.95,0.32,1.87,0.83,2.58,1.54c-0.61,0.42-1.62-0.68-2.27-0.15c2.97,0.11,3.6,4.94,2.23,6.7c0.26-1.5-1-4.48-1-6
				c-0.46,0.41-0.4,3.34-0.61,3.93c-0.52-4.94-1.91-5.92-1.13-0.41c-0.42-1.02-1.48-3.25-2.27-4.01l1.24,4.94
				c-4.26-6.03-2.17-2.22-0.88,1.44c-0.92-1.94-1.56-3.79-1.97-5.57c0.27,2.21,0.68,4.43,1.25,6.62l0.57,0.91L3.5,53.42
				C7.09,66.2,16.45,77.78,35.66,80.74c16.25,2.5,34.8-6.52,41.47-26.98C76.15,55.47,75.08,55.95,74.66,56.74z M60.06,44.09
				c0.03-0.06,0.09-0.1,0.15-0.11c0.06-0.02,0.14-0.01,0.19,0.03c0.06,0.03,0.09,0.09,0.12,0.15c0.01,0.02,0.02,0.05,0.03,0.07
				c0.16,0.37,0.4,0.71,0.58,1.07c0.03,0.06,0.04,0.12,0.03,0.19c-0.01,0.06-0.06,0.11-0.12,0.15c-0.05,0.03-0.13,0.04-0.19,0.03
				c-0.06-0.02-0.12-0.06-0.15-0.11c-0.19-0.38-0.42-0.73-0.58-1.11c-0.01-0.01-0.01-0.01-0.02-0.02c-0.03-0.02-0.04-0.06-0.03-0.09
				c0-0.01-0.01-0.02-0.02-0.04C60.01,44.22,60.03,44.14,60.06,44.09z M58.85,47.43c0.99,0.05,0.82,1.34,1.8,0.16
				c0.94,0.85,1.54,0.25,2.47,0.48c0.02,0.78,0.66-0.5,0.92,0.29c0.43,0.37,0.05-0.77,0.76-0.45c1.43,2.17-8.02-0.07-7.5,0.6
				c-1.55,1.33-3.28-4.62-0.94-0.89C57.8,47.23,57.63,48.42,58.85,47.43z M63.83,51.71l0.01-0.07c0,0.01,0,0.02,0,0.03
				c0.01-0.12,0.04-0.23,0.07-0.34c0.03-0.09,0.05-0.18,0.06-0.28c0.01-0.06,0.01-0.12,0-0.18c-0.01-0.07,0.03-0.13,0.07-0.18
				c0.05-0.05,0.11-0.07,0.18-0.07c0.06,0,0.13,0.03,0.18,0.07c0.05,0.05,0.07,0.11,0.07,0.18c0,0.03,0,0.07,0,0.1
				c0.03,0.02,0.06,0.06,0.06,0.1c0.02,0.43,0.02,0.87-0.04,1.3c-0.01,0.07-0.09,0.1-0.15,0.09c-0.03-0.01-0.05-0.03-0.06-0.05
				c-0.12,0.1-0.32,0.08-0.4-0.07c-0.05-0.07-0.06-0.16-0.06-0.24c-0.01-0.14,0.01-0.28,0.03-0.42
				C63.84,51.69,63.83,51.7,63.83,51.71z M63.06,52.55c0,0.01-0.02,0.02-0.02,0.03v0c0,0,0,0,0,0c-0.01,0.03-0.02,0.07-0.05,0.09
				c-0.02,0.01-0.05-0.01-0.07-0.01c-0.01,0-0.01,0.01-0.02,0.02c-0.06,0.02-0.14,0.01-0.19-0.03c-0.06-0.03-0.09-0.09-0.11-0.15
				c-0.02-0.07-0.04-0.15-0.05-0.22c-0.07-0.38-0.1-0.78-0.1-1.16c0-0.14,0.11-0.24,0.25-0.25c0.14-0.01,0.25,0.12,0.25,0.25
				c0,0.28,0.02,0.56,0.06,0.84c0.02,0.08,0.03,0.15,0.04,0.23c0,0.01,0,0.02,0,0.03c0.01,0.05,0.02,0.11,0.03,0.16
				c0.01,0.03-0.01,0.06-0.01,0.09C63.06,52.49,63.06,52.52,63.06,52.55z M61.7,52.73c0,0.03,0,0.07-0.01,0.1
				c-0.02,0.06-0.06,0.12-0.1,0.16c-0.07,0.07-0.18,0.09-0.27,0.05c-0.05-0.02-0.09-0.06-0.12-0.1c-0.01-0.02-0.02-0.04-0.02-0.06
				l-0.01-0.07c0.02-0.23,0.06-0.45,0.09-0.68c0.02-0.16,0.03-0.31,0.02-0.47c0-0.07,0.03-0.13,0.07-0.18
				c0.04-0.05,0.11-0.07,0.18-0.07c0.06,0,0.13,0.03,0.18,0.07c0.05,0.05,0.07,0.11,0.07,0.18c0.02,0.32-0.05,0.64-0.1,0.96
				c0,0.01,0,0.02,0,0.03C61.68,52.67,61.7,52.7,61.7,52.73z M59,52.19c0,0.06-0.02,0.11-0.02,0.17v0
				c-0.02,0.14-0.04,0.27-0.06,0.41c0,0.04,0,0.08,0,0.12c0.01,0.21,0.04,0.42,0.05,0.64c0,0.07-0.06,0.12-0.12,0.12
				c-0.03,0-0.06-0.01-0.08-0.03c-0.02,0.02-0.04,0.05-0.07,0.05c-0.06,0.02-0.14,0.01-0.19-0.03c-0.05-0.03-0.1-0.09-0.11-0.15
				c-0.04-0.18-0.02-0.36,0-0.54c0.02-0.2,0.06-0.39,0.09-0.59c0.01-0.06,0.01-0.11,0.02-0.17c0-0.05,0.03-0.1,0.06-0.14
				c0-0.12,0.07-0.23,0.22-0.23c0.19,0,0.25,0.17,0.21,0.31C58.99,52.15,59,52.17,59,52.19z M58.41,43.88
				c0.06,0,0.13,0.03,0.18,0.07c0.05,0.05,0.07,0.11,0.07,0.18c0,0.02,0,0.03,0,0.05c0.01,0.06,0.03,0.12,0.05,0.18
				c0.06,0.14,0.15,0.27,0.23,0.39c0.01,0.01,0.01,0.03,0.02,0.04c0,0.01,0.01,0.01,0.02,0.02c0.04,0.05,0.06,0.11,0.09,0.17
				c0.04,0.08,0.1,0.15,0.13,0.23c0.02,0.06,0,0.14-0.03,0.19c-0.03,0.06-0.09,0.1-0.15,0.11c-0.06,0.02-0.14,0.01-0.19-0.03
				c-0.06-0.03-0.09-0.09-0.11-0.15c0,0.01,0.01,0.02,0.01,0.03c-0.04-0.08-0.08-0.16-0.13-0.24c-0.09-0.14-0.19-0.28-0.27-0.43
				c-0.1-0.18-0.16-0.37-0.17-0.58C58.16,43.99,58.28,43.88,58.41,43.88z M57.07,43.91c0.06,0.02,0.12,0.06,0.15,0.11
				c0.04,0.07,0.08,0.14,0.13,0.21c0.17,0.27,0.37,0.54,0.44,0.85c0.03,0.14-0.04,0.26-0.17,0.31c-0.06,0.02-0.14,0.01-0.19-0.03
				c-0.05-0.03-0.1-0.09-0.12-0.15c-0.01-0.06-0.03-0.11-0.05-0.17c-0.12-0.28-0.32-0.51-0.47-0.78c-0.07-0.12-0.03-0.27,0.09-0.34
				C56.93,43.91,57.01,43.9,57.07,43.91z M57.24,52.99c0.03,0.04,0.06,0.08,0.06,0.14c0,0.04-0.01,0.07-0.02,0.11v0.09
				c0,0.05-0.03,0.08-0.07,0.1c-0.01,0.02-0.02,0.04-0.03,0.06c-0.06,0.09-0.15,0.13-0.25,0.12c-0.1-0.01-0.17-0.08-0.21-0.18
				c-0.11-0.31-0.04-0.63,0-0.95c0.01-0.11,0.02-0.22,0.02-0.32c0-0.07,0.03-0.13,0.07-0.18c0.05-0.05,0.11-0.07,0.18-0.07
				c0.06,0,0.13,0.03,0.18,0.07c0.05,0.05,0.07,0.11,0.07,0.18c0.01,0.17-0.02,0.35-0.04,0.52C57.21,52.77,57.23,52.88,57.24,52.99z
				 M55.49,40.18c0.03-0.05,0.09-0.1,0.15-0.11c0.06-0.02,0.14-0.01,0.19,0.03c0.11,0.08,0.22,0.17,0.32,0.26
				c0.32,0.3,0.56,0.69,0.63,1.13c0.01,0.04,0.01,0.09,0,0.13l-0.02,0.06c-0.03,0.06-0.09,0.1-0.15,0.11
				c-0.06,0.02-0.14,0.01-0.19-0.03c-0.05-0.03-0.1-0.09-0.11-0.15c-0.02-0.11-0.05-0.23-0.1-0.33c-0.05-0.12-0.12-0.24-0.2-0.34
				c-0.12-0.15-0.25-0.28-0.4-0.4c-0.01,0-0.01-0.01-0.02-0.01c-0.04-0.02-0.07-0.05-0.09-0.09c-0.01-0.02-0.02-0.04-0.02-0.06
				C55.45,40.31,55.46,40.24,55.49,40.18z M56.5,45.02c0.03,0.14-0.04,0.27-0.17,0.31c-0.06,0.02-0.14,0.01-0.19-0.03
				c-0.05-0.03-0.1-0.09-0.11-0.15c-0.04-0.14-0.09-0.28-0.14-0.42c-0.11-0.25-0.24-0.49-0.32-0.74c-0.02-0.06-0.01-0.14,0.03-0.19
				c0.03-0.06,0.09-0.1,0.15-0.11c0.06-0.02,0.14-0.01,0.19,0.03c0.06,0.03,0.09,0.09,0.11,0.15c0.02,0.05,0.04,0.1,0.06,0.15
				C56.24,44.33,56.41,44.66,56.5,45.02z M53.83,40.06c0.06-0.02,0.14-0.01,0.19,0.03c0.06,0.03,0.1,0.09,0.11,0.15
				c0.03,0.09,0.06,0.19,0.1,0.28c0.13,0.29,0.28,0.58,0.33,0.9c0.01,0.04,0.01,0.09,0,0.13l-0.02,0.06
				c-0.03,0.06-0.09,0.1-0.15,0.11c-0.06,0.02-0.14,0.01-0.19-0.03c-0.05-0.03-0.11-0.09-0.11-0.15c-0.02-0.16-0.08-0.32-0.14-0.47
				c-0.1-0.24-0.22-0.47-0.29-0.71C53.62,40.24,53.7,40.1,53.83,40.06z M44.85,47.52c0.43-1,0.54,0.08,0.73,0.52
				c0.4-1.51,0.7-0.1,0.84-0.15l-0.33-1.4c1.26,2.39,0.08,2.39,0.02,1.52c-0.49,1.65-0.82,0.15-1.18,0.16
				c-0.24,1.23-0.8,0.18-1.28-0.35c-2.11-2.44-4.63,0.55-5.79,0.12c0.24-1.57,0.51-1.09,3.63-1.78
				C42.66,45.81,44.27,48.72,44.85,47.52z M55.58,53.32c0.03,0.14-0.04,0.26-0.17,0.31c-0.12,0.04-0.28-0.05-0.31-0.17
				c0,0,0,0,0-0.01c-0.03-0.02-0.06-0.06-0.06-0.1c-0.02-0.12-0.02-0.24-0.02-0.36c-0.02-0.11-0.04-0.22-0.06-0.34
				c-0.05-0.31-0.09-0.62-0.09-0.94c0-0.14,0.11-0.24,0.25-0.25s0.25,0.12,0.25,0.25c0,0.21,0.02,0.42,0.05,0.63
				C55.45,52.67,55.51,52.99,55.58,53.32z M53.78,53.18L53.78,53.18c0,0.02,0.01,0.05,0.01,0.07c0.01,0.06,0.02,0.11,0.04,0.17
				c0.01,0.03,0.02,0.06,0.03,0.08c0,0.01,0,0.01,0.01,0.02c0.02,0.04,0.04,0.09,0.07,0.13c0.08,0.11,0.02,0.27-0.09,0.34
				c-0.05,0.03-0.13,0.04-0.19,0.03c-0.07-0.02-0.11-0.06-0.15-0.11c-0.08-0.11-0.13-0.25-0.17-0.38c-0.07-0.27-0.09-0.55-0.08-0.83
				c0.01-0.27,0.03-0.53,0.08-0.79c0.02-0.14,0.19-0.2,0.31-0.17c0.06,0.01,0.12,0.06,0.15,0.11c0.04,0.06,0.04,0.12,0.03,0.19
				c-0.01,0.03-0.01,0.06-0.01,0.09c0,0.01,0,0.02,0,0.03c-0.01,0.07-0.02,0.13-0.02,0.2c-0.02,0.25-0.03,0.51,0,0.77
				C53.78,53.15,53.78,53.17,53.78,53.18z M51.57,53.89c0,0.18-0.5,0.18-0.5,0c0-0.09-0.02-0.18-0.04-0.28
				c-0.02-0.05-0.05-0.11-0.06-0.16c0-0.02,0-0.03,0-0.05c-0.01-0.03-0.01-0.05-0.02-0.08c-0.07-0.2-0.11-0.4-0.13-0.6
				c-0.03-0.41-0.07-0.82-0.17-1.23c-0.02-0.08,0.13-0.14,0.25-0.14c0,0,0.01,0,0.01,0c0.07-0.04,0.21-0.02,0.21,0.05
				c0,0.02,0,0.04,0,0.06c0.01,0.01,0.02,0.02,0.02,0.03c0.09,0.41,0.14,0.82,0.17,1.23c0.02,0.19,0.06,0.38,0.12,0.57
				C51.5,53.49,51.56,53.69,51.57,53.89z M48.53,51.82c0-0.01,0.01-0.02,0.01-0.03c0-0.01,0-0.01,0-0.02c0-0.07,0.14-0.12,0.27-0.11
				c0.15,0.01,0.25,0.09,0.25,0.16c0,0.33-0.16,0.66-0.08,1c0.09,0.36,0.14,0.73,0.15,1.09c-0.01,0.07-0.13,0.13-0.27,0.11
				c-0.15-0.01-0.25-0.09-0.25-0.16c0-0.05-0.01-0.1-0.01-0.15c0,0,0,0,0,0c-0.01-0.13-0.01-0.25-0.03-0.38
				c-0.02-0.17-0.07-0.35-0.1-0.52c-0.07-0.32,0.04-0.62,0.06-0.93C48.54,51.85,48.54,51.83,48.53,51.82z M44.86,53.16
				c0.01,0.12-0.03,0.24-0.07,0.33c-0.04,0.09-0.11,0.13-0.18,0.14c-0.06,0.01-0.13-0.06-0.18-0.14c-0.05-0.09-0.06-0.2-0.07-0.33
				c-0.03-0.47-0.04-0.95-0.04-1.43c0-0.53,0.01-1.06,0.01-1.59c0-0.26,0.11-0.45,0.25-0.46c0.14-0.01,0.25,0.22,0.25,0.46
				c0,0.53-0.01,1.06-0.01,1.59C44.83,52.2,44.83,52.68,44.86,53.16z M53.28,48.99c-1.19-0.99-3.23,0-5.19,0.35
				c-0.98-0.4,1.11-3.51,0.22-0.92c0.65,0.13,1.45-0.18,1.91-0.68c0.47-0.08,1.29,0.81,1.74-0.07c0.67-0.28,2.2,1.46,2.59-0.31
				C54.9,45.51,55.36,49.8,53.28,48.99z M40.29,49.91c0.03,0.29,0.03,0.59,0.03,0.88c0,0.51-0.02,1.02-0.04,1.52
				c-0.02,0.39-0.04,0.78-0.04,1.18c0,0.03,0,0.06,0,0.09c0.02,0.3-0.08,0.52-0.21,0.55c-0.13,0.02-0.27-0.23-0.29-0.51
				c-0.01-0.19-0.01-0.39,0-0.57c0.02-0.83,0.09-1.64,0.08-2.47c0-0.21-0.01-0.41-0.03-0.62c-0.03-0.3,0.08-0.53,0.21-0.55
				C40.15,49.38,40.27,49.64,40.29,49.91z M37.4,51.92c0,0.17-0.01,0.34-0.02,0.52c-0.01,0.16-0.03,0.32-0.04,0.48
				c0,0.15-0.03,0.29-0.03,0.43v0.35c0,0.14-0.11,0.24-0.25,0.25s-0.25-0.12-0.25-0.25v-0.17c0-0.06,0-0.13,0-0.19
				c0-0.08,0.01-0.16,0.02-0.24c0.01-0.08,0.01-0.17,0.02-0.25c0.03-0.31,0.05-0.62,0.05-0.93c0-0.14,0.11-0.24,0.25-0.25
				C37.29,51.67,37.4,51.79,37.4,51.92z M35.31,35.29c-0.06,0.04-0.13,0.04-0.19,0.03c-0.06-0.01-0.12-0.06-0.15-0.11
				c-0.04-0.06-0.04-0.12-0.02-0.19c0.08-0.5,0.32-0.96,0.54-1.41c0.06-0.12,0.23-0.15,0.34-0.09c0.05,0.03,0.1,0.09,0.12,0.15
				c0.02,0.07,0,0.13-0.03,0.19c-0.1,0.2-0.2,0.39-0.28,0.59c-0.09,0.23-0.17,0.46-0.21,0.7C35.41,35.2,35.36,35.26,35.31,35.29z
				 M35.34,43.42c-0.03,0.11-0.05,0.22-0.08,0.34c-0.05,0.22-0.1,0.44-0.16,0.65c-0.05,0.18-0.09,0.36-0.17,0.54
				c-0.03,0.06-0.06,0.11-0.11,0.15c-0.06,0.04-0.13,0.04-0.19,0.03c-0.06-0.01-0.12-0.06-0.15-0.11c-0.03-0.05-0.05-0.14-0.03-0.19
				c0.04-0.09,0.07-0.18,0.09-0.28c0.12-0.41,0.2-0.83,0.31-1.25c0.03-0.14,0.18-0.2,0.31-0.17C35.3,43.14,35.37,43.29,35.34,43.42z
				 M34.98,42.25c-0.04,0-0.07-0.02-0.11-0.04c-0.05,0.02-0.1,0.03-0.14-0.01c-0.05-0.04-0.05-0.13-0.01-0.17
				c0,0-0.01-0.01-0.01-0.01c0-0.07,0.02-0.13,0.06-0.18c-0.01,0.01-0.02,0.02-0.02,0.03c0.06-0.09,0.1-0.18,0.14-0.28
				c0.08-0.24,0.12-0.49,0.17-0.74c0.03-0.14,0.16-0.22,0.3-0.19c0.06,0.01,0.12,0.06,0.16,0.11c0.04,0.05,0.05,0.13,0.04,0.19
				c-0.02,0.08-0.03,0.16-0.05,0.25c-0.03,0.16-0.07,0.31-0.11,0.47c-0.03,0.09-0.06,0.18-0.1,0.27c-0.04,0.08-0.09,0.16-0.14,0.23
				C35.11,42.22,35.04,42.25,34.98,42.25z M36.35,37.26c-0.07,0.22-0.16,0.43-0.24,0.64c-0.04,0.11-0.17,0.16-0.31,0.14
				c-0.13-0.02-0.21-0.14-0.17-0.24c0.12-0.32,0.26-0.64,0.32-0.97c0.01-0.09,0.02-0.17,0.02-0.26c-0.01-0.11,0.12-0.19,0.25-0.2
				c0.14,0,0.24,0.09,0.25,0.2C36.48,36.8,36.43,37.04,36.35,37.26z M36.44,35.17c0,0.01,0,0.01,0,0.02c0,0.07-0.03,0.13-0.07,0.18
				c-0.04,0.05-0.11,0.07-0.18,0.07c-0.06,0-0.13-0.03-0.18-0.07c-0.04-0.04-0.08-0.12-0.07-0.18c0.02-0.24,0.09-0.46,0.18-0.68
				c0.08-0.2,0.17-0.4,0.2-0.62c0.01-0.06,0.06-0.12,0.12-0.15c0.06-0.04,0.13-0.04,0.19-0.03c0.06,0.01,0.12,0.06,0.15,0.11
				c0.02,0.03,0.03,0.06,0.03,0.09c0.01,0.03,0.01,0.07,0,0.1C36.75,34.42,36.5,34.77,36.44,35.17z M38.61,39.67
				c-0.02,0.14-0.15,0.22-0.28,0.21c-0.13-0.01-0.23-0.16-0.21-0.28l0.2-1.34c0.02-0.14,0.15-0.22,0.28-0.21s0.23,0.16,0.21,0.28
				L38.61,39.67z M38.8,41.03c0.05,0.03,0.1,0.09,0.11,0.15c0.05,0.31,0.11,0.63,0.11,0.95c0,0.07-0.03,0.13-0.07,0.18
				c-0.05,0.05-0.11,0.07-0.18,0.07c-0.06,0-0.13-0.03-0.18-0.07c-0.05-0.05-0.07-0.11-0.07-0.18c0-0.14-0.01-0.28-0.03-0.41
				c-0.02-0.13-0.04-0.27-0.06-0.4c-0.01-0.04-0.01-0.09,0-0.13l0.02-0.06c0.03-0.06,0.09-0.1,0.15-0.11
				C38.66,40.99,38.74,41,38.8,41.03z M39.13,34.84c0-0.14,0.11-0.24,0.25-0.25c0.09,0,0.16,0.06,0.2,0.13
				c0.05,0.02,0.09,0.06,0.09,0.11v1.44c0,0.01-0.01,0.02-0.01,0.03v0c0.01,0.14-0.12,0.24-0.25,0.25
				c-0.14,0.01-0.24-0.12-0.25-0.25C39.13,35.82,39.13,35.33,39.13,34.84z M40.25,40.85c0-0.14,0.11-0.24,0.25-0.25
				s0.25,0.12,0.25,0.25c0,0.46-0.05,0.92,0.01,1.37c0,0.02,0.01,0.04,0.01,0.06c0.01,0.07,0.01,0.13-0.03,0.19
				c-0.03,0.06-0.09,0.1-0.15,0.11c-0.06,0.02-0.14,0.01-0.19-0.03c-0.05-0.03-0.1-0.09-0.12-0.15c-0.05-0.27-0.06-0.54-0.06-0.81
				C40.24,41.35,40.25,41.1,40.25,40.85z M40.16,39.71c-0.04-0.05-0.07-0.11-0.07-0.18c0-0.39,0-0.78-0.05-1.17l0,0.03
				c-0.01-0.04-0.01-0.09,0-0.13c0.01-0.02,0.02-0.04,0.03-0.06c0.03-0.06,0.09-0.1,0.15-0.11c0.06-0.02,0.14-0.01,0.19,0.03
				c0.05,0.03,0.11,0.09,0.11,0.15c0.06,0.42,0.07,0.85,0.07,1.27c0,0.14-0.11,0.24-0.25,0.25C40.28,39.79,40.21,39.76,40.16,39.71z
				 M40.7,36.56c-0.13,0.01-0.25-0.12-0.25-0.25V34.9c0-0.14,0.11-0.24,0.25-0.25c0.14-0.01,0.25,0.12,0.25,0.25v1.41
				C40.95,36.45,40.84,36.55,40.7,36.56z M40.21,33.37c-0.14,0.01-0.25-0.12-0.25-0.25c0-0.46-0.09-0.92-0.06-1.38
				c0.01-0.14,0.11-0.24,0.25-0.25c0.01,0,0.03,0.01,0.04,0.02c0.02-0.01,0.04-0.03,0.07-0.03c0.07,0,0.12,0.06,0.12,0.12
				c0,0.04,0.01,0.08,0.01,0.12c0,0.01,0.01,0.01,0.01,0.02c-0.01,0.09,0.01,0.19,0.01,0.28c0.01,0.18,0.01,0.36,0.02,0.55
				c0.01,0.19,0.03,0.37,0.03,0.56C40.46,33.26,40.35,33.36,40.21,33.37z M38.54,44.2c0.08,0.01,0.11,0.07,0.12,0.13
				c0.04,0.04,0.75,0.75,0.74,0.79c-0.01,0.41-0.59,0.18-0.71,0.58c-0.02,0.07-0.06,0.12-0.12,0.16c-0.06,0.04-0.15,0.04-0.22,0.03
				c-0.07-0.01-0.15-0.06-0.19-0.11c-0.04-0.05-0.07-0.13-0.05-0.19c0.03-0.1,0.04-0.21,0.05-0.31c0.01-0.26-0.03-0.53-0.02-0.79
				c0-0.05,0-0.09,0.03-0.13c0.01-0.02,0.03-0.03,0.04-0.05c0.05-0.05,0.12-0.07,0.2-0.08c0.01,0,0.01,0.01,0.02,0.01
				C38.45,44.2,38.5,44.19,38.54,44.2z M41.12,43.8c0.06-0.04,0.13-0.04,0.19-0.03c0.06,0.01,0.12,0.06,0.15,0.11
				c0.04,0.06,0.04,0.13,0.03,0.19c0,0.02-0.01,0.04-0.01,0.06c-0.05,0.4,0.02,0.8,0.02,1.2c0,0.14-0.11,0.24-0.25,0.25
				S41,45.47,41,45.33c0-0.22-0.02-0.44-0.03-0.67c-0.01-0.24-0.01-0.48,0.04-0.72C41.02,43.88,41.07,43.83,41.12,43.8z
				 M41.07,31.95c-0.02-0.14,0.08-0.26,0.22-0.28c0.06-0.01,0.14,0.01,0.18,0.05c0.05,0.04,0.09,0.1,0.1,0.17
				c0.05,0.37,0.12,0.74,0.14,1.11c0,0.07-0.01,0.13-0.05,0.18c-0.04,0.05-0.1,0.08-0.17,0.1c-0.06,0.01-0.14-0.01-0.18-0.05
				c-0.05-0.04-0.09-0.1-0.1-0.17C41.2,32.69,41.12,32.32,41.07,31.95z M42.35,35.53c0,0.01,0,0.02,0,0.03
				c0.01,0.04,0.01,0.08,0.02,0.12c0.03,0.16,0.06,0.31,0.08,0.47c0,0.04,0,0.06-0.01,0.1c-0.01,0.02-0.04,0.03-0.06,0.05
				c0,0.03,0.01,0.07,0.01,0.1c-0.01,0.14-0.11,0.24-0.25,0.25c-0.13,0.01-0.26-0.12-0.25-0.25c0.01-0.13,0-0.27-0.02-0.4
				c-0.05-0.35-0.14-0.71-0.12-1.07c0.01-0.14,0.11-0.24,0.25-0.25c0.13-0.01,0.26,0.12,0.25,0.25c0,0.06,0.01,0.11,0.01,0.17
				c0.04,0.02,0.07,0.06,0.07,0.1c0,0.09,0.01,0.17,0.01,0.26c0,0.02,0,0.04,0.01,0.06C42.35,35.53,42.35,35.53,42.35,35.53
				C42.35,35.52,42.35,35.52,42.35,35.53z M45.23,35.29C45.23,35.29,45.23,35.3,45.23,35.29c0.02,0.07-0.03,0.14-0.09,0.16
				c-0.02,0.01-0.03,0-0.05-0.01c-0.01,0.01-0.02,0.02-0.03,0.03c-0.06,0.02-0.14,0.01-0.19-0.03c-0.05-0.03-0.11-0.09-0.12-0.15
				c-0.06-0.38-0.12-0.77-0.15-1.16c-0.01-0.07,0.03-0.13,0.07-0.18c0.04-0.05,0.11-0.07,0.18-0.07c0.06,0,0.13,0.03,0.18,0.07
				c0.05,0.05,0.07,0.11,0.07,0.18c0.01,0.17,0.03,0.35,0.06,0.52c0.02,0.17,0.05,0.34,0.08,0.51
				C45.24,35.2,45.24,35.25,45.23,35.29z M45.28,36.72c0.01-0.01,0.01-0.03,0.02-0.05c0.04-0.05,0.11-0.07,0.18-0.07
				c0.06,0,0.13,0.03,0.18,0.07c0.05,0.05,0.07,0.11,0.07,0.18c0,0.09,0.01,0.17,0.02,0.26c0.04,0.26,0.11,0.51,0.17,0.77
				c0.03,0.14-0.04,0.27-0.17,0.31c-0.06,0.02-0.14,0.01-0.19-0.03c-0.05-0.03-0.1-0.09-0.12-0.15c-0.1-0.38-0.21-0.76-0.21-1.16
				c0,0,0,0,0-0.01C45.21,36.8,45.24,36.75,45.28,36.72z M44.22,33.35c-0.06,0-0.13-0.03-0.18-0.07c-0.05-0.05-0.07-0.11-0.07-0.18
				c0-0.05,0-0.1-0.01-0.15c-0.03-0.18-0.08-0.36-0.15-0.53c-0.05-0.11-0.1-0.22-0.15-0.33c-0.02-0.04-0.03-0.08-0.03-0.13
				c0-0.02,0.01-0.04,0.01-0.07c0.01-0.06,0.06-0.12,0.12-0.15c0.05-0.03,0.13-0.04,0.19-0.03c0.05,0.01,0.13,0.06,0.15,0.11
				c0.03,0.08,0.07,0.16,0.1,0.23c0.07,0.16,0.14,0.32,0.19,0.48c0.05,0.18,0.08,0.36,0.08,0.55
				C44.47,33.24,44.36,33.35,44.22,33.35z M44.37,45.42c0,0.04-0.02,0.06-0.04,0.09v0.02c0,0.07-0.06,0.12-0.12,0.12
				c-0.01,0-0.02-0.01-0.03-0.01c-0.02,0.01-0.03,0.02-0.05,0.02c-0.06,0-0.13-0.03-0.18-0.07c-0.05-0.05-0.07-0.11-0.07-0.18
				c0-0.05-0.01-0.1-0.01-0.15c-0.06-0.43-0.21-0.85-0.19-1.29c0.01-0.14,0.11-0.24,0.25-0.25c0.13-0.01,0.26,0.12,0.25,0.25
				c-0.01,0.12,0,0.24,0.02,0.35c0.01,0.09,0.04,0.19,0.05,0.28c0,0.01,0.01,0.02,0.02,0.04c0.06,0.16,0.07,0.34,0.08,0.52
				C44.35,45.25,44.37,45.34,44.37,45.42z M43.12,41.02C43.12,41.02,43.13,41.03,43.12,41.02c0.01,0.01,0.01,0.01,0.01,0.01
				c0.01,0.01,0,0.01,0.01,0.02c0.03,0.04,0.06,0.1,0.05,0.14c0,0.02,0,0.04,0,0.06c0.01,0.04,0.02,0.08,0.03,0.12
				c0.03,0.09,0.06,0.18,0.09,0.27c0.06,0.18,0.12,0.37,0.11,0.57c0,0.05-0.03,0.08-0.06,0.1c0,0.02,0,0.05,0,0.07
				c0,0.07-0.03,0.13-0.07,0.18c-0.04,0.05-0.11,0.07-0.18,0.07c-0.06,0-0.13-0.03-0.18-0.07c-0.04-0.04-0.08-0.12-0.07-0.18
				c0-0.07,0-0.15-0.01-0.22c-0.05-0.32-0.19-0.63-0.16-0.96c0-0.07,0.03-0.13,0.07-0.18c0.05-0.05,0.11-0.07,0.18-0.07
				C43.01,40.94,43.08,40.98,43.12,41.02z M42.79,39.59c0,0.14-0.11,0.24-0.25,0.25c-0.06,0-0.13-0.03-0.18-0.07
				c-0.05-0.05-0.07-0.11-0.07-0.18v-1.24c0-0.14,0.11-0.24,0.25-0.25c0.06,0,0.13,0.03,0.18,0.07c0.05,0.05,0.07,0.11,0.07,0.18
				V39.59z M42.33,43.81v1.67c0,0.14-0.11,0.24-0.25,0.25c-0.13,0.01-0.25-0.12-0.25-0.25v-1.67c0-0.14,0.11-0.24,0.25-0.25
				C42.22,43.56,42.33,43.68,42.33,43.81z M46.27,41.87c0-0.03,0-0.07-0.01-0.1c-0.02-0.09-0.04-0.18-0.08-0.27
				c-0.06-0.13-0.13-0.26-0.2-0.39c-0.09-0.17-0.17-0.34-0.23-0.52c-0.04-0.13,0.05-0.27,0.17-0.31c0.06-0.02,0.14-0.01,0.19,0.03
				c0.06,0.03,0.1,0.09,0.12,0.15c0.02,0.05,0.04,0.1,0.06,0.15c0.08,0.19,0.19,0.37,0.28,0.55c0.11,0.23,0.19,0.46,0.19,0.71
				c0,0.14-0.12,0.24-0.25,0.25C46.38,42.13,46.27,42,46.27,41.87z M47.11,35.17c0.04,0.13-0.05,0.27-0.17,0.31
				c-0.06,0.02-0.14,0.01-0.19-0.03c-0.06-0.03-0.1-0.09-0.11-0.15c-0.01-0.04-0.03-0.09-0.05-0.13c-0.17-0.4-0.45-0.74-0.56-1.17
				c-0.03-0.14,0.04-0.27,0.17-0.31c0.13-0.04,0.27,0.05,0.31,0.17c0.01,0.04,0.03,0.08,0.04,0.12c0.22,0.35,0.41,0.71,0.53,1.11
				c0,0,0,0,0,0C47.09,35.13,47.11,35.15,47.11,35.17z M48.8,41.6c0.01,0.14-0.12,0.24-0.25,0.25c-0.14,0.01-0.24-0.12-0.25-0.25
				c0-0.02,0-0.05-0.01-0.07c-0.08-0.52-0.39-0.97-0.47-1.5c-0.01-0.07-0.01-0.13,0.03-0.19c0.03-0.06,0.09-0.1,0.15-0.11
				c0.06-0.02,0.14-0.01,0.19,0.03c0.05,0.03,0.11,0.09,0.12,0.15c0.04,0.29,0.16,0.56,0.27,0.83C48.69,41,48.78,41.29,48.8,41.6z
				 M48.6,40.08c-0.03-0.14,0.04-0.27,0.17-0.31c0.13-0.04,0.28,0.05,0.31,0.17c0.11,0.45,0.37,0.86,0.46,1.32
				c0.01,0.07,0.01,0.13-0.02,0.19c-0.03,0.06-0.09,0.1-0.15,0.11c-0.06,0.02-0.14,0.01-0.19-0.03c-0.05-0.03-0.1-0.09-0.11-0.15
				C48.97,40.94,48.71,40.54,48.6,40.08z M48.91,45.75c0.01,0.06-0.05,0.11-0.11,0.12c-0.02,0.03-0.04,0.07-0.07,0.09
				c-0.05,0.03-0.13,0.04-0.19,0.03c-0.05-0.01-0.13-0.06-0.15-0.11c-0.12-0.27-0.2-0.54-0.26-0.83c-0.06-0.28-0.09-0.57-0.09-0.85
				c0-0.14,0.11-0.24,0.25-0.25s0.25,0.12,0.25,0.25c0,0.16,0.01,0.32,0.03,0.47c0.01,0.08,0.03,0.16,0.05,0.25
				c0.03,0.06,0.06,0.11,0.08,0.17C48.81,45.29,48.88,45.51,48.91,45.75z M47.82,41.68c0.01,0.14-0.12,0.24-0.25,0.25
				c-0.14,0.01-0.24-0.12-0.25-0.25c0-0.01,0-0.02,0-0.04c-0.03-0.21-0.11-0.41-0.2-0.61c0.01,0.02,0.02,0.04,0.03,0.06
				c-0.14-0.32-0.29-0.67-0.26-1.03c0.01-0.07,0.03-0.13,0.07-0.18c0.02-0.02,0.05-0.02,0.08-0.03c0.01-0.01,0.01-0.02,0.02-0.02
				c0.02-0.01,0.03-0.01,0.05-0.01c0.01,0,0.02-0.01,0.03-0.01c0.06,0,0.13,0.03,0.18,0.07c0.04,0.04,0.08,0.12,0.07,0.18
				c0,0.04,0,0.07,0,0.11c0,0,0,0,0,0.01c0.09,0.18,0.18,0.36,0.24,0.56c0.04,0.12,0.04,0.25,0.05,0.38
				C47.76,41.31,47.81,41.49,47.82,41.68z M46.58,44.16c0.02-0.14,0.14-0.23,0.28-0.22c0.14,0.01,0.23,0.15,0.22,0.28
				c-0.01,0.07-0.01,0.14-0.01,0.2c0.01,0.21,0.04,0.42,0.07,0.63c0.04,0.24,0.06,0.47,0.05,0.71c-0.01,0.14-0.15,0.23-0.28,0.22
				c-0.06,0-0.13-0.04-0.17-0.09c-0.04-0.05-0.06-0.12-0.05-0.18c0-0.04,0-0.07,0-0.11C46.68,45.12,46.53,44.65,46.58,44.16z
				 M46.66,36.82c0.12,0.32,0.24,0.65,0.35,0.98c0.02,0.06,0.01,0.13-0.03,0.19c-0.03,0.06-0.09,0.1-0.15,0.11
				c-0.06,0.02-0.14,0.01-0.19-0.03c-0.06-0.03-0.09-0.09-0.11-0.15c-0.11-0.33-0.23-0.65-0.34-0.98c-0.02-0.06,0-0.14,0.02-0.19
				c0.03-0.06,0.09-0.1,0.15-0.11c0.06-0.02,0.14-0.01,0.19,0.03C46.61,36.7,46.64,36.75,46.66,36.82z M46.43,53.45v-1.47
				c0-0.14,0.11-0.24,0.25-0.25c0.09,0,0.16,0.06,0.21,0.14c0.03,0.02,0.05,0.06,0.04,0.09c0,0,0,0.01,0,0.01c0,0,0,0,0,0v1.72
				c0,0.19-0.21,0.3-0.38,0.22c-0.13-0.07-0.18-0.19-0.18-0.33C46.37,53.53,46.4,53.49,46.43,53.45z M50.96,44.14
				c0.01-0.06,0.06-0.11,0.11-0.15c0.05-0.03,0.13-0.04,0.19-0.03c0.06,0.02,0.12,0.06,0.15,0.11c0.16,0.32,0.33,0.65,0.44,1
				c0.02,0.06,0.01,0.13-0.02,0.19c-0.03,0.06-0.09,0.1-0.15,0.11c-0.06,0.02-0.14,0.01-0.19-0.03c-0.06-0.03-0.09-0.09-0.11-0.15
				c-0.03-0.09-0.06-0.17-0.1-0.26c-0.09-0.21-0.19-0.41-0.29-0.62C50.95,44.27,50.94,44.21,50.96,44.14z M51.78,36.17
				c0.09-0.1,0.26-0.09,0.35,0c0.11,0.11,0.22,0.21,0.32,0.31c0.41,0.4,0.81,0.85,0.91,1.43c0.01,0.07,0.01,0.13-0.03,0.19
				c-0.03,0.06-0.09,0.1-0.15,0.11c-0.06,0.02-0.14,0.01-0.19-0.03c-0.05-0.03-0.1-0.09-0.12-0.15c-0.02-0.11-0.05-0.22-0.09-0.32
				c-0.05-0.1-0.1-0.2-0.16-0.29c-0.03-0.04-0.06-0.08-0.09-0.12c0,0,0,0,0,0c-0.01-0.01-0.02-0.02-0.02-0.03
				c-0.02-0.02-0.03-0.04-0.05-0.06c-0.07-0.08-0.14-0.16-0.22-0.24c-0.15-0.15-0.31-0.3-0.46-0.45
				C51.68,36.42,51.68,36.27,51.78,36.17z M51.18,36.81c0.04-0.05,0.12-0.07,0.18-0.07c0.03,0,0.07,0.01,0.1,0.02
				c0.03,0.01,0.06,0.03,0.08,0.05c0.05,0.06,0.09,0.12,0.14,0.18c0.18,0.23,0.36,0.46,0.52,0.71c0.04,0.06,0.04,0.13,0.03,0.19
				c-0.01,0.06-0.06,0.11-0.12,0.15c-0.05,0.03-0.13,0.04-0.19,0.03c-0.06-0.02-0.11-0.06-0.15-0.11c-0.11-0.17-0.23-0.33-0.35-0.49
				c-0.08-0.1-0.15-0.2-0.23-0.29c-0.03-0.03-0.05-0.07-0.06-0.11l-0.01-0.07C51.1,36.92,51.14,36.86,51.18,36.81z M50.19,40.04
				c0.05-0.03,0.13-0.04,0.19-0.03c0.06,0.02,0.11,0.06,0.15,0.11c0.05,0.07,0.1,0.14,0.15,0.21c0.18,0.26,0.36,0.53,0.45,0.84
				c0.02,0.07,0.01,0.13-0.03,0.19c-0.03,0.06-0.09,0.1-0.15,0.11c-0.06,0.02-0.14,0.01-0.19-0.03c-0.05-0.03-0.1-0.09-0.11-0.15
				c-0.01-0.04-0.03-0.08-0.04-0.12c-0.13-0.29-0.33-0.54-0.5-0.8c-0.04-0.06-0.04-0.13-0.03-0.19
				C50.09,40.13,50.14,40.08,50.19,40.04z M50.19,43.85c0.13-0.01,0.26,0.12,0.25,0.25c-0.01,0.12,0,0.24,0.02,0.37
				c0.03,0.19,0.1,0.38,0.16,0.57c0.03,0.09,0.06,0.18,0.08,0.26c0.02,0.04,0.03,0.08,0.05,0.11c0.06,0.13,0.03,0.26-0.09,0.34
				c-0.11,0.07-0.28,0.03-0.34-0.09c-0.06-0.11-0.11-0.23-0.15-0.35c-0.07-0.19-0.13-0.38-0.17-0.58c-0.04-0.21-0.07-0.42-0.06-0.64
				C49.95,43.96,50.05,43.85,50.19,43.85z M49.95,45.71c-0.01,0.14-0.11,0.24-0.25,0.25c-0.13,0.01-0.26-0.12-0.25-0.25
				c0-0.05,0-0.1-0.01-0.15c-0.03-0.16-0.08-0.32-0.15-0.47c-0.13-0.31-0.28-0.64-0.25-0.99c0.01-0.07,0.03-0.13,0.07-0.18
				c0.04-0.05,0.11-0.07,0.18-0.07c0.06,0,0.13,0.03,0.18,0.07c0.04,0.04,0.08,0.12,0.07,0.18c-0.01,0.07,0,0.13,0,0.2
				c0.03,0.16,0.08,0.31,0.14,0.46C49.82,45.06,49.97,45.37,49.95,45.71z M48.63,33.67c0.05-0.03,0.13-0.04,0.19-0.03
				c0.06,0.02,0.12,0.06,0.15,0.11c0.07,0.13,0.15,0.25,0.24,0.36c0.16,0.2,0.33,0.39,0.47,0.61c0.04,0.06,0.04,0.13,0.03,0.19
				c-0.01,0.06-0.06,0.12-0.11,0.15c-0.05,0.03-0.13,0.04-0.19,0.03c-0.06-0.02-0.12-0.06-0.15-0.11c-0.05-0.07-0.1-0.14-0.15-0.21
				c-0.2-0.25-0.42-0.48-0.56-0.76C48.48,33.89,48.51,33.75,48.63,33.67z M48.01,36.87c0.01,0.03,0.02,0.06,0.03,0.09
				c0.03,0.06,0.06,0.12,0.09,0.18c0.14,0.23,0.32,0.44,0.48,0.66c0.04,0.06,0.04,0.13,0.03,0.19c-0.01,0.06-0.06,0.11-0.12,0.15
				c-0.05,0.03-0.13,0.04-0.19,0.03c-0.06-0.02-0.11-0.06-0.15-0.11c-0.05-0.07-0.1-0.14-0.15-0.21c-0.2-0.26-0.41-0.52-0.5-0.84
				c-0.02-0.07-0.01-0.13,0.03-0.19c0.03-0.06,0.09-0.1,0.15-0.11c0.06-0.02,0.14-0.01,0.19,0.03
				C47.95,36.75,47.99,36.81,48.01,36.87z M46.72,31.46c0.05-0.03,0.13-0.04,0.19-0.03c0.06,0.02,0.12,0.06,0.15,0.11
				c0.04,0.09,0.09,0.18,0.15,0.26c0.09,0.15,0.19,0.29,0.27,0.44c0.1,0.16,0.18,0.33,0.25,0.5c0.02,0.06,0,0.14-0.03,0.19
				c-0.03,0.06-0.09,0.1-0.15,0.11c-0.06,0.02-0.14,0.01-0.19-0.03c-0.06-0.03-0.09-0.09-0.11-0.15c0-0.01-0.01-0.01-0.01-0.02
				c-0.16-0.38-0.43-0.69-0.61-1.06c-0.03-0.06-0.04-0.12-0.03-0.19C46.62,31.54,46.67,31.49,46.72,31.46z M46.25,33.37
				c-0.05,0.03-0.13,0.04-0.19,0.03c-0.06-0.02-0.12-0.06-0.15-0.11c-0.22-0.36-0.41-0.74-0.67-1.08c-0.03-0.04-0.06-0.07-0.09-0.1
				c0,0,0,0,0,0c-0.01-0.01-0.01-0.03-0.02-0.04c-0.03-0.04-0.05-0.08-0.06-0.13c0-0.05,0.03-0.09,0.06-0.14
				c0.01-0.01,0.01-0.03,0.02-0.04c0,0,0,0,0,0c0.04-0.05,0.12-0.07,0.18-0.07c0.06,0,0.14,0.03,0.18,0.07c0,0,0,0,0,0c0,0,0,0,0,0
				c0.08,0.1,0.16,0.2,0.24,0.31c0.22,0.31,0.39,0.65,0.59,0.98C46.41,33.15,46.36,33.3,46.25,33.37z M36.84,30.83
				c0.19-0.14,0.44-0.16,0.67-0.16c0.24,0,0.49,0.02,0.73,0.03c0.01,0,0.03,0,0.04,0c0.04,0,0.07-0.01,0.11-0.01
				c0.53-0.01,1.06,0.01,1.59,0.02c0.21,0.01,0.42,0.01,0.63,0c0.33-0.01,0.67-0.06,1-0.09c0.78-0.08,1.55-0.17,2.33-0.21
				c0.21-0.01,0.43-0.01,0.64,0c0.56-0.05,1.12-0.12,1.68-0.19c0.32-0.04,0.39,0.45,0.07,0.5c-0.73,0.1-1.47,0.2-2.21,0.23
				c-0.67,0.03-1.33,0.05-1.99,0.15c-0.65,0.1-1.3,0.19-1.96,0.18c-0.66-0.01-1.31-0.05-1.97-0.08c-0.2-0.01-0.39-0.03-0.59-0.03
				c-0.1,0-0.21,0-0.31,0.02c-0.07,0.01-0.13,0.02-0.15,0.04C36.89,31.42,36.58,31.02,36.84,30.83z M36.31,32.32
				c0.12-0.17,0.25-0.34,0.39-0.49c0.14-0.16,0.3-0.3,0.47-0.42c0.05-0.04,0.13-0.04,0.19-0.03c0.06,0.01,0.12,0.06,0.15,0.11
				c0.03,0.05,0.04,0.13,0.03,0.19c-0.01,0.03-0.02,0.06-0.04,0.09c-0.02,0.03-0.04,0.05-0.07,0.06c0.01,0,0.01-0.01,0.02-0.01
				c-0.22,0.17-0.41,0.37-0.58,0.59c-0.1,0.14-0.2,0.28-0.29,0.43c-0.07,0.12-0.22,0.15-0.34,0.09c-0.05-0.03-0.1-0.09-0.11-0.15
				c-0.02-0.06-0.01-0.14,0.02-0.19C36.19,32.5,36.25,32.41,36.31,32.32z M34.54,32.41c0.12-0.09,0.21-0.21,0.31-0.32
				c0.04-0.05,0.08-0.1,0.12-0.15c0.1-0.13,0.2-0.26,0.33-0.37c0.15-0.12,0.32-0.22,0.51-0.26c0.14-0.03,0.26,0.04,0.31,0.17
				c0.04,0.13-0.05,0.28-0.17,0.31c-0.04,0.01-0.08,0.02-0.12,0.04c-0.06,0.03-0.12,0.06-0.17,0.1c-0.11,0.09-0.2,0.19-0.29,0.31
				c-0.08,0.1-0.15,0.2-0.23,0.3c-0.09,0.11-0.2,0.21-0.32,0.3c-0.05,0.04-0.13,0.04-0.19,0.03c-0.06-0.01-0.12-0.06-0.15-0.11
				c-0.03-0.05-0.04-0.13-0.03-0.19c0.02-0.07,0.06-0.11,0.11-0.15C34.56,32.39,34.55,32.4,34.54,32.41z M34.01,34.08
				c0.11-0.21,0.24-0.42,0.36-0.63c0.07-0.12,0.22-0.15,0.34-0.09c0.12,0.06,0.15,0.23,0.09,0.34c-0.15,0.27-0.32,0.54-0.45,0.82
				c0,0.02-0.01,0.04-0.01,0.07c0,0.02-0.01,0.04-0.01,0.07c0,0.01,0,0.02,0,0.03c0-0.03,0,0.01,0,0.01c0,0.03-0.01,0.06-0.04,0.09
				c-0.01,0.01-0.02,0.01-0.02,0.01c-0.01,0.05-0.03,0.09-0.04,0.14c-0.01,0.06-0.06,0.12-0.12,0.15c-0.06,0.04-0.13,0.04-0.19,0.03
				c-0.06-0.01-0.12-0.06-0.15-0.11c-0.04-0.06-0.04-0.13-0.03-0.19C33.78,34.55,33.89,34.31,34.01,34.08z M33.86,37.86
				c0.06,0.01,0.12,0.06,0.15,0.11c0.03,0.06,0.04,0.13,0.03,0.19c-0.03,0.09-0.06,0.19-0.09,0.28c-0.06,0.18-0.13,0.36-0.21,0.53
				c-0.08,0.16-0.17,0.31-0.28,0.45c-0.04,0.05-0.12,0.07-0.18,0.07c-0.07,0-0.13-0.03-0.18-0.07c-0.05-0.04-0.07-0.12-0.07-0.18
				c0-0.07,0.03-0.12,0.07-0.18c-0.01,0.01-0.02,0.02-0.02,0.03c0.12-0.16,0.21-0.33,0.28-0.51c0.07-0.18,0.14-0.37,0.19-0.56
				C33.59,37.9,33.73,37.83,33.86,37.86z M33.79,43.43c0.02,0.07,0,0.13-0.03,0.19c-0.17,0.36-0.36,0.71-0.51,1.07
				c-0.02,0.05-0.04,0.11-0.06,0.16c-0.02,0.06-0.06,0.11-0.11,0.15c-0.06,0.04-0.13,0.04-0.19,0.03c-0.06-0.01-0.12-0.06-0.15-0.11
				c-0.03-0.05-0.05-0.14-0.02-0.19c0.18-0.47,0.42-0.9,0.63-1.35c0.03-0.06,0.09-0.1,0.15-0.11c0.06-0.02,0.13-0.01,0.19,0.03
				C33.73,43.31,33.77,43.37,33.79,43.43z M32.51,34.45c0.1-0.38,0.31-0.75,0.65-0.97c0.03-0.02,0.06-0.01,0.1-0.01
				c0.01,0,0.01,0,0.02,0c0.02,0,0.05-0.01,0.07-0.01c0.06,0.01,0.12,0.06,0.15,0.11c0.03,0.05,0.04,0.13,0.03,0.19
				c-0.01,0.04-0.05,0.07-0.08,0.1c0.02,0.13-0.04,0.29-0.22,0.29c-0.01,0-0.02-0.01-0.02-0.01c-0.05,0.07-0.1,0.15-0.14,0.24
				c-0.05,0.12-0.08,0.25-0.1,0.38c0,0.01,0,0.03,0,0.04c-0.01,0.07-0.03,0.13-0.07,0.18c-0.05,0.05-0.11,0.07-0.18,0.07
				c-0.06,0-0.13-0.03-0.18-0.07c-0.04-0.04-0.08-0.12-0.07-0.18C32.47,34.67,32.49,34.56,32.51,34.45z M32.48,41.76
				c0.07-0.38,0.24-0.74,0.45-1.06c0.08-0.12,0.22-0.16,0.34-0.09c0.05,0.03,0.1,0.09,0.11,0.15c0.02,0.06,0.01,0.14-0.02,0.19
				c-0.1,0.15-0.19,0.31-0.26,0.47c-0.07,0.18-0.12,0.36-0.15,0.56c-0.01,0.06-0.01,0.11-0.02,0.17c-0.01,0.14-0.11,0.24-0.25,0.25
				c-0.13,0.01-0.26-0.12-0.25-0.25C32.44,42.01,32.46,41.88,32.48,41.76z M32.09,43.43c0.07-0.12,0.22-0.15,0.34-0.09
				c0.12,0.06,0.16,0.23,0.09,0.34c-0.17,0.28-0.34,0.56-0.47,0.86c-0.04,0.1-0.08,0.21-0.11,0.32c-0.04,0.14-0.18,0.2-0.31,0.17
				c-0.06-0.01-0.12-0.06-0.15-0.11c-0.03-0.06-0.04-0.13-0.02-0.19C31.59,44.26,31.84,43.83,32.09,43.43z M31.46,42.3
				c-0.03-0.05-0.05-0.13-0.02-0.19c0.03-0.07,0.05-0.15,0.08-0.22c0.12-0.32,0.25-0.65,0.3-0.99c0.01-0.06,0.01-0.11,0.01-0.17
				c-0.01-0.14,0.12-0.24,0.25-0.25c0.06,0,0.13,0.03,0.18,0.07c0.05,0.05,0.07,0.11,0.07,0.18c0.01,0.12-0.01,0.25-0.03,0.36
				c-0.07,0.39-0.24,0.76-0.38,1.14c-0.02,0.06-0.06,0.11-0.11,0.15c-0.06,0.04-0.13,0.04-0.19,0.03
				C31.55,42.4,31.49,42.35,31.46,42.3z M31.43,38.67c0.06-0.05,0.11-0.11,0.17-0.17c0.06-0.08,0.1-0.16,0.14-0.25
				c0.07-0.18,0.12-0.37,0.14-0.56c0.01-0.06,0.06-0.12,0.11-0.15c0.06-0.04,0.13-0.04,0.19-0.03c0.06,0.01,0.12,0.06,0.15,0.11
				c0.02,0.03,0.03,0.06,0.03,0.09c0.01,0.03,0.01,0.07,0,0.1c-0.01,0.09-0.03,0.18-0.05,0.27c-0.08,0.35-0.25,0.69-0.53,0.93
				c-0.03,0.03-0.07,0.05-0.11,0.06c-0.02,0-0.04,0.01-0.07,0.01c-0.07,0-0.13-0.03-0.18-0.07c-0.05-0.04-0.07-0.12-0.07-0.18
				C31.36,38.79,31.39,38.71,31.43,38.67z M31.14,40.32c0.06,0.01,0.12,0.06,0.15,0.11c0.03,0.05,0.04,0.13,0.03,0.19
				c-0.09,0.28-0.22,0.54-0.33,0.8c-0.04,0.09-0.07,0.17-0.1,0.26c-0.04,0.13-0.17,0.21-0.31,0.17c-0.03-0.01-0.05-0.04-0.08-0.06
				c-0.03,0.03-0.07,0.04-0.11,0.03c-0.07-0.02-0.1-0.09-0.09-0.15c0.03-0.11,0.06-0.21,0.1-0.32c0.07-0.18,0.15-0.36,0.25-0.52
				c0.02-0.04,0.06-0.06,0.09-0.09c0.04-0.08,0.07-0.17,0.1-0.26C30.87,40.36,31,40.29,31.14,40.32z M30.32,37.08
				c0.05-0.13,0.17-0.21,0.31-0.17c0.06,0.01,0.12,0.06,0.15,0.11c0.03,0.05,0.05,0.13,0.03,0.19c-0.05,0.13-0.1,0.25-0.16,0.37
				c-0.2,0.39-0.46,0.74-0.67,1.12c-0.07,0.12-0.23,0.15-0.34,0.09c-0.12-0.06-0.15-0.23-0.09-0.34c0.23-0.44,0.55-0.84,0.75-1.3
				C30.3,37.13,30.31,37.1,30.32,37.08z M29.88,40.38c-0.02,0.02-0.05,0.03-0.07,0.05c-0.12,0.1-0.24,0.21-0.33,0.34
				c-0.09,0.12-0.17,0.25-0.23,0.39c-0.03,0.08-0.05,0.15-0.07,0.23c0,0.03-0.01,0.06,0,0.09c0,0.07-0.03,0.13-0.07,0.18
				c-0.04,0.05-0.11,0.07-0.18,0.07c-0.06,0-0.13-0.03-0.18-0.07c-0.05-0.05-0.07-0.11-0.07-0.18c-0.01-0.11,0.01-0.23,0.05-0.34
				c0.07-0.23,0.18-0.44,0.32-0.63c0.17-0.22,0.36-0.41,0.59-0.57c0.12-0.08,0.27-0.02,0.34,0.09c0.03,0.05,0.04,0.13,0.03,0.19
				C29.97,40.29,29.93,40.34,29.88,40.38z M29.88,43.59c-0.05,0.09-0.1,0.19-0.14,0.28c-0.17,0.4-0.26,0.83-0.41,1.24
				c-0.05,0.13-0.17,0.21-0.31,0.17c-0.06-0.01-0.12-0.06-0.15-0.11c-0.03-0.05-0.05-0.13-0.03-0.19c0.2-0.55,0.32-1.13,0.6-1.64
				c0.05-0.09,0.14-0.11,0.24-0.1c0.04-0.02,0.08-0.03,0.12-0.01c0.04,0.02,0.05,0.07,0.05,0.11
				C29.91,43.42,29.93,43.51,29.88,43.59z M28.28,38.22c-0.01-0.05-0.01-0.12,0.02-0.16c0.07-0.1,0.13-0.2,0.2-0.29
				c0.25-0.34,0.51-0.68,0.75-1.03c0.08-0.12,0.22-0.16,0.34-0.09c0.05,0.03,0.1,0.09,0.11,0.15c0.02,0.06,0.01,0.14-0.02,0.19
				c-0.07,0.1-0.13,0.2-0.2,0.29c-0.25,0.34-0.51,0.68-0.75,1.03c-0.06,0.1-0.17,0.12-0.28,0.1c-0.03,0.05-0.07,0.08-0.14,0.06
				c-0.06-0.01-0.11-0.09-0.09-0.15C28.24,38.28,28.26,38.25,28.28,38.22z M27.84,43.16C27.85,43.16,27.85,43.16,27.84,43.16
				c0.02-0.01,0.03-0.02,0.04-0.03c0.04-0.02,0.08-0.01,0.12,0c0.07,0.01,0.14,0.05,0.18,0.11c0.08,0.12,0.02,0.27-0.09,0.34
				c-0.01,0.01-0.03,0.02-0.04,0.03c-0.05,0.04-0.1,0.09-0.15,0.15c-0.05,0.06-0.09,0.13-0.12,0.21c-0.06,0.14-0.09,0.29-0.11,0.44
				c-0.02,0.19-0.03,0.38-0.03,0.57c0,0.14-0.11,0.24-0.25,0.25c-0.14,0.01-0.25-0.12-0.25-0.25c0-0.13,0-0.26,0.01-0.39
				c0-0.01,0-0.01,0-0.02c0,0,0,0-0.01,0c-0.06-0.01-0.11-0.09-0.09-0.15c0.03-0.11,0.07-0.21,0.11-0.31
				c0.08-0.22,0.19-0.43,0.33-0.62c0.01-0.02,0.02-0.03,0.03-0.05c0.01-0.02,0.03-0.02,0.05-0.04c0.07-0.08,0.14-0.15,0.23-0.2
				C27.82,43.19,27.83,43.17,27.84,43.16z M27.7,40.06c0.07,0.11,0.02,0.27-0.09,0.34c-0.14,0.08-0.27,0.18-0.4,0.28
				c-0.33,0.26-0.63,0.57-0.89,0.9c0,0.01-0.01,0.01-0.01,0.02c-0.04,0.05-0.08,0.09-0.15,0.11c-0.06,0.02-0.13,0.01-0.19-0.03
				c-0.05-0.03-0.1-0.09-0.11-0.15c-0.02-0.06-0.01-0.14,0.03-0.19c0.09-0.12,0.18-0.24,0.28-0.35c0.35-0.4,0.75-0.75,1.2-1.02
				C27.48,39.9,27.63,39.95,27.7,40.06z M23.93,41.06c0.16-0.13,0.31-0.26,0.47-0.39c0.55-0.45,1.13-0.88,1.79-1.16
				c0.13-0.06,0.26-0.04,0.34,0.09c0.07,0.1,0.03,0.29-0.09,0.34c-0.18,0.08-0.35,0.17-0.52,0.26c-0.3,0.17-0.58,0.37-0.86,0.58
				c-0.02,0.01-0.03,0.02-0.05,0.04l-0.03,0.02c-0.03,0.02-0.06,0.05-0.09,0.07c-0.07,0.05-0.14,0.11-0.2,0.16
				c-0.14,0.11-0.27,0.23-0.41,0.34c-0.11,0.09-0.25,0.1-0.35,0C23.83,41.33,23.82,41.14,23.93,41.06z M23.84,44.46
				c0.06-0.12,0.12-0.24,0.18-0.36c0.1-0.21,0.21-0.42,0.34-0.62c0.16-0.23,0.34-0.43,0.57-0.58c0.12-0.08,0.27-0.02,0.34,0.09
				c0.03,0.05,0.04,0.13,0.03,0.19c-0.02,0.06-0.06,0.11-0.11,0.15c-0.01,0.01-0.03,0.02-0.04,0.03c-0.1,0.08-0.2,0.18-0.28,0.28
				c-0.24,0.33-0.4,0.71-0.6,1.07c-0.07,0.12-0.22,0.15-0.34,0.09C23.81,44.74,23.78,44.58,23.84,44.46z M23.21,42.87
				c0,0.01,0,0.03-0.01,0.04c0.01-0.07,0.03-0.12,0.07-0.18c0.04-0.05,0.11-0.07,0.18-0.07c0.06,0,0.12,0.03,0.17,0.07
				c0.05-0.02,0.1-0.02,0.14,0.01c0.05,0.04,0.05,0.13,0,0.18c-0.03,0.02-0.05,0.05-0.08,0.07c-0.02,0.11-0.04,0.22-0.08,0.32
				c-0.18,0.45-0.49,0.82-0.77,1.21c-0.04,0.06-0.08,0.09-0.15,0.11c-0.06,0.02-0.13,0.01-0.19-0.03c-0.05-0.03-0.1-0.09-0.11-0.15
				c-0.02-0.06-0.01-0.14,0.02-0.19c0.25-0.36,0.54-0.7,0.72-1.1C23.16,43.09,23.2,42.98,23.21,42.87z M21.54,43.68
				c0.05-0.08,0.1-0.16,0.15-0.23c0.19-0.3,0.39-0.59,0.63-0.85c0.04-0.05,0.11-0.07,0.18-0.07c0.03,0,0.04,0.02,0.07,0.03
				c0,0,0,0,0,0c0.06-0.04,0.13-0.01,0.17,0.04c0.03,0.04,0.01,0.09-0.01,0.13c0,0.02,0.02,0.03,0.02,0.05
				c0,0.07-0.03,0.13-0.07,0.18c-0.06,0.07-0.12,0.14-0.18,0.22c-0.19,0.25-0.36,0.51-0.53,0.77c-0.04,0.06-0.08,0.09-0.15,0.11
				c-0.06,0.02-0.13,0.01-0.19-0.03c-0.05-0.03-0.1-0.09-0.12-0.15C21.5,43.82,21.51,43.74,21.54,43.68z M19.97,46.39
				c0.19-0.37,0.4-0.73,0.7-1.02c0.1-0.1,0.25-0.09,0.35,0c0.1,0.09,0.09,0.26,0,0.35c-0.07,0.07-0.13,0.14-0.19,0.22
				c-0.24,0.31-0.41,0.66-0.59,1.01c-0.06,0.12-0.23,0.15-0.34,0.09c-0.05-0.03-0.1-0.09-0.11-0.15c-0.02-0.07-0.01-0.13,0.02-0.19
				C19.86,46.6,19.91,46.5,19.97,46.39z M18.5,46.04c0.1-0.24,0.23-0.45,0.4-0.65c0.15-0.17,0.34-0.31,0.54-0.41
				c0.13-0.06,0.27-0.03,0.34,0.09c0.03,0.05,0.04,0.13,0.02,0.19c-0.02,0.06-0.06,0.12-0.11,0.15c-0.08,0.04-0.16,0.09-0.23,0.15
				c-0.1,0.08-0.19,0.17-0.27,0.27c-0.08,0.11-0.15,0.24-0.21,0.36c-0.05,0.12-0.08,0.23-0.11,0.35c-0.01,0.06-0.06,0.12-0.11,0.15
				c-0.06,0.04-0.13,0.04-0.19,0.03c-0.06-0.01-0.12-0.06-0.15-0.11c-0.04-0.06-0.04-0.13-0.03-0.19
				C18.41,46.29,18.45,46.16,18.5,46.04z M15.86,48.7c1.95-2.03,2.89,0.5,5.15-1.54c1.28,0.64,1.98,0.77,3.14,0.2
				c1.46,0.45,2.97,0.49,4.07-0.05c0.8-0.58,1.56,0.44,2.36,0.52c0.48-0.51,0.78-0.84,1.06-0.26c0.13-0.16,0.35-0.91,0.62-0.26
				c0.53,0.78,1.15-1.29,2,0.38c0.83-1.31,1.22,0.77,1.98-1.55c1.12,1.51-1.99,2.7-2.4,1.81c-0.31-0.95-0.92,1.44-1.39,0.45
				c-0.21-0.74-0.29,0.32-0.74,0.07c-0.6-0.55-1.39-0.26-2.07-0.03c-1.06-1.38-0.93-0.04-1.98-0.29c-1.99,0.09-5.25,0.77-6.85-0.31
				C19.48,49.47,17.53,48.68,15.86,48.7z M33.28,53.43c-0.01-0.18-0.01-0.35,0-0.53c-0.02-0.36-0.05-0.73-0.05-1.09
				c0-0.14,0.09-0.24,0.2-0.25s0.2,0.12,0.2,0.25c0,0.13,0.01,0.26,0.02,0.39c0.02,0.28,0.04,0.57,0.05,0.85
				c0,0.13,0.01,0.26,0,0.39c-0.01,0.11-0.01,0.23-0.05,0.34c-0.02,0.06-0.04,0.11-0.09,0.15c-0.04,0.04-0.1,0.04-0.15,0.03
				c-0.05-0.01-0.09-0.06-0.12-0.11c-0.02-0.05-0.04-0.14-0.02-0.19c0.01-0.04,0.02-0.09,0.03-0.14
				C33.29,53.47,33.29,53.45,33.28,53.43z M31.47,53.79c0,0.07-0.03,0.13-0.07,0.18c-0.04,0.05-0.12,0.07-0.18,0.07
				c-0.06,0-0.14-0.03-0.18-0.07c-0.1-0.12-0.16-0.26-0.2-0.41c-0.08-0.29-0.1-0.6-0.12-0.89c-0.01-0.28-0.02-0.55-0.02-0.83
				c0-0.14,0.11-0.24,0.25-0.25c0.13-0.01,0.25,0.12,0.25,0.25c0,0.1,0,0.2,0,0.29c0.03,0.48,0.12,0.95,0.21,1.42
				c0.03,0.02,0.06,0.05,0.06,0.1c0,0.02,0,0.05-0.01,0.07c0,0.01-0.01,0.03-0.01,0.03c0,0.01-0.01,0.01-0.01,0.02
				C31.46,53.77,31.47,53.77,31.47,53.79z M28.51,53.53c0,0.1-0.01,0.2-0.03,0.29c-0.01,0.08-0.04,0.16-0.06,0.23
				c-0.01,0.04-0.03,0.08-0.06,0.11c-0.02,0.01-0.03,0.03-0.05,0.04c-0.03,0.02-0.06,0.03-0.09,0.03c-0.02,0.01-0.04,0.01-0.07,0
				c-0.03,0-0.06-0.01-0.09-0.03c-0.02-0.01-0.03-0.03-0.05-0.04c-0.02-0.02-0.04-0.05-0.05-0.08c-0.02-0.03-0.02-0.06-0.02-0.1
				v-0.14c0-0.05,0.01-0.09,0.03-0.13c0.01-0.02,0.03-0.03,0.04-0.05c0,0,0,0,0,0c0,0,0-0.01,0-0.01c0-0.04,0.01-0.08,0.01-0.13
				c0-0.02,0.01-0.03,0.01-0.05c0-0.02-0.01-0.03,0-0.05c0.03-0.09,0.04-0.19,0.06-0.28c0.05-0.42,0.02-0.84,0.02-1.26
				c0-0.14,0.11-0.24,0.25-0.25s0.25,0.12,0.25,0.25C28.59,52.43,28.65,52.99,28.51,53.53C28.51,53.52,28.51,53.53,28.51,53.53z
				 M26.2,51.66c0-0.14,0.11-0.24,0.25-0.25s0.25,0.12,0.25,0.25c0,0.7,0.08,1.41-0.04,2.11c-0.02,0.14-0.19,0.2-0.31,0.17
				c-0.06-0.01-0.12-0.06-0.15-0.11c-0.04-0.06-0.04-0.12-0.03-0.19c0-0.02,0.01-0.05,0.01-0.07c0,0,0-0.01,0-0.01
				c0.01-0.04,0.01-0.09,0.02-0.13c0.01-0.08,0.01-0.16,0.02-0.25c0.01-0.17,0.01-0.33,0-0.5C26.22,52.33,26.2,52,26.2,51.66z
				 M24.35,52.64c0,0.04-0.01,0.09-0.01,0.13c0,0.09,0,0.18-0.02,0.26c0,0.02-0.01,0.03-0.01,0.05c0,0.01,0,0.01,0,0.02
				c0,0.03-0.01,0.06-0.01,0.09c0,0.03,0,0.07,0,0.11c-0.01,0.04-0.01,0.08-0.04,0.12c-0.07,0.09-0.16,0.14-0.28,0.11
				c-0.13-0.03-0.19-0.16-0.18-0.28c0-0.05,0.01-0.09,0.01-0.14c0.01-0.06,0.01-0.13,0.03-0.19c0,0,0,0,0,0c0-0.01,0-0.05,0-0.07
				c0-0.02,0-0.05,0-0.07c0.01-0.21,0.06-0.41,0.08-0.61c0-0.01,0-0.02,0-0.03c0-0.02,0-0.04,0.01-0.06c0-0.05,0.01-0.09,0.01-0.14
				c0.01-0.09,0.02-0.18,0.02-0.27c0-0.02,0-0.05,0-0.07c0-0.1,0-0.21,0-0.31c0-0.01,0.01-0.01,0.01-0.02c0-0.04,0-0.09,0-0.13
				c0-0.14,0.11-0.24,0.25-0.25c0.14-0.01,0.25,0.12,0.25,0.25c0,0.19-0.01,0.39-0.02,0.58c-0.01,0.19-0.03,0.37-0.06,0.56
				c-0.01,0.09-0.03,0.18-0.04,0.27c0,0.02-0.01,0.05-0.01,0.07C24.34,52.67,24.35,52.59,24.35,52.64z M21.88,51.13
				c0,0,0-0.02,0-0.03c0-0.02-0.01-0.03-0.01-0.05c-0.03-0.14,0.04-0.26,0.17-0.31c0.12-0.04,0.28,0.05,0.31,0.17
				c0.04,0.21,0.04,0.43,0.02,0.65c-0.02,0.19-0.06,0.38-0.09,0.57c-0.03,0.18-0.06,0.35-0.09,0.53c-0.01,0.04-0.02,0.08-0.02,0.12
				c0,0,0,0,0,0.01c0,0,0,0.01,0,0.01v0.33c0,0.14-0.11,0.24-0.25,0.25c-0.14,0.01-0.25-0.12-0.25-0.25v-0.23c0-0.04,0-0.08,0-0.11
				c0-0.09,0.03-0.19,0.05-0.28c0.03-0.17,0.06-0.34,0.09-0.51c0.01-0.07,0.02-0.13,0.04-0.2c0.01-0.22,0.02-0.43,0.05-0.65
				C21.88,51.14,21.88,51.13,21.88,51.13z M20.57,52.64c0,0.01,0,0.02,0.01,0.04c0,0.02,0.01,0.05,0.02,0.07
				c0.01,0.03,0.01,0.05,0.02,0.08c0,0.01,0.01,0.02,0.01,0.04c0,0.01,0,0.01,0.01,0.01c0.01,0.03-0.01-0.03-0.01-0.03
				c0.03,0.07,0.04,0.12,0.03,0.19c-0.01,0.06-0.06,0.11-0.12,0.15c-0.05,0.03-0.13,0.04-0.19,0.03c-0.05-0.01-0.13-0.06-0.15-0.11
				c-0.06-0.15-0.1-0.3-0.12-0.46c-0.06-0.5,0.05-1,0.05-1.5c0-0.14,0.11-0.24,0.25-0.25c0.13-0.01,0.25,0.12,0.25,0.25
				c0,0.13-0.01,0.25-0.02,0.38c-0.02,0.26-0.05,0.51-0.05,0.77C20.55,52.4,20.56,52.52,20.57,52.64z M19.28,51.29
				c0,0.11,0,0.22-0.01,0.33c-0.01,0.25-0.02,0.5-0.05,0.75c-0.01,0.13-0.03,0.25-0.06,0.38c-0.02,0.09-0.05,0.18-0.1,0.25
				c-0.08,0.11-0.21,0.16-0.34,0.09c-0.05-0.03-0.1-0.09-0.11-0.15c-0.02-0.06-0.01-0.14,0.02-0.19c0,0,0-0.01,0.01-0.01
				c0.04-0.1,0.06-0.22,0.07-0.32c0-0.04,0.01-0.08,0.01-0.12c0.01-0.2,0.02-0.39,0.03-0.59c0-0.14,0.02-0.27,0.02-0.41
				c0-0.14,0.11-0.24,0.25-0.25C19.17,51.04,19.28,51.16,19.28,51.29z M16.38,52.73V52c0-0.01,0.01-0.02,0.01-0.03
				c-0.04-0.18-0.09-0.36-0.09-0.55c0-0.05,0.03-0.08,0.07-0.1c0-0.01,0-0.03,0-0.04c0-0.14,0.11-0.24,0.25-0.25
				c0.14-0.01,0.25,0.12,0.25,0.25c0,0.11,0.01,0.22,0.01,0.33c0.01,0.25,0.03,0.49,0.03,0.74c0,0.1,0.01,0.2,0,0.3
				c0,0.1-0.01,0.19-0.05,0.28c-0.06,0.13-0.23,0.15-0.34,0.09c-0.05-0.03-0.1-0.09-0.11-0.15c-0.01-0.02,0.01-0.04,0.01-0.06
				C16.39,52.79,16.38,52.76,16.38,52.73z M14.11,64.61c0.59,0.62,1.39,2.94,1.29,3.81C14.99,67.14,14.65,65.86,14.11,64.61z
				 M18.63,63.48c-0.29,1.28-0.64,2.53-0.81,3.84C17.64,66.51,18.11,64.16,18.63,63.48z M21.17,73.46c1.69-1.05,4.71-0.64,6.6-0.36
				c-1.85-1.85-4.99-0.65-7.01-0.52c2.38-1.33,4.78-2.37,7.42-2.68c-2.7-1.1-5.56-0.71-8.04,1.19c1.3-1.98,3.89-3.88,5.87-5.25
				c-2.81,0.08-4.93,1.39-6.9,3.81c1.66-2.73,2.76-5.41,4.84-7.62c-2.88,0.63-4.22,3.3-5.66,5.56c1.03-2.83,1.53-5.72,2.67-8.45
				c-2.31,1.27-3.31,3.99-3.91,6.39c-0.09-2.83-0.32-5.74-1.5-8.34c-0.53,2.52-0.34,5.74-0.15,8.34c-0.87-1.88-1.82-4.13-3.8-5.2
				c1.07,2.22,1.98,5.05,2.46,7.47c-1.1-2.25-2.65-4.25-5.15-5.05c0.55,0.8,2.2,3.14,2.53,4.02c-0.96-1.56-2.65-2.99-3.35-4.63
				c2.06-0.33,3.17,1.39,4.63,2.46l-2.01-5.35c1.95,0.78,3.53,2.24,4.28,4.22c-0.51-2.45-0.01-4.88,0.3-7.31
				c1.61,1.97,2.01,4.71,2.12,7.21c0.31-1.78,2.16-4.82,3.97-5.23l-1.65,6.46c0.98-2.12,3.26-3.25,5.56-3.19
				c-1.69,1.51-2.63,3.48-3.91,5.3c6.94-2.62,5.95-1.23,0.92,2.63c2.29-0.91,4.81-0.67,6.9,0.61c-1.73,0.34-3.66,0.66-5.25,1.7
				c2.07-0.37,4.01,0.5,5.36,2.11C26.65,73.2,23.88,73.55,21.17,73.46z M18.1,70.36c0.01-0.83,1.03-3,1.7-3.54
				C19.21,68,18.57,69.13,18.1,70.36z M68.98,62.02l-0.18,0.04c-2.95,0.22-9.01,0.55-11.98,0.59l-4.32,0.42l2.88,0.3l2.27,0.1
				l9.81,0.58L66.3,64.4c-1.48,0.31-1.5,0.21-2.99,0.31c-0.43,0.03-0.72-0.1-1.65,0.05l-3.39,0.26c-2.78-0.02-4.88,0.15-7.68,0.36
				c-0.14,0.01-1.28,0.17-1.09,0.31l5.06,0.57l7.72-0.01c-0.08,0.15-1.88,0.44-2.06,0.52c-0.47,0.22-1.75,0.41-2.36,0.31
				c-0.1-0.02-1.06-0.35-1.55-0.1c-0.14,0.07-0.67,0.23-0.62,0.51l-0.11,0.26c-0.03,0.14,0.04,0.24,0.17,0.29
				c0.53,0.16,4.87-0.2,4.98-0.09c0.03,0.68-0.96,0.78-1.49,0.82c-1.63,0.14-5.18-0.19-6.79-0.2c-2.26-0.02-4.57-0.21-6.76,0.32
				c-0.32,0.29,0.14,0.35,0.22,0.36l0.3,0.15c1.55,0.25,2.79,0.05,4.68,0.42c1.51-0.06,0.99-0.06,1.61-0.16
				c0.46-0.08,1.03,0.1,1.96,0.2c0.2,0.02,0.8-0.02,1.13,0c0.62,0.04,1.55,0.21,2.47,0.82c-0.13-0.05-2.36-0.12-2.53-0.15
				c-1.24-0.22-2.45,0.4-4.37,0.16c-0.69-0.09-2.57,1.27-2.57,1.27l-0.38,0.09c-0.67,0.43-1.22,0.5-2.02,0.31
				c-0.23-0.06-0.43-0.26-0.65-0.28c-0.47-0.03-0.44,0.08-0.97-0.05l-0.52-0.05c-0.75-0.11-0.2,0.74-0.35,0.93
				c-0.78,0.05,7.73,0.51-1.29,0.46c-2.16,0-5.05-0.2-0.73-0.72l1.13-0.36c-1.13-0.22-2.3-0.24-3.43-0.43
				c-0.14-0.03-0.97,0.02-0.99-0.14l4.63-0.16c-0.08,0.18,0.01-0.06,0.21,0.06h0.31l0.15-0.06c0.58,0,1.18,0.05,1.75-0.1
				c0.14-0.04,0.32,0,0.36-0.21c-3.2-0.3-6.46,0.01-9.67-0.04L35.2,70.7l2.51,0.04c0.12,0,0.53-0.15,0.37-0.36
				c-0.65-0.83-4.07-0.23-5.05-0.46l0.17-0.18l8.64-0.13l0.66-0.21l-8.17-0.7c-0.38,0.71-1.02-0.1-1.61,0.19v-0.31l8.44-0.31
				l-1.9-0.21l-2.83-0.1c-0.02-0.15,0.26-0.18,0.36-0.19c4.74-0.51,9.57,0.03,14.3-0.16c0.13-0.01,0.63-0.1,0.68-0.27l-21-0.45
				c-1.15,0-1.79-0.07-1.95-0.1c0.19,0,1.04-0.2,1.23-0.21c1.63-0.14,2.2,0.01,3.85-0.05l5.2-0.32c0.03-0.18-0.23-0.1-0.36-0.1
				c-2.7-0.11-4.98-0.33-7.66-0.77l1.44-0.31c2.26-0.41,1.98-0.18,4.32-0.51c0.13-0.02,3.28,0.04,3.3-0.11l1.68-0.26
				c0.3,0.01,0.57,0.02,0.63,0l0.98-0.21c-0.06-0.01-0.11-0.01-0.16-0.02l0.16-0.03c-2.5-0.55-3.93-0.14-6.48-0.2
				c-0.41-0.01-5.15,0.27-5.57-0.3c-0.3-0.27,0.26-0.15,0.36-0.16c0.48-0.05,1.15-0.09,1.64-0.11c0.98-0.04,1.96,0.07,2.94,0
				c0.03-0.02,1.76-0.21,1.76-0.25c-0.2-0.11-1.77-0.41-2.06-0.41l-1.34-0.11c0.14-0.06-1.83,0.01-1.86-0.15l-6.08-0.1v-0.31
				c1.18,0,2.37-0.01,3.56-0.01c1.35,0,2.75,0.12,4.11,0c0.37-0.03,1.07-0.1,1.29-0.41c-2.37-0.25-4.78,0-7.16-0.1
				c-0.58-0.02-1.15-0.26-1.8-0.1c-0.02-0.15,0.27-0.19,0.37-0.2c2.52-0.27,5.08-0.21,7.61-0.32c0.13,0,0.39,0.08,0.36-0.1
				l-0.92-0.57c-0.04-0.18-2.58-0.14-2.73-0.16c-2.11-0.22-4.27-0.03-6.4-0.09l-1.07-0.21l15.41-0.39c-1.1-0.79-2.17-0.68-5.42-0.54
				l-0.67,0.01c-0.85,0.1-1.99-0.04-2.89-0.01c-1.75,0.05-3.39,0.05-5.14,0c-0.82-0.02-1.66,0.04-2.48,0.01
				c-0.12-0.01-0.38,0.07-0.36-0.11c0,0,15.43-1.77,15.55-1.82c0,0,1.77-0.5,1.94-0.69l5.61-0.33c0.15,0.35,0.56,0.11,0.71,0.42
				c0.28,0.56,8.79,1.24,9.21,1.34c0.84,0.19,0.8,0.24,1.62,0.28c4.28,0.24,4.17,0.47,8.48,0.57l0.73,0.1
				c0.09,0.01,0.09,0.15-0.01,0.15l-8.59,0.43l-2.68-0.1c-1.55,0.01-2.78,0.26-0.72,0.72c0,0.18,2.56,0.2,2.68,0.21
				c3.52,0.28,2.06,0.2,3.81,0.3l4.65,0.35c0.16,0.01,0.15,0.24,0,0.25l-10.07,0.38l-2.39,0.17c-0.18,0.01-0.17,0.26,0,0.27
				l16.03,0.36C69.06,61.86,69.08,62,68.98,62.02z"/>
			<path class="st1" d="M21.6,45.6c0.05-0.05,0.11-0.07,0.18-0.07c0.07,0,0.13,0.03,0.18,0.07c0.05,0.04,0.07,0.12,0.07,0.18
				c0,0.06-0.03,0.13-0.07,0.18c-0.02,0.02-0.04,0.05-0.06,0.07c-0.08,0.11-0.14,0.23-0.19,0.35c-0.05,0.13-0.1,0.27-0.15,0.4
				c-0.02,0.06-0.06,0.11-0.11,0.15c-0.06,0.04-0.13,0.04-0.19,0.03c-0.06-0.01-0.12-0.06-0.15-0.11c-0.03-0.05-0.04-0.13-0.02-0.19
				c0.03-0.08,0.05-0.16,0.08-0.23C21.25,46.12,21.37,45.83,21.6,45.6z"/>
			<path class="st1" d="M46.73,35.22c-0.01,0.14-0.11,0.24-0.25,0.25c-0.06,0-0.13-0.03-0.18-0.07c-0.04-0.04-0.08-0.12-0.07-0.18
				c0-0.04,0-0.08,0-0.12c-0.02-0.11-0.05-0.21-0.09-0.31c-0.05-0.11-0.1-0.22-0.14-0.33c-0.05-0.13-0.08-0.28-0.08-0.42
				c0-0.07,0.04-0.14,0.09-0.18c0.01-0.04,0.04-0.07,0.08-0.08c0.03-0.01,0.07,0,0.1,0.02c0.06,0,0.12,0.03,0.16,0.07
				c0.05,0.05,0.07,0.11,0.07,0.18c0,0.02,0,0.04,0,0.06c0.02,0.11,0.05,0.22,0.1,0.33C46.63,34.68,46.75,34.93,46.73,35.22z"/>
			<path class="st1" d="M44.69,32.79c-0.03,0.06-0.09,0.1-0.15,0.11c-0.03,0.01-0.07,0.01-0.1,0c-0.03,0-0.06-0.01-0.09-0.03
				c-0.05-0.03-0.1-0.09-0.12-0.15c-0.06-0.23-0.15-0.46-0.2-0.69c-0.01-0.04-0.01-0.09,0-0.13c0.01-0.02,0.02-0.04,0.03-0.06
				c0.03-0.06,0.09-0.1,0.15-0.11c0.03-0.01,0.07-0.01,0.1,0c0.03,0,0.06,0.01,0.09,0.03c0.03,0.02,0.05,0.04,0.07,0.06
				c0.02,0.02,0.04,0.05,0.04,0.09c0.05,0.24,0.14,0.46,0.2,0.69C44.73,32.66,44.72,32.73,44.69,32.79z"/>
			<path class="st1" d="M37.66,2.74c-21.5,1.79-31.8,14.72-35.88,31.5c-0.03,0.11,0.12,0.18,0.18,0.08
				c15.24-20.59,56.7-22.58,76.7-0.58c0.48,5.06,0.56,8.9,0.38,11.85c0.33-2.18,0.54-4.47,0.62-6.85
				C76.66,8.74,49.66,1.74,37.66,2.74z M18.82,18.33c-0.82-2.76-0.72-2.65-3.47-3.47l2.34-0.79c0.44-0.04,0.95-2.39,1.13-2.68
				c0.82,2.76,0.72,2.65,3.47,3.47C19.53,15.68,19.64,15.58,18.82,18.33z M36.95,15.86c-2.39-2.2-2.24-2.15-4.87-1.5l1.28-1.96
				c0.32-0.26-0.8-2.76-0.85-3.12c2.39,2.19,2.25,2.14,4.87,1.5C35.8,12.98,35.81,12.83,36.95,15.86z M47.75,12.56
				c-0.88-2.62-0.79-2.52-3.03-3.13L46.5,8.5c0.07-0.01,0.13-0.12,0.19-0.28c0.07-0.19,0.13-0.46,0.19-0.75V7.46
				c0.13-0.68,0.22-1.47,0.29-1.64c0.87,2.63,0.78,2.53,3.02,3.14C48.08,9.94,48.16,9.83,47.75,12.56z M60.09,18.93
				c-0.64-2.16-0.72-2.56-2.04-3.03c-0.11-0.04-0.24-0.08-0.37-0.12c-0.3-0.09-0.65-0.2-1.06-0.32l0.87-0.29l0.89-0.3l0.58-0.2
				c0.15-0.01,0.32-0.31,0.47-0.7c0.09-0.23,0.18-0.5,0.26-0.76c0.18-0.55,0.32-1.09,0.4-1.22c0.82,2.76,0.71,2.66,3.47,3.47
				C60.8,16.28,60.91,16.18,60.09,18.93z M68.49,24.82c0.39-2.16,0.35-2-0.84-3.73c1.92,0.59,2.09,0.55,3.57-0.8
				c-0.15,1.3-0.57,2.49,0.9,3.63C70.82,23.77,69.62,23.35,68.49,24.82z"/>
			<path class="st1" d="M20.66,30.74c-0.58-1.28-2-2-3.8-1.08c-0.07-1.24-1.16,0.42-1.86-0.31c0.31,0.57-0.65,0.51-0.37-0.01
				c1.18-0.19,1.92-0.94,0.17-0.92c0.1-0.83-0.5-0.82-1.14-0.62c-0.05-1.12-0.56-0.56-1.07-0.64c-0.3-0.05-1.16-0.83-0.99,0.33
				c-0.32,0.05-0.61,0.13-0.51,0.52c-1.72-0.52-2.32,1.28-0.41,1.44c-0.2,1.09-0.54-0.65-1.45,0.31c-0.22-1.22-1.82,0.08-1.54,0.72
				c-0.57-0.26-1.3-0.27-1.03,0.52c-1.02-0.16-1.5,0.72-0.21,0.83c-1.14,0.54-1.63,2.3-0.79,1.91c-0.19,1.25,3.7-0.51,2.75-1.2
				c0.83,0.26,1.68-0.49,1.34-1.34c0.41,0.18,1.06,0.25,1.13-0.31c0.47,0.35,0.9,0.61,1.44,0.21c-0.19,0.86,0.08,1.57,0.34,2.64
				s0.5,2.5,0,4c-1-1-0.35-0.8-1-2c0.03,0.17-0.57-4.31-1.5-4.28c0.03,0.14,0.06,0.28,0.1,0.42c0.28,1.23,0.64,2.64,0.4,2.86
				c-0.15,0.14-1.16-0.66-2-1c-0.42-0.17-0.7,0.09-1,0c0.92,0.92,2.4,1.06,3,2c1.17,1.84,1,4.34,1,5v11c0,0.58,0,1,0,1
				c0.15-0.27,2.97,0.02,3,0c-0.08-0.33-0.18-0.73-0.29-1.2c-0.75-3.25-1.93-9.57-0.71-13.8c0.41-1.4,0.88-2.28,2-3
				c0.96-0.62,4-1,2.33-1.32l-0.33,0.32h-2v-1.76c0.39,0.45,1.09,0.45,1.71,0.15c-0.02,0.86,0.78,0.83,1.34,0.41
				c0.12,1.07,1.65,0.52,0.93-0.41c0.47-0.18,0.54-0.33,0.2-0.72C20.92,31.44,19.72,31.05,20.66,30.74z M15.52,30.58
				c0.07,0.38-0.77,0.57-0.83,0.26C14.61,30.44,15.3,30.56,15.52,30.58z M12.58,30.17c-0.43,0.25-0.84,0.84-1.39,0.36
				c0.44-0.35,1.14-0.32,0.82-1.08c0.4,0.6,0.9,0.65,1.55,0.83C13.29,31.13,12.75,30.17,12.58,30.17z M12.74,31
				c0.56,0.2,1.04,0.08,1.54-0.21c-0.02,0.26,0.06,0.45,0.19,0.57C14.03,32.17,12.96,35.34,12.74,31z M13.67,35.53
				c0.19-1.73,0.95-3.22,0.99-3.79c0.01-0.1,0.01-0.18,0.01-0.25c0,0,0,0,0.01,0c0.21,0.07,0.48,0.04,0.73-0.08
				c0.03,0.18,0.09,0.33,0.18,0.46C15.28,32.46,14.01,34.86,13.67,35.53z"/>
			<path class="st4" d="M41.86,20.29c-0.21,1.14-0.22,1.73-0.2,2.78C41.78,22.39,41.87,20.99,41.86,20.29z"/>
			<path class="st4" d="M73.83,35.47c-3.46,0.79-9.95,2.77-12.97,3.86C64.33,38.54,70.82,36.56,73.83,35.47z"/>
			<path class="st4" d="M67.78,41.62c-0.8-0.04-2.43,0.08-3.24,0.2C65.34,41.86,66.98,41.74,67.78,41.62z"/>
			<path class="st4" d="M62.43,26.42c-2.64,1.48-7.47,4.71-9.67,6.36C55.4,31.3,60.22,28.07,62.43,26.42z"/>
			<path class="st4" d="M17.55,36.67c1.44,0.15,4.25,0.78,5.61,1.19C21.72,37.71,18.9,37.08,17.55,36.67z"/>
			<path class="st4" d="M33.05,20.95c1.28,1.36,3.5,4.22,4.48,5.66C36.25,25.24,34.03,22.38,33.05,20.95z"/>
			<path class="st4" d="M15.15,41.38c-1.89,0.13,0.23-0.34,4.23,0.2C18.37,41.65,16.23,41.52,15.15,41.38z"/>
			<path class="st4" d="M3.37,40.24c0.9,0.08,2.79,0.49,3.73,0.77C6.2,40.93,4.31,40.52,3.37,40.24z"/>
			<path class="st4" d="M49.59,20.46c-1.19,1.24-3.28,3.87-4.2,5.2C46.59,24.42,48.67,21.79,49.59,20.46z"/>
			<path class="st4" d="M24.56,22.55c2.24,1.57,6.28,4.96,8.11,6.7C30.43,27.68,26.39,24.28,24.56,22.55z"/>
			<path class="st4" d="M21.66,32.53c1.14,0.51,3.29,1.78,4.3,2.47C24.82,34.49,22.67,33.23,21.66,32.53z"/>
			<path class="st4" d="M56.94,23.06c-2.16,1.42-6.1,4.67-7.9,6.38C51.2,28.03,55.14,24.78,56.94,23.06z"/>
			<path class="st4" d="M69.13,30.43c-3.27,1.38-9.31,4.46-12.09,6.06C60.31,35.11,66.35,32.03,69.13,30.43z"/>
			<g class="st5">
				<g class="st6">
					<g>
						<path class="st7" d="M62.75,51.37c0.04,0.44,0.08,0.88,0.11,1.32c0,0.02,0.03,0.03,0.05,0.03c0.03,0,0.06,0,0.09-0.01
							c0.04-0.01,0.11-0.04,0.11-0.09c-0.04-0.44-0.08-0.88-0.11-1.32c0-0.02-0.03-0.03-0.05-0.03c-0.03,0-0.06,0-0.09,0.01
							C62.82,51.3,62.75,51.32,62.75,51.37L62.75,51.37z"/>
					</g>
				</g>
				<g class="st6">
					<g>
						<path class="st7" d="M61.46,51.7c0.02,0.39,0.13,0.77,0.1,1.16c0,0.06,0.06,0.07,0.11,0.07c0.04-0.01,0.13-0.03,0.13-0.09
							c0.03-0.4-0.08-0.8-0.1-1.2c0-0.02-0.03-0.04-0.05-0.04c-0.03-0.01-0.06-0.01-0.09,0C61.51,51.61,61.45,51.64,61.46,51.7
							L61.46,51.7z"/>
					</g>
				</g>
				<g class="st6">
					<g>
						<path class="st7" d="M59.7,51.88c0.04,0.49,0.09,0.97,0.14,1.46c0,0.05,0.25,0,0.24-0.06c-0.04-0.49-0.09-0.97-0.14-1.46
							C59.93,51.77,59.69,51.81,59.7,51.88L59.7,51.88z"/>
					</g>
				</g>
				<g class="st6">
					<g>
						<path class="st7" d="M58.36,52.04c0.04,0.17,0.07,0.34,0.09,0.52c0.02,0.15,0.02,0.3,0.02,0.46c0,0.11,0,0.22-0.01,0.33
							c0,0.05,0.24,0.01,0.24-0.06c0.01-0.33,0.01-0.66-0.04-0.98c-0.02-0.11-0.04-0.21-0.06-0.32c-0.01-0.04-0.11-0.02-0.13-0.01
							C58.44,51.97,58.35,51.99,58.36,52.04L58.36,52.04z"/>
					</g>
				</g>
				<g class="st6">
					<g>
						<path class="st7" d="M56.82,52.04c0.04,0.43,0.06,0.87,0.1,1.3c0,0.02,0.03,0.03,0.05,0.03c0.03,0,0.06,0,0.09-0.01
							c0.04-0.01,0.11-0.04,0.11-0.08c-0.04-0.43-0.06-0.87-0.1-1.3c0-0.02-0.03-0.03-0.05-0.03c-0.03,0-0.06,0-0.09,0.01
							C56.89,51.96,56.81,51.99,56.82,52.04L56.82,52.04z"/>
					</g>
				</g>
				<g class="st6">
					<g>
						<path class="st7" d="M54.99,51.81c0.02,0.5-0.01,1,0.01,1.51c0,0.06,0.06,0.09,0.11,0.08c0.05,0,0.13-0.04,0.13-0.1
							c-0.02-0.5,0.01-1-0.01-1.51c0-0.06-0.06-0.09-0.11-0.08C55.07,51.71,54.98,51.75,54.99,51.81L54.99,51.81z"/>
					</g>
				</g>
				<g class="st6">
					<g>
						<path class="st7" d="M64.11,51.37c0.03,0.19,0,0.38-0.01,0.57c-0.02,0.19-0.01,0.37,0.06,0.55c0.02,0.04,0.1,0.02,0.13,0.01
							c0.03-0.01,0.06-0.02,0.08-0.03c0.01-0.01,0.03-0.02,0.03-0.04c-0.07-0.18-0.08-0.36-0.06-0.55c0.02-0.19,0.04-0.38,0.01-0.57
							c0-0.02-0.03-0.02-0.04-0.02c-0.03,0-0.06,0-0.09,0.01c-0.03,0.01-0.06,0.02-0.08,0.03C64.13,51.35,64.11,51.36,64.11,51.37
							L64.11,51.37z"/>
					</g>
				</g>
				<g class="st6">
					<g>
						<path class="st7" d="M46.7,52.04c0.07,0.52,0.06,1.05,0,1.57c0,0.03,0.23,0.01,0.24-0.06c0.06-0.52,0.07-1.05,0-1.57
							C46.93,51.92,46.69,51.97,46.7,52.04L46.7,52.04z"/>
					</g>
				</g>
				<g class="st6">
					<g>
						<path class="st7" d="M44.03,51.88c0.12,0.55,0.14,1.11,0.06,1.67c-0.02,0.12,0.23,0.09,0.24-0.02
							c0.09-0.57,0.06-1.15-0.06-1.71C44.24,51.71,44,51.77,44.03,51.88L44.03,51.88z"/>
					</g>
				</g>
				<g class="st6">
					<g>
						<path class="st7" d="M42.11,51.84c-0.06,0.14-0.1,0.29-0.12,0.45c-0.02,0.14-0.01,0.28-0.01,0.42
							c0.02,0.29,0.06,0.59,0.04,0.88c-0.01,0.12,0.24,0.08,0.24-0.02c0.02-0.3-0.02-0.59-0.04-0.88c-0.02-0.28,0-0.56,0.11-0.82
							C42.39,51.74,42.15,51.74,42.11,51.84L42.11,51.84z"/>
					</g>
				</g>
				<g class="st6">
					<g>
						<path class="st7" d="M39.62,51.78c0,0.56,0,1.13,0,1.69c0,0.02,0.03,0.03,0.05,0.03c0.03,0.01,0.06,0,0.09-0.01
							c0.04-0.01,0.11-0.04,0.11-0.09c0-0.56,0-1.13,0-1.69c0-0.02-0.03-0.03-0.05-0.03c-0.03-0.01-0.06,0-0.09,0.01
							C39.69,51.71,39.62,51.73,39.62,51.78L39.62,51.78z"/>
					</g>
				</g>
				<g class="st6">
					<g>
						<path class="st7" d="M36.88,51.63c0.03,0.61,0.1,1.22,0,1.83c-0.02,0.11,0.23,0.07,0.24-0.02c0.1-0.61,0.02-1.22,0-1.83
							c0-0.06-0.06-0.07-0.11-0.07C36.98,51.54,36.88,51.57,36.88,51.63L36.88,51.63z"/>
					</g>
				</g>
				<g class="st6">
					<g>
						<path class="st7" d="M16.43,51.51c0.03,0.18,0.06,0.36,0.06,0.54c0,0.13,0,0.25-0.01,0.39c0,0.11-0.01,0.22-0.01,0.33
							c0,0.02,0.03,0.03,0.05,0.03c0.03,0.01,0.06,0,0.09-0.01c0.04-0.01,0.11-0.04,0.11-0.09c0-0.31,0.03-0.61,0-0.91
							c-0.01-0.12-0.03-0.23-0.05-0.34c0-0.02-0.03-0.03-0.05-0.03c-0.03-0.01-0.06,0-0.09,0.01C16.5,51.43,16.42,51.46,16.43,51.51
							L16.43,51.51z"/>
					</g>
				</g>
				<g class="st6">
					<g>
						<path class="st7" d="M18.58,51.51c0.01,0.2,0.01,0.4,0,0.6c-0.01,0.17-0.01,0.34-0.01,0.52c0,0.13,0,0.26,0.01,0.39
							c0,0.02,0.03,0.03,0.05,0.04c0.03,0.01,0.06,0,0.09,0c0.05-0.01,0.11-0.04,0.1-0.1c-0.01-0.2-0.01-0.4,0-0.6
							c0.01-0.17,0.01-0.34,0.01-0.52c0-0.13,0-0.26-0.01-0.39c0-0.02-0.03-0.03-0.05-0.04c-0.03-0.01-0.06,0-0.09,0
							C18.63,51.43,18.57,51.46,18.58,51.51L18.58,51.51z"/>
					</g>
				</g>
				<g class="st6">
					<g>
						<path class="st7" d="M20.12,51.54c0.01,0.3,0.06,0.59,0.1,0.88c0.03,0.29,0.02,0.57-0.05,0.85c-0.02,0.06,0.07,0.08,0.11,0.08
							c0.06,0,0.12-0.04,0.13-0.1c0.08-0.28,0.08-0.57,0.05-0.87c-0.03-0.29-0.08-0.57-0.1-0.86c0-0.06-0.06-0.08-0.11-0.08
							C20.21,51.44,20.12,51.48,20.12,51.54L20.12,51.54z"/>
					</g>
				</g>
				<g class="st6">
					<g>
						<path class="st7" d="M21.85,51.56c0.07,0.29,0.04,0.59-0.01,0.88c-0.04,0.3-0.1,0.6-0.07,0.9c0,0.06,0.1,0.06,0.14,0.05
							c0.05-0.01,0.1-0.05,0.1-0.11c-0.05-0.6,0.23-1.18,0.08-1.78C22.07,51.39,21.83,51.45,21.85,51.56L21.85,51.56z"/>
					</g>
				</g>
				<g class="st6">
					<g>
						<path class="st7" d="M23.94,51.6c0,0.62,0.01,1.25,0.01,1.87c0,0.04,0.24,0,0.24-0.06c0-0.62-0.01-1.25-0.01-1.87
							C24.18,51.5,23.94,51.53,23.94,51.6L23.94,51.6z"/>
					</g>
				</g>
				<g class="st6">
					<g>
						<path class="st7" d="M26.42,51.78c0.02,0.33,0.05,0.67,0.06,1c0.01,0.33-0.01,0.66-0.06,0.99c-0.01,0.07,0.23,0.03,0.24-0.04
							c0.06-0.33,0.08-0.67,0.07-1.01c-0.01-0.34-0.05-0.68-0.06-1.02C26.66,51.66,26.42,51.71,26.42,51.78L26.42,51.78z"/>
					</g>
				</g>
				<g class="st6">
					<g>
						<path class="st7" d="M28.27,51.99c0,0.67,0,1.33,0,2c0,0.05,0.11,0.03,0.14,0.03c0.05-0.01,0.1-0.04,0.1-0.09
							c0-0.67,0-1.33,0-2c0-0.05-0.11-0.03-0.14-0.03C28.33,51.91,28.27,51.94,28.27,51.99L28.27,51.99z"/>
					</g>
				</g>
				<g class="st6">
					<g>
						<path class="st7" d="M30.95,51.7c0.06,0.67,0.19,1.33,0.24,2c0.01,0.07,0.25,0.02,0.24-0.06c-0.06-0.67-0.19-1.33-0.24-2
							C31.19,51.56,30.94,51.61,30.95,51.7L30.95,51.7z"/>
					</g>
				</g>
				<g class="st6">
					<g>
						<path class="st7" d="M33.28,51.99c0.01,0.27,0.05,0.54,0.1,0.8c0.05,0.27,0.07,0.53,0.06,0.8c0,0.05,0.07,0.05,0.1,0.04
							c0.03-0.01,0.14-0.03,0.14-0.08c0.02-0.28-0.01-0.55-0.05-0.82c-0.05-0.27-0.09-0.54-0.1-0.82c0-0.02-0.03-0.03-0.05-0.03
							c-0.03,0-0.06,0-0.09,0.01C33.35,51.92,33.28,51.94,33.28,51.99L33.28,51.99z"/>
					</g>
				</g>
				<g class="st6">
					<g>
						<path class="st7" d="M53.55,52.04c0.03,0.23,0.04,0.47,0.04,0.71c0,0.2-0.02,0.39-0.03,0.59c-0.01,0.15-0.01,0.29-0.01,0.44
							c0,0.06,0.06,0.08,0.11,0.07c0.04,0,0.13-0.04,0.13-0.1c0-0.44,0.05-0.88,0.04-1.31c-0.01-0.15-0.02-0.31-0.04-0.46
							c-0.01-0.06-0.1-0.06-0.14-0.05C53.59,51.94,53.54,51.98,53.55,52.04L53.55,52.04z"/>
					</g>
				</g>
				<path class="st8" d="M47.61,49.67c0.04,1.49,0.23,2.51,0.26,4"/>
				<path class="st8" d="M52.33,49.34c0,1.82,0.2,2.6,0.29,4.42"/>
				<path class="st8" d="M60.21,44.38c0.09,0.26,0.75,0.83,0.84,1.09"/>
				<path class="st8" d="M58.32,44.34c0.13,0.26,0.66,0.76,0.79,1.02"/>
				<path class="st8" d="M57.04,44.08c0.05,0.25,0.8,1.04,0.85,1.29"/>
				<path class="st8" d="M31.07,43.37c-0.14,0.4-0.33,0.79-0.55,1.15"/>
				<path class="st8" d="M29.76,43.22c-0.2,0.23-0.45,0.97-0.52,1.27"/>
				<path class="st8" d="M27.98,43.12c-0.07,0.34-0.57,0.78-0.52,1.13"/>
				<path class="st8" d="M22.88,42.53c-0.33,0.24-0.71,0.94-0.77,1.34"/>
				<path class="st8" d="M23.72,42.67c-0.18,0.2-0.5,0.79-0.57,1.05"/>
				<path class="st8" d="M32.48,43.37c-0.06,0.25-0.17,0.49-0.32,0.7c0.03-0.04,0.07-0.07,0.1-0.11"/>
				<path class="st8" d="M33.61,43.22c-0.02,0.03-0.03,0.07-0.05,0.1"/>
				<path class="st8" d="M25.14,43.12c-0.19,0.27-0.33,0.57-0.4,0.89"/>
				<path class="st8" d="M36.45,33.75c0.01,0.25-0.03,0.5-0.12,0.74"/>
				<path class="st8" d="M35.69,33.65c-0.1,0.2-0.2,0.4-0.31,0.59"/>
				<path class="st8" d="M34.47,33.46c-0.15,0.21,0.07,0.79-0.08,1"/>
				<path class="st8" d="M33.4,33.46c-0.31,0.14-0.64,0.74-0.74,1.07"/>
				<path class="st8" d="M51.14,40.14c0.08,0.2,0.19,0.4,0.34,0.56"/>
				<path class="st8" d="M48.77,40.16c0.27,0.25,0.45,0.58,0.52,0.94c-0.02-0.02-0.04-0.05-0.06-0.07"/>
				<path class="st8" d="M54.54,44.03c0.26,0.21,0.7,0.73,0.82,1.04"/>
				<path class="st8" d="M53.52,44.25c0.1,0.2,0.41,0.64,0.51,0.85"/>
				<path class="st8" d="M51.97,44.34c0.01,0.27,0.48,0.64,0.57,0.9"/>
				<path class="st8" d="M50.18,44.08c0.03,0.23,0.61,1.35,0.71,1.56"/>
				<path class="st8" d="M46.24,44.25c0.12,0.26,0.52,1.35,0.6,1.62"/>
				<path class="st8" d="M47.24,44.25c0.07,0.21,0.41,1.18,0.5,1.38"/>
				<path class="st8" d="M48.28,44.17c0.14,0.28,0.46,1.17,0.6,1.46"/>
				<path class="st8" d="M49.43,44.25c0.07,0.34,0.3,1.04,0.37,1.38"/>
				<path class="st8" d="M44.73,44.17c0.1,0.3,0.19,0.6,0.29,0.9"/>
				<path class="st8" d="M43.14,44.02c0.14,0.46,0.29,0.92,0.43,1.38"/>
				<path class="st8" d="M42.1,43.88c-0.02,0.42,0.07,0.84,0.26,1.22"/>
				<path class="st8" d="M37.43,43.51c0.01,0.58,0.1,1.16,0.26,1.73"/>
				<path class="st8" d="M38.68,43.71c0.04,0.51,0.13,1.02,0.26,1.52"/>
				<path class="st8" d="M40.06,43.98c0.1,0.4,0.17,0.81,0.21,1.22"/>
				<path class="st8" d="M41.06,44.15c0.1,0.43,0.17,0.88,0.2,1.32"/>
				<path class="st8" d="M43.35,38.42c0.11,0.3,0.19,0.61,0.23,0.92"/>
				<path class="st8" d="M42.43,38.58c0.01,0.28,0.03,0.55,0.04,0.83"/>
				<path class="st8" d="M37.44,38.08c-0.01,0.39,0.07,0.77,0.23,1.13"/>
				<path class="st8" d="M38.93,38.15c-0.03,0.36,0.01,0.72,0.12,1.06"/>
				<path class="st8" d="M39.95,38.41c-0.01,0.34,0.05,0.68,0.17,0.99"/>
				<path class="st8" d="M41.31,38.48c0.08,0.3,0.17,0.59,0.25,0.89"/>
				<path class="st8" d="M49.42,37.13c0.22,0.2,0.35,0.49,0.38,0.78"/>
				<path class="st8" d="M48.02,36.9c0.24,0.33,0.42,0.71,0.53,1.11"/>
				<path class="st8" d="M43.95,36.73c0.21,0.34,0.38,0.71,0.5,1.09"/>
				<path class="st8" d="M45.2,36.9c0.11,0.34,0.23,0.68,0.38,1.01"/>
				<path class="st8" d="M46.47,36.99c0.23,0.25,0.39,0.58,0.43,0.92"/>
				<path class="st8" d="M55.95,40.42c0.26,0.28,0.45,0.61,0.88,1.08"/>
				<path class="st8" d="M52.61,40.4c0.29,0.28,0.71,0.78,0.93,1.12"/>
				<path class="st8" d="M54.03,40.4c0.11,0.35,0.37,0.88,0.55,1.19"/>
				<path class="st8" d="M55.08,40.67c0.06,0.24,0.47,0.77,0.57,0.99"/>
				<path class="st8" d="M50.18,40.08c0.24,0.28,0.43,0.6,0.53,0.95"/>
				<path class="st8" d="M36.15,40.8c-0.15,0.2-0.16,1.07-0.23,1.31"/>
				<path class="st8" d="M35.08,40.66c-0.19,0.22-0.5,1.11-0.61,1.38"/>
				<path class="st8" d="M33.71,40.66c-0.15,0.26-0.16,0.93-0.31,1.18"/>
				<path class="st8" d="M32.16,40.61c-0.09,0.07-0.23,1.12-0.26,1.23"/>
				<path class="st8" d="M24.92,40.11c-0.29,0.2-0.51,0.49-0.63,0.82"/>
				<path class="st8" d="M25.56,40.28c-0.01,0.04-0.02,0.09-0.03,0.13c-0.04,0.19-0.08,0.37-0.13,0.56"/>
				<path class="st8" d="M26.7,40.4c-0.17,0.27-0.28,0.58-0.32,0.9"/>
				<path class="st8" d="M27.98,40.4c-0.12,0.3-0.49,0.55-0.53,0.87"/>
				<path class="st8" d="M30.04,40.28c-0.34,0.24-0.82,0.83-0.8,1.24"/>
				<path class="st8" d="M31.19,40.42c-0.29,0.12-0.62,0.93-0.68,1.24"/>
				<path class="st8" d="M35.1,43.35c0.04,0.46,0.06,0.98-0.25,1.33"/>
				<path class="st8" d="M33.57,43.25c-0.04,0.3-0.19,0.58-0.41,0.79"/>
				<path class="st8" d="M36.89,46.85c0.09-0.17-0.18,1,0,1.07c-0.31,0.36,0.45,0.55,1.13,0.48c0.4-0.22,0.77-0.53,1.06-0.88
					c0.07,0.3,0.24,0.57,0.48,0.77c0.28-0.23,0.56-0.46,0.84-0.68c0.06,0.25,0.23,0.46,0.45,0.59c0.22-0.28,0.5-0.52,0.81-0.69
					c0.07,0.18,0.17,0.39,0.36,0.43c0.23,0.05,0.42-0.16,0.57-0.33s0.39-0.35,0.59-0.24c0.07,0.32,0.23,0.61,0.45,0.84
					c0.17-0.41,0.54-0.73,0.97-0.83c0.05,0.25,0.15,0.5,0.31,0.71c0.02,0.03,0.06,0.07,0.1,0.07c0.04,0,0.07-0.03,0.1-0.05
					c0.14-0.13,0.28-0.25,0.42-0.38c0.04,0.26,0.1,0.46,0.34,0.54c0.55-0.09,0.14-1.51,0.03-1.7"/>
				<path class="st8" d="M36.15,46.85c-0.31,0.2-0.3,1.14-0.62,1.34c0.02-0.31-0.61-0.74-0.91-0.65c-0.3,0.09-1.09,0.61-1.24,0.88
					c-0.17-0.22-0.95-0.34-1.12-0.56c-0.14,0.25-0.41,0.43-0.69,0.46c-0.05-0.2-0.15-0.4-0.28-0.56c-0.04,0.28-0.22,0.53-0.47,0.65
					c-0.04-0.18-0.14-0.35-0.27-0.48c-0.17,0.3-0.44,0.53-0.76,0.65c-0.07-0.32-0.23-0.63-0.45-0.87c-0.01,0.38-0.38,0.71-0.76,0.7
					c-0.04,0-0.08-0.01-0.12-0.03c-0.14-0.09-0.03-0.36-0.16-0.46c-0.27,0.19-0.55,0.37-0.83,0.54c-0.04-0.21-0.05-0.43-0.03-0.65
					c0,0.1,0,0.19-0.01,0.29c-0.06,0.03-0.13,0.06-0.19,0.09c0.02-0.12-0.03-0.25-0.13-0.32c0,0.12,0,0.24-0.01,0.36
					c0-0.02,0-0.05,0-0.07c-0.38,0.14-1.1,0.36-1.48,0.5c-0.05-0.13-0.08-0.26-0.1-0.4c-0.23,0.09-0.27,0.45-0.51,0.5
					c-0.15,0.04-0.3-0.07-0.37-0.21c-0.06-0.14-0.06-0.3-0.06-0.45c-0.38,0.05-0.75,0.17-1.09,0.35c-0.09-0.17-0.19-0.34-0.28-0.52
					c-0.03-0.06-0.07-0.12-0.13-0.14c-0.06-0.02-0.13,0.01-0.18,0.03c-0.19,0.1-0.37,0.22-0.53,0.37c-0.04-0.19-0.05-0.39-0.04-0.59
					c0,0.32,0,0.64,0,0.95"/>
				<path class="st8" d="M16.15,47.56c0.18,0.39,0.42,0.82,0.84,0.88c0.44,0.07,0.81-0.31,1.1-0.65c0.02,0.21,0.04,0.42,0.06,0.64
					c0.44-0.14,0.84-0.4,1.14-0.74c0,0.35,0.19,0.69,0.49,0.87c0.09,0.05,0.2,0.09,0.31,0.07c0.12-0.03,0.2-0.12,0.28-0.22
					c0.22-0.26,0.44-0.53,0.67-0.79c0.01,0.26,0.14,0.5,0.34,0.66c0.2-0.08,0.38-0.21,0.52-0.37"/>
				<path class="st8" d="M64.85,48.07c0.07,0.3,0.13,0.59,0.18,0.89c0.01,0.08,0.01,0.19-0.07,0.21c-0.06,0.01-0.11-0.03-0.15-0.08
					c-0.37-0.39-0.81-0.71-1.31-0.92c0.09,0.26-0.18,0.53-0.46,0.54s-0.52-0.16-0.72-0.34c-0.2-0.18-0.4-0.39-0.65-0.49
					c0.08,0.37-0.26,0.75-0.63,0.78c-0.38,0.03-0.74-0.24-0.89-0.59c-0.03,0.36-0.37,0.67-0.74,0.67c-0.39,0-0.5-0.65-0.75-0.94
					c-0.01,0.12-0.22,0.58-0.23,0.7c-0.11,0.05-1.03-1.14-1.05-1.25"/>
				<path class="st8" d="M52.45,48.24c0.24,0.18,0.46,0.41,0.62,0.66c0.11-0.36,0.3-0.69,0.54-0.98c0.18,0.31,0.42,0.59,0.71,0.81
					c0.16-0.2,0.51-0.45,0.73-0.6c0.06-0.16,0.09-0.34,0.08-0.51c0.03,0.17,0.05,0.34,0.08,0.52c0.01,0.05,0.02,0.11,0.05,0.15
					c0.09,0.1,0.26,0.04,0.35-0.05s0.17-0.22,0.29-0.26c0.24,0.42,0.65,0.73,1.12,0.85c0-0.42-0.11-0.84-0.31-1.22"/>
				<path class="st8" d="M62.15,45.87c0.25,0.29,0.46,0.62,0.62,0.97"/>
				<path class="st8" d="M60.4,46.11c0.12,0.3,0.25,0.6,0.37,0.91"/>
				<path class="st8" d="M59.12,45.95c0.04,0.25,0.15,0.49,0.32,0.67"/>
				<path class="st8" d="M57.59,46.11c0.03,0.13,0.57,0.78,0.59,0.91"/>
				<path class="st8" d="M36.25,36.58c0.05,0.44-0.07,0.9-0.34,1.26"/>
				<path class="st8" d="M35.04,36.73c-0.22,0.41-0.06,0.7-0.28,1.11"/>
				<path class="st8" d="M33.62,36.89c-0.23,0.37-0.17,0.69-0.26,1.12"/>
				<path class="st8" d="M31.9,36.9c-0.37,0.3-0.31,0.75-0.51,1.18"/>
				<path class="st8" d="M30.52,37.11c-0.16,0.4-0.32,0.8-0.48,1.2"/>
				<path class="st8" d="M29.46,37.04c-0.47,0.28-0.85,0.7-1.08,1.19"/>
				<path class="st8" d="M40.47,33.11c-0.08-0.35-0.1-0.71-0.06-1.06C40.52,32.29,40.46,32.86,40.47,33.11z"/>
				<path class="st8" d="M39.12,32.13c0,0.38,0.03,0.76,0.09,1.13"/>
				<path class="st8" d="M37.9,31.84c0,0.28-0.34,1.14-0.34,1.42"/>
				<path class="st8" d="M46.27,32.38c0.21,0.2,0.34,0.46,0.38,0.74"/>
				<path class="st8" d="M45.59,32.43c0.1,0.22,0.21,0.44,0.32,0.66"/>
				<path class="st8" d="M44.4,32.4c0.04,0.18,0.11,0.36,0.21,0.52"/>
				<path class="st8" d="M43.75,32.35c-0.01,0.24,0.06,0.71,0.2,0.91"/>
				<path class="st8" d="M42.24,32.35c0.05,0.27,0.3,0.67,0.45,0.91"/>
				<path class="st8" d="M35.34,31.84c-0.23,0.17-0.43,0.4-0.58,0.65"/>
				<path class="st8" d="M46.24,31.24c-0.32,0.04-8.85-0.76-9.24-0.81"/>
				<path class="st8" d="M52.54,48.23c-0.99-0.86-2.42-1.18-3.69-0.85c-0.09,0.02-0.18,0.05-0.23,0.13
					c-0.06,0.09-0.05,0.21-0.08,0.32c-0.09,0.35-0.59,0.43-0.78,0.74c-0.12-0.13-0.23-0.25-0.35-0.38
					c-0.02-0.02-0.05-0.05-0.08-0.06c-0.08-0.02-0.14,0.07-0.21,0.12s-0.21-0.03-0.14-0.08"/>
				<path class="st8" d="M56.91,48.14c-0.1-0.27-0.19-0.54-0.29-0.81c-0.07-0.2-0.2-0.43-0.41-0.4"/>
				<path class="st8" d="M46.82,48.19c-0.21-0.38-0.14-0.83-0.13-1.26"/>
				<path class="st8" d="M48.88,33.92c0.26,0.31,0.45,0.68,0.55,1.08"/>
				<path class="st8" d="M48.01,34.02c0.17,0.33,0.32,0.67,0.43,1.02"/>
				<path class="st8" d="M49.73,34.24c0.13,0.22,0.23,0.46,0.29,0.71"/>
				<path class="st8" d="M46.86,33.84c0.04,0.36,0.6,0.93,0.74,1.26"/>
				<path class="st8" d="M42.86,33.84c0.14,0.38,0.23,0.84,0.43,1.2"/>
				<path class="st8" d="M44.33,33.83c0.11,0.42,0.23,0.84,0.34,1.27"/>
				<path class="st8" d="M46,33.8c0.02,0.44,0.34,0.98,0.54,1.38"/>
				<path class="st8" d="M42.1,35.18c0.21,0.24,0.37,0.56,0.25,0.85"/>
				<path class="st8" d="M37.43,35.04c0.04,0.36-0.18,0.64-0.14,1"/>
				<path class="st8" d="M38.25,34.95c0,0.35,0,0.96,0,1.3"/>
				<path class="st8" d="M39.65,34.77c0,0.47,0,0.93,0,1.4"/>
				<path class="st8" d="M40.92,35c-0.04,0.39-0.01,0.79,0.08,1.17"/>
				<path class="st8" d="M44.33,41.03c0.09,0.21,0.22,0.39,0.31,0.6c0.09,0.21,0.14,0.44,0.08,0.65"/>
				<path class="st8" d="M43.16,41.17c0.05,0.32,0.14,0.64,0.26,0.94"/>
				<path class="st8" d="M37.34,40.64c0.02,0.42,0.05,0.84,0.07,1.26"/>
				<path class="st8" d="M38.55,41c0.22,0.33,0.35,0.72,0.35,1.12c0,0.05-0.03,0.12-0.07,0.1"/>
				<path class="st8" d="M40.33,40.93c0.2,0.41,0.3,0.87,0.3,1.32"/>
				<path class="st8" d="M41.59,41.24c0.17,0.24,0.29,0.51,0.36,0.79"/>
				<path class="st8" d="M45.39,40.08c0.4,0.43,0.48,0.69,0.61,1.26"/>
				<path class="st8" d="M47.24,40.1c0.12,0.23,0.12,0.48,0.28,0.68s0.31,0.32,0.22,0.56"/>
				<path class="st8" d="M48.11,40.1c0.26,0.34,0.44,0.74,0.54,1.16"/>
			</g>
			<path class="st4" d="M20.35,26.81c2.52,1.07,7.17,3.55,9.32,4.86C27.16,30.61,22.5,28.13,20.35,26.81z"/>
			<circle class="st9" cx="40.02" cy="41.64" r="39.2"/>
			<path class="st1" d="M73.28,57.41c0,0-8.12-5.61-7.62-6.67s3.13,1.85,3.13,1.85s-3.19-5.87-2.13-5.85
				c2.07,0.02,3.09,3.31,3.09,3.31s-2.7-6.78-2.09-7.31s2.67,4.54,2.67,4.54s-1.67-8.54-0.67-8.54s2,8,2,8s1.31-10.68,2.16-10.34
				c0.84,0.34-0.22,9.71-0.22,9.71s3.1-8.34,4.08-7.86s-3.5,10.65-3.5,10.65s2.49-5.16,4.49-6.16c1,0-3,9-3,9l3-5l-2.02,9.1
				L73.28,57.41z"/>
		</g>
		<g>
			<path class="st1" d="M97.81,37.19h-2.05l-1.48-4.37h-5.65l-1.44,4.37h-1.89l4.96-14.71h2.44L97.81,37.19z M91.43,24.19
				l-2.36,7.03h4.74l-2.36-7.03H91.43z"/>
			<path class="st1" d="M99.77,37.19V26.75h1.58l0.1,1.18c1.04-0.79,2.13-1.4,3.56-1.4c1.38,0,2.22,0.47,2.62,1.44
				c1.02-0.81,2.2-1.44,3.62-1.44c2.2,0,2.97,1.22,2.97,3.56v7.11h-1.85v-6.85c0-1.4-0.29-2.19-1.63-2.19c-1,0-2.2,0.65-2.81,1.16
				c0.02,0.24,0.04,0.51,0.04,0.77v7.11h-1.85v-6.85c0-1.4-0.28-2.19-1.63-2.19c-1.06,0-2.34,0.73-2.89,1.24v7.8H99.77z"/>
			<path class="st1" d="M125.26,36.04c0.18,0,0.37-0.04,0.63-0.12l0.08,1.16c-0.41,0.2-0.93,0.33-1.44,0.33
				c-1.04,0-1.5-0.57-1.61-1.24c-0.81,0.81-1.89,1.28-3.35,1.28c-2.64,0-3.09-1.79-3.09-2.81c0-2.78,2.46-3.56,5.41-3.56
				c0.33,0,0.63,0.02,0.91,0.04V30.1c0-1.32-0.37-2.13-2.07-2.13c-1.44,0-1.99,0.57-2.21,1.73l-1.63-0.3c0.33-1.95,1.58-2.87,4-2.87
				c2.58,0,3.74,1,3.74,3.6v5.1C124.63,35.79,124.73,36.04,125.26,36.04z M121.76,32.4c-1.44,0-3.37,0.14-3.37,1.93
				c0,0.89,0.33,1.67,1.75,1.67c1.08,0,2.11-0.57,2.68-1.18v-2.36C122.53,32.42,122.15,32.4,121.76,32.4z"/>
			<path class="st1" d="M134.52,37.19v-6.81c0-1.44-0.53-2.24-1.95-2.24c-1.2,0-2.5,0.77-3.05,1.26v7.78h-1.85V26.75h1.63l0.1,1.24
				c1.02-0.81,2.32-1.46,3.76-1.46c2.24,0,3.21,1.22,3.21,3.58v7.09H134.52z"/>
			<path class="st1" d="M138.46,31.99c0-3.82,2.24-5.47,4.92-5.47c2.93,0,4.15,1.93,4.15,4.51c0,0.41-0.02,0.87-0.08,1.36h-7.03
				c0.08,2.66,1.26,3.5,2.93,3.5c1.48,0,2.17-0.67,2.46-1.85l1.63,0.37c-0.43,2.03-2.05,3.03-4.15,3.03
				C139.58,37.44,138.46,34.86,138.46,31.99z M143.26,28.03c-1.38,0-2.72,0.83-2.83,2.91h5.18
				C145.61,29.06,144.9,28.03,143.26,28.03z"/>
			<path class="st1" d="M149.17,32.07c0-3.64,1.87-5.55,5-5.55c2.34,0,3.88,1.22,4.02,3.64l-1.77,0.24
				c-0.16-1.54-0.87-2.34-2.34-2.34c-1.5,0-2.99,0.81-2.99,3.78c0,3.11,1.26,4.04,2.93,4.04c1.42,0,2.34-0.69,2.6-2.24l1.63,0.35
				c-0.35,2.42-2.2,3.44-4.29,3.44C150.51,37.44,149.17,35.2,149.17,32.07z"/>
			<path class="st1" d="M159.71,31.99c0-3.82,2.24-5.47,4.92-5.47c2.93,0,4.15,1.93,4.15,4.51c0,0.41-0.02,0.87-0.08,1.36h-7.03
				c0.08,2.66,1.26,3.5,2.93,3.5c1.48,0,2.17-0.67,2.46-1.85l1.63,0.37c-0.43,2.03-2.05,3.03-4.15,3.03
				C160.83,37.44,159.71,34.86,159.71,31.99z M164.51,28.03c-1.38,0-2.72,0.83-2.83,2.91h5.18
				C166.87,29.06,166.15,28.03,164.51,28.03z"/>
			<path class="st1" d="M172.92,29.59v7.6h-1.85V26.75h1.54l0.14,1.5c0.92-1.24,2.01-1.73,3.48-1.73c0.12,0,0.26,0.02,0.39,0.02
				v1.91C175.32,28.27,173.77,28.8,172.92,29.59z"/>
		</g>
		<g>
			<path class="st1" d="M102.21,56.1V39.5h5.41c4.24,0,5.52,2.34,5.52,4.97c0,3.94-2.34,5.59-6.33,5.59h-2.52v6.03H102.21z
				 M110.96,44.59c0-2.38-1.31-3.3-3.96-3.3h-2.7v6.97h2.36C109.06,48.26,110.96,47.69,110.96,44.59z"/>
			<path class="st1" d="M123.89,54.79c0.21,0,0.41-0.05,0.71-0.14l0.09,1.31c-0.46,0.23-1.05,0.37-1.63,0.37
				c-1.17,0-1.7-0.64-1.81-1.4c-0.92,0.92-2.13,1.44-3.78,1.44c-2.98,0-3.48-2.02-3.48-3.16c0-3.14,2.77-4.01,6.1-4.01
				c0.37,0,0.71,0.02,1.03,0.05V48.1c0-1.49-0.41-2.41-2.34-2.41c-1.63,0-2.25,0.64-2.5,1.95l-1.83-0.34
				c0.37-2.2,1.79-3.23,4.51-3.23c2.91,0,4.22,1.12,4.22,4.06v5.75C123.18,54.52,123.3,54.79,123.89,54.79z M119.95,50.69
				c-1.63,0-3.8,0.16-3.8,2.18c0,1.01,0.37,1.88,1.97,1.88c1.21,0,2.38-0.64,3.03-1.33v-2.66
				C120.82,50.71,120.38,50.69,119.95,50.69z"/>
			<path class="st1" d="M126.62,56.1v-17.3h2.09v17.3H126.62z"/>
			<path class="st1" d="M141.22,54.79c0.21,0,0.41-0.05,0.71-0.14l0.09,1.31c-0.46,0.23-1.05,0.37-1.63,0.37
				c-1.17,0-1.7-0.64-1.81-1.4c-0.92,0.92-2.13,1.44-3.78,1.44c-2.98,0-3.48-2.02-3.48-3.16c0-3.14,2.77-4.01,6.1-4.01
				c0.37,0,0.71,0.02,1.03,0.05V48.1c0-1.49-0.41-2.41-2.34-2.41c-1.63,0-2.25,0.64-2.5,1.95l-1.83-0.34
				c0.37-2.2,1.79-3.23,4.51-3.23c2.91,0,4.22,1.12,4.22,4.06v5.75C140.51,54.52,140.63,54.79,141.22,54.79z M137.28,50.69
				c-1.63,0-3.8,0.16-3.8,2.18c0,1.01,0.37,1.88,1.97,1.88c1.21,0,2.38-0.64,3.02-1.33v-2.66
				C138.15,50.71,137.72,50.69,137.28,50.69z"/>
			<path class="st1" d="M143.95,38.79h2.06v6.83c1.03-0.92,2.27-1.56,3.99-1.56c2.43,0,4.29,1.54,4.29,5.87
				c0,4.58-2.25,6.44-4.97,6.44c-1.4,0-2.57-0.64-3.42-1.31h-0.02l-0.11,1.03h-1.81V38.79z M149.06,54.61c2.22,0,3.07-1.83,3.07-4.7
				c0-2.8-0.85-4.08-2.8-4.08c-1.31,0-2.61,0.8-3.3,1.47v6.1C146.56,53.78,147.71,54.61,149.06,54.61z"/>
			<path class="st1" d="M158.92,47.53v8.57h-2.09V44.32h1.74l0.16,1.7c1.03-1.4,2.27-1.95,3.92-1.95c0.14,0,0.3,0.02,0.44,0.02v2.15
				C161.63,46.04,159.88,46.63,158.92,47.53z"/>
			<path class="st1" d="M173.57,54.79c0.21,0,0.41-0.05,0.71-0.14l0.09,1.31c-0.46,0.23-1.05,0.37-1.63,0.37
				c-1.17,0-1.7-0.64-1.81-1.4c-0.92,0.92-2.13,1.44-3.78,1.44c-2.98,0-3.48-2.02-3.48-3.16c0-3.14,2.77-4.01,6.1-4.01
				c0.37,0,0.71,0.02,1.03,0.05V48.1c0-1.49-0.41-2.41-2.34-2.41c-1.63,0-2.25,0.64-2.5,1.95l-1.83-0.34
				c0.37-2.2,1.79-3.23,4.51-3.23c2.91,0,4.22,1.12,4.22,4.06v5.75C172.86,54.52,172.97,54.79,173.57,54.79z M169.63,50.69
				c-1.63,0-3.8,0.16-3.8,2.18c0,1.01,0.37,1.88,1.97,1.88c1.21,0,2.38-0.64,3.02-1.33v-2.66C170.5,50.71,170.06,50.69,169.63,50.69
				z"/>
		</g>
		<g>
			<path class="st1" d="M85.9,52.04v-12.5h1.51v12.5H85.9z"/>
			<path class="st1" d="M96.76,51.09c0.15,0,0.3-0.03,0.51-0.1l0.07,0.94c-0.33,0.17-0.76,0.26-1.17,0.26
				c-0.84,0-1.23-0.46-1.31-1.01c-0.66,0.66-1.54,1.04-2.73,1.04c-2.15,0-2.52-1.46-2.52-2.28c0-2.27,2-2.9,4.4-2.9
				c0.26,0,0.51,0.02,0.75,0.03v-0.83c0-1.08-0.3-1.74-1.69-1.74c-1.18,0-1.62,0.46-1.8,1.41l-1.33-0.25
				c0.27-1.59,1.29-2.33,3.26-2.33c2.1,0,3.05,0.81,3.05,2.93v4.16C96.25,50.9,96.33,51.09,96.76,51.09z M93.91,48.13
				c-1.17,0-2.75,0.12-2.75,1.57c0,0.73,0.26,1.36,1.42,1.36c0.88,0,1.72-0.46,2.19-0.96v-1.92C94.54,48.15,94.22,48.13,93.91,48.13
				z"/>
		</g>
		<g>
			<path class="st1" d="M85.98,61.44c0,0.79,0.8,1.02,1.66,1.26c1.02,0.28,2.12,0.58,2.12,1.85c0,1.38-1.17,1.92-2.46,1.92
				c-1.45,0-2.35-0.54-2.53-1.88l0.84-0.12c0.16,0.69,0.51,1.3,1.7,1.3c0.75,0,1.54-0.23,1.54-1.1c0-0.81-0.78-1.03-1.63-1.25
				c-1.03-0.27-2.15-0.55-2.15-1.89c0-1.12,1-1.8,2.34-1.8c1.22,0,2.14,0.44,2.28,1.84l-0.83,0.09c-0.11-0.62-0.38-1.22-1.45-1.22
				C86.36,60.42,85.98,60.87,85.98,61.44z"/>
			<path class="st1" d="M90.19,64.05c0-1.69,1.06-2.42,2.32-2.42c1.38,0,1.96,0.86,1.96,2c0,0.18-0.01,0.39-0.04,0.6h-3.32
				c0.04,1.18,0.59,1.55,1.38,1.55c0.7,0,1.03-0.3,1.16-0.82l0.77,0.16c-0.2,0.9-0.97,1.34-1.96,1.34
				C90.72,66.47,90.19,65.32,90.19,64.05z M92.46,62.3c-0.65,0-1.29,0.37-1.33,1.29h2.45C93.57,62.76,93.23,62.3,92.46,62.3z"/>
			<path class="st1" d="M95.31,66.36v-4.63h0.75l0.05,0.52c0.49-0.35,1.01-0.62,1.68-0.62c0.65,0,1.05,0.21,1.24,0.64
				c0.48-0.36,1.04-0.64,1.71-0.64c1.04,0,1.4,0.54,1.4,1.58v3.15h-0.87v-3.03c0-0.62-0.13-0.97-0.77-0.97
				c-0.47,0-1.04,0.29-1.32,0.51c0.01,0.11,0.02,0.23,0.02,0.34v3.15h-0.87v-3.03c0-0.62-0.13-0.97-0.77-0.97
				c-0.5,0-1.1,0.32-1.36,0.55v3.46H95.31z"/>
			<path class="st1" d="M103.64,60.84c-0.39,0-0.61-0.22-0.61-0.59c0-0.38,0.22-0.58,0.61-0.58s0.62,0.21,0.62,0.58
				C104.26,60.62,104.03,60.84,103.64,60.84z M103.19,66.36v-4.63h0.87v4.63H103.19z"/>
			<path class="st1" d="M105.15,66.36v-6.8h0.87v6.8H105.15z"/>
			<path class="st1" d="M107.1,66.36v-6.8h0.87v6.8H107.1z"/>
			<path class="st1" d="M108.76,64.05c0-1.69,1.06-2.42,2.32-2.42c1.38,0,1.96,0.86,1.96,2c0,0.18-0.01,0.39-0.04,0.6h-3.32
				c0.04,1.18,0.59,1.55,1.38,1.55c0.7,0,1.03-0.3,1.16-0.82l0.77,0.16c-0.2,0.9-0.97,1.34-1.96,1.34
				C109.28,66.47,108.76,65.32,108.76,64.05z M111.02,62.3c-0.65,0-1.29,0.37-1.33,1.29h2.45C112.14,62.76,111.8,62.3,111.02,62.3z"
				/>
			<path class="st1" d="M114.75,62.99v3.37h-0.87v-4.63h0.73l0.07,0.67c0.43-0.55,0.95-0.77,1.64-0.77c0.06,0,0.12,0.01,0.18,0.01
				v0.85C115.88,62.4,115.15,62.64,114.75,62.99z"/>
			<path class="st1" d="M116.49,64.06c0-1.49,0.83-2.43,2.4-2.43c1.56,0,2.21,0.95,2.21,2.32c0,1.52-0.67,2.51-2.33,2.51
				C117.06,66.47,116.49,65.43,116.49,64.06z M120.19,64.01c0-1.28-0.48-1.7-1.33-1.7c-0.87,0-1.46,0.49-1.46,1.72
				c0,1.22,0.46,1.78,1.42,1.78C119.67,65.81,120.19,65.32,120.19,64.01z"/>
			<path class="st1" d="M126.83,66.36l-0.07-0.5l-0.01-0.01c-0.42,0.36-0.92,0.61-1.63,0.61c-1.12,0-1.88-0.67-1.88-2.35
				c0-1.83,0.99-2.49,2.08-2.49c0.57,0,1.04,0.17,1.38,0.43v-2.5h0.85v6.8H126.83z M125.44,62.33c-0.95,0-1.3,0.71-1.3,1.78
				c0,1.12,0.38,1.67,1.24,1.67c0.51,0,1.01-0.28,1.32-0.57v-2.48C126.47,62.58,126.01,62.33,125.44,62.33z"/>
			<path class="st1" d="M128.34,64.05c0-1.69,1.06-2.42,2.32-2.42c1.38,0,1.96,0.86,1.96,2c0,0.18-0.01,0.39-0.04,0.6h-3.32
				c0.04,1.18,0.59,1.55,1.38,1.55c0.7,0,1.03-0.3,1.16-0.82l0.77,0.16c-0.2,0.9-0.97,1.34-1.96,1.34
				C128.87,66.47,128.34,65.32,128.34,64.05z M130.6,62.3c-0.65,0-1.29,0.37-1.33,1.29h2.45C131.72,62.76,131.38,62.3,130.6,62.3z"
				/>
		</g>
		<g>
			<path class="st1" d="M85.03,71.81c0-1.61,0.88-2.46,2.36-2.46c1.1,0,1.83,0.54,1.9,1.61l-0.83,0.11
				c-0.08-0.68-0.41-1.04-1.1-1.04c-0.71,0-1.41,0.36-1.41,1.67c0,1.38,0.6,1.79,1.38,1.79c0.67,0,1.1-0.31,1.23-0.99l0.77,0.15
				c-0.16,1.07-1.04,1.52-2.03,1.52C85.66,74.18,85.03,73.19,85.03,71.81z"/>
			<path class="st1" d="M90.94,70.71v3.37h-0.87v-4.63h0.73l0.07,0.67c0.43-0.55,0.95-0.77,1.64-0.77c0.06,0,0.12,0.01,0.18,0.01
				v0.85C92.07,70.12,91.34,70.36,90.94,70.71z"/>
			<path class="st1" d="M92.69,71.77c0-1.69,1.06-2.42,2.32-2.42c1.38,0,1.96,0.86,1.96,2c0,0.18-0.01,0.39-0.04,0.6h-3.32
				c0.04,1.18,0.59,1.55,1.38,1.55c0.7,0,1.03-0.3,1.16-0.82l0.77,0.16c-0.2,0.9-0.97,1.34-1.96,1.34
				C93.21,74.18,92.69,73.04,92.69,71.77z M94.95,70.02c-0.65,0-1.29,0.37-1.33,1.29h2.45C96.06,70.48,95.73,70.02,94.95,70.02z"/>
			<path class="st1" d="M101.56,73.56c0.09,0,0.17-0.02,0.3-0.05l0.04,0.51c-0.19,0.09-0.44,0.14-0.68,0.14
				c-0.49,0-0.71-0.25-0.76-0.55c-0.38,0.36-0.89,0.57-1.58,0.57c-1.25,0-1.46-0.79-1.46-1.24c0-1.23,1.16-1.58,2.55-1.58
				c0.15,0,0.3,0.01,0.43,0.02v-0.45c0-0.58-0.17-0.95-0.98-0.95c-0.68,0-0.94,0.25-1.05,0.77l-0.77-0.14
				c0.15-0.86,0.75-1.27,1.89-1.27c1.22,0,1.77,0.44,1.77,1.59v2.26C101.26,73.46,101.31,73.56,101.56,73.56z M99.91,71.95
				c-0.68,0-1.59,0.06-1.59,0.85c0,0.4,0.15,0.74,0.83,0.74c0.51,0,1-0.25,1.27-0.52v-1.04C100.27,71.96,100.09,71.95,99.91,71.95z"
				/>
			<path class="st1" d="M102.09,71.81c0-1.61,0.88-2.46,2.36-2.46c1.1,0,1.83,0.54,1.9,1.61l-0.83,0.11
				c-0.08-0.68-0.41-1.04-1.1-1.04c-0.71,0-1.41,0.36-1.41,1.67c0,1.38,0.6,1.79,1.38,1.79c0.67,0,1.1-0.31,1.23-0.99l0.77,0.15
				c-0.16,1.07-1.04,1.52-2.03,1.52C102.73,74.18,102.09,73.19,102.09,71.81z"/>
			<path class="st1" d="M107.59,68.56c-0.39,0-0.61-0.22-0.61-0.59s0.22-0.59,0.61-0.59s0.62,0.21,0.62,0.59
				S107.98,68.56,107.59,68.56z M107.13,74.08v-4.63h0.87v4.63H107.13z"/>
			<path class="st1" d="M108.79,71.78c0-1.49,0.83-2.43,2.4-2.43c1.56,0,2.21,0.95,2.21,2.32c0,1.52-0.67,2.51-2.33,2.51
				C109.35,74.18,108.79,73.15,108.79,71.78z M112.48,71.73c0-1.28-0.48-1.7-1.33-1.7c-0.87,0-1.46,0.49-1.46,1.72
				c0,1.22,0.46,1.78,1.42,1.78C111.96,73.53,112.48,73.04,112.48,71.73z M110.35,68.82l0.93-1.47h1.05l-1.34,1.58L110.35,68.82z"/>
			<path class="st1" d="M117.44,74.08v-3.02c0-0.64-0.25-0.99-0.92-0.99c-0.57,0-1.18,0.34-1.44,0.56v3.45h-0.87v-4.63h0.77
				l0.05,0.55c0.48-0.36,1.09-0.65,1.78-0.65c1.06,0,1.52,0.54,1.52,1.58v3.14H117.44z"/>
			<path class="st1" d="M121.44,68.56c-0.39,0-0.61-0.22-0.61-0.59s0.22-0.59,0.61-0.59s0.62,0.21,0.62,0.59
				S121.83,68.56,121.44,68.56z M120.99,74.08v-4.63h0.87v4.63H120.99z"/>
			<path class="st1" d="M126.18,74.08v-3.02c0-0.64-0.25-0.99-0.92-0.99c-0.57,0-1.18,0.34-1.44,0.56v3.45h-0.87v-4.63h0.77
				l0.05,0.55c0.48-0.36,1.09-0.65,1.78-0.65c1.06,0,1.52,0.54,1.52,1.58v3.14H126.18z"/>
			<path class="st1" d="M129.63,74.18c-0.92,0-1.39-0.4-1.39-1.32v-2.75h-0.76v-0.66h0.76v-1.34l0.87-0.13v1.47h1.36v0.66h-1.36
				v2.65c0,0.49,0.12,0.76,0.71,0.76c0.3,0,0.65-0.12,0.86-0.22l0.15,0.59C130.59,74.03,130.09,74.18,129.63,74.18z"/>
			<path class="st1" d="M130.88,71.77c0-1.69,1.06-2.42,2.32-2.42c1.38,0,1.96,0.86,1.96,2c0,0.18-0.01,0.39-0.04,0.6h-3.32
				c0.04,1.18,0.59,1.55,1.38,1.55c0.7,0,1.03-0.3,1.16-0.82l0.77,0.16c-0.2,0.9-0.97,1.34-1.96,1.34
				C131.41,74.18,130.88,73.04,130.88,71.77z M133.15,70.02c-0.65,0-1.29,0.37-1.33,1.29h2.45
				C134.26,70.48,133.93,70.02,133.15,70.02z"/>
			<path class="st1" d="M136.87,70.71v3.37H136v-4.63h0.73l0.07,0.67c0.43-0.55,0.95-0.77,1.64-0.77c0.06,0,0.12,0.01,0.18,0.01
				v0.85C138.01,70.12,137.28,70.36,136.87,70.71z"/>
			<path class="st1" d="M138.62,71.81c0-1.61,0.88-2.46,2.36-2.46c1.1,0,1.83,0.54,1.9,1.61l-0.83,0.11
				c-0.08-0.68-0.41-1.04-1.1-1.04c-0.71,0-1.41,0.36-1.41,1.67c0,1.38,0.6,1.79,1.38,1.79c0.67,0,1.1-0.31,1.23-0.99l0.77,0.15
				c-0.16,1.07-1.04,1.52-2.03,1.52C139.25,74.18,138.62,73.19,138.62,71.81z"/>
			<path class="st1" d="M144.51,69.45v3.02c0,0.64,0.16,0.99,0.89,0.99c0.57,0,1.17-0.34,1.43-0.57v-3.44h0.87v4.63h-0.76
				l-0.06-0.53c-0.48,0.37-1.07,0.62-1.75,0.62c-1.05,0-1.51-0.54-1.51-1.58v-3.14H144.51z"/>
			<path class="st1" d="M148.81,74.08v-6.8h0.87v6.8H148.81z"/>
			<path class="st1" d="M152.31,74.18c-0.92,0-1.39-0.4-1.39-1.32v-2.75h-0.76v-0.66h0.76v-1.34l0.87-0.13v1.47h1.36v0.66h-1.36
				v2.65c0,0.49,0.12,0.76,0.71,0.76c0.3,0,0.65-0.12,0.86-0.22l0.15,0.59C153.28,74.03,152.77,74.18,152.31,74.18z"/>
			<path class="st1" d="M154.66,69.45v3.02c0,0.64,0.16,0.99,0.89,0.99c0.57,0,1.17-0.34,1.43-0.57v-3.44h0.87v4.63h-0.76
				l-0.06-0.53c-0.48,0.37-1.07,0.62-1.75,0.62c-1.05,0-1.51-0.54-1.51-1.58v-3.14H154.66z"/>
			<path class="st1" d="M159.83,70.71v3.37h-0.87v-4.63h0.73l0.07,0.67c0.43-0.55,0.95-0.77,1.64-0.77c0.06,0,0.12,0.01,0.18,0.01
				v0.85C160.96,70.12,160.23,70.36,159.83,70.71z"/>
			<path class="st1" d="M165.71,73.56c0.09,0,0.17-0.02,0.3-0.05l0.04,0.51c-0.19,0.09-0.44,0.14-0.68,0.14
				c-0.49,0-0.71-0.25-0.76-0.55c-0.38,0.36-0.89,0.57-1.58,0.57c-1.25,0-1.46-0.79-1.46-1.24c0-1.23,1.16-1.58,2.55-1.58
				c0.15,0,0.3,0.01,0.43,0.02v-0.45c0-0.58-0.17-0.95-0.98-0.95c-0.68,0-0.94,0.25-1.05,0.77l-0.77-0.14
				c0.15-0.86,0.75-1.27,1.89-1.27c1.22,0,1.77,0.44,1.77,1.59v2.26C165.41,73.46,165.46,73.56,165.71,73.56z M164.06,71.95
				c-0.68,0-1.59,0.06-1.59,0.85c0,0.4,0.15,0.74,0.83,0.74c0.51,0,1-0.25,1.27-0.52v-1.04C164.42,71.96,164.24,71.95,164.06,71.95z
				"/>
			<path class="st1" d="M166.6,74.08v-6.8h0.87v6.8H166.6z"/>
		</g>
	</g>
</g>
<g id="Layer_4" class="st5">
</g>
</svg>
