<?xml version="1.0" encoding="utf-8"?>
<!-- Generator: Adobe Adobe Illustrator 24.2.0, SVG Export Plug-In . SVG Version: 6.00 Build 0)  -->
<svg version="1.1" xmlns="http://www.w3.org/2000/svg" xmlns:xlink="http://www.w3.org/1999/xlink" x="0px" y="0px"
	 width="196.43px" height="91.57px" viewBox="0 0 196.43 91.57" style="enable-background:new 0 0 196.43 91.57;"
	 xml:space="preserve">
<style type="text/css">
	.st0{fill:#FFFFFF;}
	.st1{fill:#080000;}
	.st2{fill:#080000;stroke:#000000;stroke-width:0.25;stroke-miterlimit:10;}
	.st3{display:none;}
	.st4{display:inline;}
	.st5{display:inline;fill:none;stroke:#FFFFFF;stroke-width:0.25;stroke-miterlimit:10;}
	.st6{fill:none;stroke:#000000;stroke-miterlimit:10;}
</style>
<g id="fondo">
</g>
<g id="Capa_1">
	<rect x="0.34" y="-0.17" width="196.43" height="92.26"/>
	<circle class="st0" cx="48.39" cy="45.12" r="41.63"/>
	<g>
		<path class="st1" d="M87.46,49.04c-0.43,2.9-1.08,5.63-1.91,8.17C86.41,55.74,87.21,53.35,87.46,49.04z"/>
		<path class="st1" d="M83.08,60.19l-1.19-0.59l-0.18-0.1l-1.44-0.72L80,58.65l-4.38-2.45c-0.44-0.3-2.25-0.2-2.25-0.52
			c0-1.52,0-2.94,0-2.94h1.62c-1.27-2.19-9.77-9.56-18.28-17.28c-1.62-1.47-3.56-4.56-6.49-7.36c-5.22,4.78-7.62,7.81-10.9,10.02
			c-1.14,0.77-11.07,9.06-16.01,13.5c0,0,1.06,0.31,0.97,0.53c0.04,0.89,0.08,3.39,0.16,4.1c-0.22-0.3,0.01-0.16-1.36-0.07
			c-0.81,0.05-1.8-1.06-2-1h-1v-1.91l-0.39,0.43l-0.61-3.52v3l-0.42,0.42l-0.1,0.82c-0.11-0.73-0.48-5.24-0.48-5.24
			c0-1,1.72-2.72,2-3c0,0-1,0-1.93,1.27l1.23-4.07c-0.34,0.06-1.11,2.55-1.23,2.83c-0.04-1.3,0.1-2.58-0.11-3.71l-0.31,0.62
			l0.1,3.09c-0.17-0.46-0.8-2.46-1.18-2.78c0.06,1.31,0.95,2.57,1.08,3.91c-0.4-0.78-1.36-2.52-2.11-2.98
			c-0.06,0.69,1.54,2,1.7,3.09c-0.7-0.82-1.46-1.64-2.57-1.85c0.95,0.85,2.26,1.6,2.67,2.88c-0.77-0.74-1.71-1.61-2.88-1.39
			c0.95,0.32,1.87,0.83,2.58,1.54c-0.61,0.42-1.62-0.68-2.27-0.15c2.97,0.11,3.6,4.94,2.23,6.7c0.26-1.5-1-4.48-1-6
			c-0.46,0.41-0.4,3.34-0.61,3.93c-0.52-4.94-1.91-5.92-1.13-0.41c-0.42-1.02-1.48-3.25-2.27-4.01l1.24,4.94
			c-4.26-6.03-2.17-2.22-0.88,1.44c-0.92-1.94-1.56-3.79-1.97-5.57c0.27,2.21,0.68,4.43,1.25,6.62l0.57,0.91l-0.36-0.17
			c3.59,12.78,12.95,24.36,32.16,27.32c16.25,2.5,34.8-6.52,41.47-26.98C84.57,58.92,83.5,59.4,83.08,60.19z M68.49,47.54
			c0.03-0.06,0.09-0.1,0.15-0.11c0.06-0.02,0.14-0.01,0.19,0.03c0.06,0.03,0.09,0.09,0.12,0.15c0.01,0.02,0.02,0.05,0.03,0.07
			c0.16,0.37,0.4,0.71,0.58,1.07c0.03,0.06,0.04,0.12,0.03,0.19c-0.01,0.06-0.06,0.11-0.12,0.15c-0.05,0.03-0.13,0.04-0.19,0.03
			c-0.06-0.02-0.12-0.06-0.15-0.11c-0.19-0.38-0.42-0.73-0.58-1.11c-0.01-0.01-0.01-0.01-0.02-0.02c-0.03-0.02-0.04-0.06-0.03-0.09
			c0-0.01-0.01-0.02-0.02-0.04C68.44,47.67,68.46,47.6,68.49,47.54z M67.28,50.88c0.99,0.05,0.82,1.34,1.8,0.16
			c0.94,0.85,1.54,0.25,2.47,0.48c0.02,0.78,0.66-0.5,0.92,0.29c0.43,0.37,0.05-0.77,0.76-0.45c1.43,2.17-8.02-0.07-7.5,0.6
			c-1.55,1.33-3.28-4.62-0.94-0.89C66.22,50.68,66.06,51.87,67.28,50.88z M72.26,55.17l0.01-0.07c0,0.01,0,0.02,0,0.03
			c0.01-0.12,0.04-0.23,0.07-0.34c0.03-0.09,0.05-0.18,0.06-0.28c0.01-0.06,0.01-0.12,0-0.18c-0.01-0.07,0.03-0.13,0.07-0.18
			c0.05-0.05,0.11-0.07,0.18-0.07c0.06,0,0.13,0.03,0.18,0.07c0.05,0.05,0.07,0.11,0.07,0.18c0,0.03,0,0.07,0,0.1
			c0.03,0.02,0.06,0.06,0.06,0.1c0.02,0.43,0.02,0.87-0.04,1.3c-0.01,0.07-0.09,0.1-0.15,0.09c-0.03-0.01-0.05-0.03-0.06-0.05
			c-0.12,0.1-0.32,0.08-0.4-0.07c-0.05-0.07-0.06-0.16-0.06-0.24c-0.01-0.14,0.01-0.28,0.03-0.42
			C72.26,55.15,72.26,55.16,72.26,55.17z M71.48,56c0,0.01-0.02,0.02-0.02,0.03v0c0,0,0,0,0,0c-0.01,0.03-0.02,0.07-0.05,0.09
			c-0.02,0.01-0.05-0.01-0.07-0.01c-0.01,0-0.01,0.01-0.02,0.02c-0.06,0.02-0.14,0.01-0.19-0.03c-0.06-0.03-0.09-0.09-0.11-0.15
			c-0.02-0.07-0.04-0.15-0.05-0.22c-0.07-0.38-0.1-0.78-0.1-1.16c0-0.14,0.11-0.24,0.25-0.25c0.14-0.01,0.25,0.12,0.25,0.25
			c0,0.28,0.02,0.56,0.06,0.84c0.02,0.08,0.03,0.15,0.04,0.23c0,0.01,0,0.02,0,0.03c0.01,0.05,0.02,0.11,0.03,0.16
			c0.01,0.03-0.01,0.06-0.01,0.09C71.48,55.95,71.49,55.97,71.48,56z M70.12,56.18c0,0.03,0,0.07-0.01,0.1
			c-0.02,0.06-0.06,0.12-0.1,0.16c-0.07,0.07-0.18,0.09-0.27,0.05c-0.05-0.02-0.09-0.06-0.12-0.1c-0.01-0.02-0.02-0.04-0.02-0.06
			l-0.01-0.07c0.02-0.23,0.06-0.45,0.09-0.68c0.02-0.16,0.03-0.31,0.02-0.47c0-0.07,0.03-0.13,0.07-0.18
			c0.04-0.05,0.11-0.07,0.18-0.07c0.06,0,0.13,0.03,0.18,0.07c0.05,0.05,0.07,0.11,0.07,0.18c0.02,0.32-0.05,0.64-0.1,0.96
			c0,0.01,0,0.02,0,0.03C70.11,56.13,70.12,56.15,70.12,56.18z M67.42,55.64c0,0.06-0.02,0.11-0.02,0.17v0
			c-0.02,0.14-0.04,0.27-0.06,0.41c0,0.04,0,0.08,0,0.12c0.01,0.21,0.04,0.42,0.05,0.64c0,0.07-0.06,0.12-0.12,0.12
			c-0.03,0-0.06-0.01-0.08-0.03c-0.02,0.02-0.04,0.05-0.07,0.05c-0.06,0.02-0.14,0.01-0.19-0.03c-0.05-0.03-0.1-0.09-0.11-0.15
			c-0.04-0.18-0.02-0.36,0-0.54c0.02-0.2,0.06-0.39,0.09-0.59c0.01-0.06,0.01-0.11,0.02-0.17c0-0.05,0.03-0.1,0.06-0.14
			c0-0.12,0.07-0.23,0.22-0.23c0.19,0,0.25,0.17,0.21,0.31C67.41,55.61,67.42,55.62,67.42,55.64z M66.83,47.33
			c0.06,0,0.13,0.03,0.18,0.07c0.05,0.05,0.07,0.11,0.07,0.18c0,0.02,0,0.03,0,0.05c0.01,0.06,0.03,0.12,0.05,0.18
			c0.06,0.14,0.15,0.27,0.23,0.39c0.01,0.01,0.01,0.03,0.02,0.04c0,0.01,0.01,0.01,0.02,0.02c0.04,0.05,0.06,0.11,0.09,0.17
			c0.04,0.08,0.1,0.15,0.13,0.23c0.02,0.06,0,0.14-0.03,0.19c-0.03,0.06-0.09,0.1-0.15,0.11c-0.06,0.02-0.14,0.01-0.19-0.03
			c-0.06-0.03-0.09-0.09-0.11-0.15c0,0.01,0.01,0.02,0.01,0.03c-0.04-0.08-0.08-0.16-0.13-0.24c-0.09-0.14-0.19-0.28-0.27-0.43
			c-0.1-0.18-0.16-0.37-0.17-0.58C66.58,47.44,66.7,47.34,66.83,47.33z M65.49,47.37c0.06,0.02,0.12,0.06,0.15,0.11
			c0.04,0.07,0.08,0.14,0.13,0.21c0.17,0.27,0.37,0.54,0.44,0.85c0.03,0.14-0.04,0.26-0.17,0.31c-0.06,0.02-0.14,0.01-0.19-0.03
			c-0.05-0.03-0.1-0.09-0.12-0.15c-0.01-0.06-0.03-0.11-0.05-0.17c-0.12-0.28-0.32-0.51-0.47-0.78c-0.07-0.12-0.03-0.27,0.09-0.34
			C65.35,47.36,65.43,47.35,65.49,47.37z M65.66,56.44c0.03,0.04,0.06,0.08,0.06,0.14c0,0.04-0.01,0.07-0.02,0.11v0.09
			c0,0.05-0.03,0.08-0.07,0.1c-0.01,0.02-0.02,0.04-0.03,0.06c-0.06,0.09-0.15,0.13-0.25,0.12c-0.1-0.01-0.17-0.08-0.21-0.18
			c-0.11-0.31-0.04-0.63,0-0.95c0.01-0.11,0.02-0.22,0.02-0.32c0-0.07,0.03-0.13,0.07-0.18c0.05-0.05,0.11-0.07,0.18-0.07
			c0.06,0,0.13,0.03,0.18,0.07c0.05,0.05,0.07,0.11,0.07,0.18c0.01,0.17-0.02,0.35-0.04,0.52C65.64,56.23,65.65,56.33,65.66,56.44z
			 M63.91,43.63c0.03-0.05,0.09-0.1,0.15-0.11c0.06-0.02,0.14-0.01,0.19,0.03c0.11,0.08,0.22,0.17,0.32,0.26
			c0.32,0.3,0.56,0.69,0.63,1.13c0.01,0.04,0.01,0.09,0,0.13l-0.02,0.06c-0.03,0.06-0.09,0.1-0.15,0.11
			c-0.06,0.02-0.14,0.01-0.19-0.03c-0.05-0.03-0.1-0.09-0.11-0.15c-0.02-0.11-0.05-0.23-0.1-0.33c-0.05-0.12-0.12-0.24-0.2-0.34
			c-0.12-0.15-0.25-0.28-0.4-0.4c-0.01,0-0.01-0.01-0.02-0.01c-0.04-0.02-0.07-0.05-0.09-0.09c-0.01-0.02-0.02-0.04-0.02-0.06
			C63.87,43.76,63.88,43.69,63.91,43.63z M64.93,48.47c0.03,0.14-0.04,0.27-0.17,0.31c-0.06,0.02-0.14,0.01-0.19-0.03
			c-0.05-0.03-0.1-0.09-0.11-0.15c-0.04-0.14-0.09-0.28-0.14-0.42c-0.11-0.25-0.24-0.49-0.32-0.74c-0.02-0.06-0.01-0.14,0.03-0.19
			c0.03-0.06,0.09-0.1,0.15-0.11c0.06-0.02,0.14-0.01,0.19,0.03c0.06,0.03,0.09,0.09,0.11,0.15c0.02,0.05,0.04,0.1,0.06,0.15
			C64.66,47.79,64.84,48.11,64.93,48.47z M62.25,43.52c0.06-0.02,0.14-0.01,0.19,0.03c0.06,0.03,0.1,0.09,0.11,0.15
			c0.03,0.09,0.06,0.19,0.1,0.28c0.13,0.29,0.28,0.58,0.33,0.9c0.01,0.04,0.01,0.09,0,0.13l-0.02,0.06
			c-0.03,0.06-0.09,0.1-0.15,0.11c-0.06,0.02-0.14,0.01-0.19-0.03c-0.05-0.03-0.11-0.09-0.11-0.15c-0.02-0.16-0.08-0.32-0.14-0.47
			c-0.1-0.24-0.22-0.47-0.29-0.71C62.04,43.69,62.13,43.56,62.25,43.52z M53.28,50.97c0.43-1,0.54,0.08,0.73,0.52
			c0.4-1.51,0.7-0.1,0.84-0.15l-0.33-1.4c1.26,2.39,0.08,2.39,0.02,1.52c-0.49,1.65-0.82,0.15-1.18,0.16
			c-0.24,1.23-0.8,0.18-1.28-0.35c-2.11-2.44-4.63,0.55-5.79,0.12c0.24-1.57,0.51-1.09,3.63-1.78
			C51.08,49.26,52.7,52.17,53.28,50.97z M64,56.77c0.03,0.14-0.04,0.26-0.17,0.31c-0.12,0.04-0.28-0.05-0.31-0.17c0,0,0,0,0-0.01
			c-0.03-0.02-0.06-0.06-0.06-0.1c-0.02-0.12-0.02-0.24-0.02-0.36c-0.02-0.11-0.04-0.22-0.06-0.34c-0.05-0.31-0.09-0.62-0.09-0.94
			c0-0.14,0.11-0.24,0.25-0.25s0.25,0.12,0.25,0.25c0,0.21,0.02,0.42,0.05,0.63C63.87,56.13,63.93,56.45,64,56.77z M62.2,56.64
			L62.2,56.64c0,0.02,0.01,0.05,0.01,0.07c0.01,0.06,0.02,0.11,0.04,0.17c0.01,0.03,0.02,0.06,0.03,0.08c0,0.01,0,0.01,0.01,0.02
			c0.02,0.04,0.04,0.09,0.07,0.13c0.08,0.11,0.02,0.27-0.09,0.34c-0.05,0.03-0.13,0.04-0.19,0.03c-0.07-0.02-0.11-0.06-0.15-0.11
			c-0.08-0.11-0.13-0.25-0.17-0.38c-0.07-0.27-0.09-0.55-0.08-0.83c0.01-0.27,0.03-0.53,0.08-0.79c0.02-0.14,0.19-0.2,0.31-0.17
			c0.06,0.01,0.12,0.06,0.15,0.11c0.04,0.06,0.04,0.12,0.03,0.19c-0.01,0.03-0.01,0.06-0.01,0.09c0,0.01,0,0.02,0,0.03
			c-0.01,0.07-0.02,0.13-0.02,0.2c-0.02,0.25-0.03,0.51,0,0.77C62.2,56.6,62.2,56.62,62.2,56.64z M59.99,57.34
			c0,0.18-0.5,0.18-0.5,0c0-0.09-0.02-0.18-0.04-0.28c-0.02-0.05-0.05-0.11-0.06-0.16c0-0.02,0-0.03,0-0.05
			c-0.01-0.03-0.01-0.05-0.02-0.08c-0.07-0.2-0.11-0.4-0.13-0.6c-0.03-0.41-0.07-0.82-0.17-1.23c-0.02-0.08,0.13-0.14,0.25-0.14
			c0,0,0.01,0,0.01,0c0.07-0.04,0.21-0.02,0.21,0.05c0,0.02,0,0.04,0,0.06c0.01,0.01,0.02,0.02,0.02,0.03
			c0.09,0.41,0.14,0.82,0.17,1.23c0.02,0.19,0.06,0.38,0.12,0.57C59.92,56.94,59.99,57.14,59.99,57.34z M56.95,55.27
			c0-0.01,0.01-0.02,0.01-0.03c0-0.01,0-0.01,0-0.02c0-0.07,0.14-0.12,0.27-0.11c0.15,0.01,0.25,0.09,0.25,0.16
			c0,0.33-0.16,0.66-0.08,1c0.09,0.36,0.14,0.73,0.15,1.09c-0.01,0.07-0.13,0.13-0.27,0.11c-0.15-0.01-0.25-0.09-0.25-0.16
			c0-0.05-0.01-0.1-0.01-0.15c0,0,0,0,0,0c-0.01-0.13-0.01-0.25-0.03-0.38c-0.02-0.17-0.07-0.35-0.1-0.52
			c-0.07-0.32,0.04-0.62,0.06-0.93C56.96,55.31,56.96,55.29,56.95,55.27z M53.29,56.61c0.01,0.12-0.03,0.24-0.07,0.33
			c-0.04,0.09-0.11,0.13-0.18,0.14c-0.06,0.01-0.13-0.06-0.18-0.14c-0.05-0.09-0.06-0.2-0.07-0.33c-0.03-0.47-0.04-0.95-0.04-1.43
			c0-0.53,0.01-1.06,0.01-1.59c0-0.26,0.11-0.45,0.25-0.46c0.14-0.01,0.25,0.22,0.25,0.46c0,0.53-0.01,1.06-0.01,1.59
			C53.25,55.66,53.25,56.14,53.29,56.61z M61.71,52.44c-1.19-0.99-3.23,0-5.19,0.35c-0.98-0.4,1.11-3.51,0.22-0.92
			c0.65,0.13,1.45-0.18,1.91-0.68c0.47-0.08,1.29,0.81,1.74-0.07c0.67-0.28,2.2,1.46,2.59-0.31C63.32,48.97,63.79,53.25,61.71,52.44
			z M48.72,53.37c0.03,0.29,0.03,0.59,0.03,0.88c0,0.51-0.02,1.02-0.04,1.52c-0.02,0.39-0.04,0.78-0.04,1.18c0,0.03,0,0.06,0,0.09
			c0.02,0.3-0.08,0.52-0.21,0.55c-0.13,0.02-0.27-0.23-0.29-0.51c-0.01-0.19-0.01-0.39,0-0.57c0.02-0.83,0.09-1.64,0.08-2.47
			c0-0.21-0.01-0.41-0.03-0.62c-0.03-0.3,0.08-0.53,0.21-0.55C48.57,52.83,48.69,53.09,48.72,53.37z M45.82,55.37
			c0,0.17-0.01,0.34-0.02,0.52c-0.01,0.16-0.03,0.32-0.04,0.48c0,0.15-0.03,0.29-0.03,0.43v0.35c0,0.14-0.11,0.24-0.25,0.25
			s-0.25-0.12-0.25-0.25v-0.17c0-0.06,0-0.13,0-0.19c0-0.08,0.01-0.16,0.02-0.24c0.01-0.08,0.01-0.17,0.02-0.25
			c0.03-0.31,0.05-0.62,0.05-0.93c0-0.14,0.11-0.24,0.25-0.25C45.71,55.12,45.82,55.24,45.82,55.37z M43.73,38.74
			c-0.06,0.04-0.13,0.04-0.19,0.03c-0.06-0.01-0.12-0.06-0.15-0.11c-0.04-0.06-0.04-0.12-0.02-0.19c0.08-0.5,0.32-0.96,0.54-1.41
			c0.06-0.12,0.23-0.15,0.34-0.09c0.05,0.03,0.1,0.09,0.12,0.15c0.02,0.07,0,0.13-0.03,0.19c-0.1,0.2-0.2,0.39-0.28,0.59
			c-0.09,0.23-0.17,0.46-0.21,0.7C43.84,38.65,43.78,38.71,43.73,38.74z M43.76,46.87c-0.03,0.11-0.05,0.22-0.08,0.34
			c-0.05,0.22-0.1,0.44-0.16,0.65c-0.05,0.18-0.09,0.36-0.17,0.54c-0.03,0.06-0.06,0.11-0.11,0.15c-0.06,0.04-0.13,0.04-0.19,0.03
			c-0.06-0.01-0.12-0.06-0.15-0.11c-0.03-0.05-0.05-0.14-0.03-0.19c0.04-0.09,0.07-0.18,0.09-0.28c0.12-0.41,0.2-0.83,0.31-1.25
			c0.03-0.14,0.18-0.2,0.31-0.17C43.72,46.59,43.79,46.74,43.76,46.87z M43.4,45.71c-0.04,0-0.07-0.02-0.11-0.04
			c-0.05,0.02-0.1,0.03-0.14-0.01c-0.05-0.04-0.05-0.13-0.01-0.17c0,0-0.01-0.01-0.01-0.01c0-0.07,0.02-0.13,0.06-0.18
			c-0.01,0.01-0.02,0.02-0.02,0.03c0.06-0.09,0.1-0.18,0.14-0.28c0.08-0.24,0.12-0.49,0.17-0.74c0.03-0.14,0.16-0.22,0.3-0.19
			c0.06,0.01,0.12,0.06,0.16,0.11c0.04,0.05,0.05,0.13,0.04,0.19c-0.02,0.08-0.03,0.16-0.05,0.25c-0.03,0.16-0.07,0.31-0.11,0.47
			c-0.03,0.09-0.06,0.18-0.1,0.27c-0.04,0.08-0.09,0.16-0.14,0.23C43.53,45.68,43.46,45.7,43.4,45.71z M44.78,40.71
			c-0.07,0.22-0.16,0.43-0.24,0.64c-0.04,0.11-0.17,0.16-0.31,0.14c-0.13-0.02-0.21-0.14-0.17-0.24c0.12-0.32,0.26-0.64,0.32-0.97
			c0.01-0.09,0.02-0.17,0.02-0.26c-0.01-0.11,0.12-0.19,0.25-0.2c0.14,0,0.24,0.09,0.25,0.2C44.91,40.25,44.85,40.49,44.78,40.71z
			 M44.87,38.62c0,0.01,0,0.01,0,0.02c0,0.07-0.03,0.13-0.07,0.18c-0.04,0.05-0.11,0.07-0.18,0.07c-0.06,0-0.13-0.03-0.18-0.07
			c-0.04-0.04-0.08-0.12-0.07-0.18c0.02-0.24,0.09-0.46,0.18-0.68c0.08-0.2,0.17-0.4,0.2-0.62c0.01-0.06,0.06-0.12,0.12-0.15
			c0.06-0.04,0.13-0.04,0.19-0.03c0.06,0.01,0.12,0.06,0.15,0.11c0.02,0.03,0.03,0.06,0.03,0.09c0.01,0.03,0.01,0.07,0,0.1
			C45.17,37.87,44.93,38.22,44.87,38.62z M47.03,43.12c-0.02,0.14-0.15,0.22-0.28,0.21c-0.13-0.01-0.23-0.16-0.21-0.28l0.2-1.34
			c0.02-0.14,0.15-0.22,0.28-0.21c0.13,0.01,0.23,0.16,0.21,0.28L47.03,43.12z M47.22,44.48c0.05,0.03,0.1,0.09,0.11,0.15
			c0.05,0.31,0.11,0.63,0.11,0.95c0,0.07-0.03,0.13-0.07,0.18c-0.05,0.05-0.11,0.07-0.18,0.07c-0.06,0-0.13-0.03-0.18-0.07
			c-0.05-0.05-0.07-0.11-0.07-0.18c0-0.14-0.01-0.28-0.03-0.41c-0.02-0.13-0.04-0.27-0.06-0.4c-0.01-0.04-0.01-0.09,0-0.13
			l0.02-0.06c0.03-0.06,0.09-0.1,0.15-0.11C47.09,44.44,47.16,44.45,47.22,44.48z M47.55,38.3c0-0.14,0.11-0.24,0.25-0.25
			c0.09,0,0.16,0.06,0.2,0.13c0.05,0.02,0.09,0.06,0.09,0.11v1.44c0,0.01-0.01,0.02-0.01,0.03v0c0.01,0.14-0.12,0.24-0.25,0.25
			c-0.14,0.01-0.24-0.12-0.25-0.25C47.55,39.27,47.55,38.78,47.55,38.3z M48.67,44.3c0-0.14,0.11-0.24,0.25-0.25
			s0.25,0.12,0.25,0.25c0,0.46-0.05,0.92,0.01,1.37c0,0.02,0.01,0.04,0.01,0.06c0.01,0.07,0.01,0.13-0.03,0.19
			c-0.03,0.06-0.09,0.1-0.15,0.11c-0.06,0.02-0.14,0.01-0.19-0.03c-0.05-0.03-0.1-0.09-0.12-0.15c-0.05-0.27-0.06-0.54-0.06-0.81
			C48.66,44.81,48.67,44.55,48.67,44.3z M48.59,43.16c-0.04-0.05-0.07-0.11-0.07-0.18c0-0.39,0-0.78-0.05-1.17l0,0.03
			c-0.01-0.04-0.01-0.09,0-0.13c0.01-0.02,0.02-0.04,0.03-0.06c0.03-0.06,0.09-0.1,0.15-0.11c0.06-0.02,0.14-0.01,0.19,0.03
			c0.05,0.03,0.11,0.09,0.11,0.15c0.06,0.42,0.07,0.85,0.07,1.27c0,0.14-0.11,0.24-0.25,0.25C48.7,43.24,48.63,43.21,48.59,43.16z
			 M49.13,40.01c-0.13,0.01-0.25-0.12-0.25-0.25v-1.41c0-0.14,0.11-0.24,0.25-0.25c0.14-0.01,0.25,0.12,0.25,0.25v1.41
			C49.38,39.9,49.26,40.01,49.13,40.01z M48.64,36.82c-0.14,0.01-0.25-0.12-0.25-0.25c0-0.46-0.09-0.92-0.06-1.38
			c0.01-0.14,0.11-0.24,0.25-0.25c0.01,0,0.03,0.01,0.04,0.02c0.02-0.01,0.04-0.03,0.07-0.03c0.07,0,0.12,0.06,0.12,0.12
			c0,0.04,0.01,0.08,0.01,0.12c0,0.01,0.01,0.01,0.01,0.02c-0.01,0.09,0.01,0.19,0.01,0.28c0.01,0.18,0.01,0.36,0.02,0.55
			c0.01,0.19,0.03,0.37,0.03,0.56C48.89,36.71,48.77,36.81,48.64,36.82z M46.96,47.65c0.08,0.01,0.11,0.07,0.12,0.13
			c0.04,0.04,0.75,0.75,0.74,0.79c-0.01,0.41-0.59,0.18-0.71,0.58c-0.02,0.07-0.06,0.12-0.12,0.16c-0.06,0.04-0.15,0.04-0.22,0.03
			c-0.07-0.01-0.15-0.06-0.19-0.11c-0.04-0.05-0.07-0.13-0.05-0.19c0.03-0.1,0.04-0.21,0.05-0.31c0.01-0.26-0.03-0.53-0.02-0.79
			c0-0.05,0-0.09,0.03-0.13c0.01-0.02,0.03-0.03,0.04-0.05c0.05-0.05,0.12-0.07,0.2-0.08c0.01,0,0.01,0.01,0.02,0.01
			C46.88,47.66,46.92,47.64,46.96,47.65z M49.55,47.25c0.06-0.04,0.13-0.04,0.19-0.03c0.06,0.01,0.12,0.06,0.15,0.11
			c0.04,0.06,0.04,0.13,0.03,0.19c0,0.02-0.01,0.04-0.01,0.06c-0.05,0.4,0.02,0.8,0.02,1.2c0,0.14-0.11,0.24-0.25,0.25
			s-0.25-0.12-0.25-0.25c0-0.22-0.02-0.44-0.03-0.67c-0.01-0.24-0.01-0.48,0.04-0.72C49.44,47.34,49.49,47.28,49.55,47.25z
			 M49.5,35.4c-0.02-0.14,0.08-0.26,0.22-0.28c0.06-0.01,0.14,0.01,0.18,0.05c0.05,0.04,0.09,0.1,0.1,0.17
			c0.05,0.37,0.12,0.74,0.14,1.11c0,0.07-0.01,0.13-0.05,0.18c-0.04,0.05-0.1,0.08-0.17,0.1c-0.06,0.01-0.14-0.01-0.18-0.05
			c-0.05-0.04-0.09-0.1-0.1-0.17C49.62,36.14,49.54,35.77,49.5,35.4z M50.77,38.98c0,0.01,0,0.02,0,0.03
			c0.01,0.04,0.01,0.08,0.02,0.12c0.03,0.16,0.06,0.31,0.08,0.47c0,0.04,0,0.06-0.01,0.1c-0.01,0.02-0.04,0.03-0.06,0.05
			c0,0.03,0.01,0.07,0.01,0.1c-0.01,0.14-0.11,0.24-0.25,0.25c-0.13,0.01-0.26-0.12-0.25-0.25c0.01-0.13,0-0.27-0.02-0.4
			c-0.05-0.35-0.14-0.71-0.12-1.07c0.01-0.14,0.11-0.24,0.25-0.25c0.13-0.01,0.26,0.12,0.25,0.25c0,0.06,0.01,0.11,0.01,0.17
			c0.04,0.02,0.07,0.06,0.07,0.1c0,0.09,0.01,0.17,0.01,0.26c0,0.02,0,0.04,0.01,0.06C50.77,38.98,50.77,38.98,50.77,38.98
			C50.77,38.97,50.77,38.97,50.77,38.98z M53.66,38.74C53.65,38.75,53.65,38.75,53.66,38.74c0.02,0.07-0.03,0.14-0.09,0.16
			c-0.02,0.01-0.03,0-0.05-0.01c-0.01,0.01-0.02,0.02-0.03,0.03c-0.06,0.02-0.14,0.01-0.19-0.03c-0.05-0.03-0.11-0.09-0.12-0.15
			c-0.06-0.38-0.12-0.77-0.15-1.16c-0.01-0.07,0.03-0.13,0.07-0.18c0.04-0.05,0.11-0.07,0.18-0.07c0.06,0,0.13,0.03,0.18,0.07
			c0.05,0.05,0.07,0.11,0.07,0.18c0.01,0.17,0.03,0.35,0.06,0.52c0.02,0.17,0.05,0.34,0.08,0.51C53.67,38.66,53.67,38.7,53.66,38.74
			z M53.7,40.18c0.01-0.01,0.01-0.03,0.02-0.05c0.04-0.05,0.11-0.07,0.18-0.07c0.06,0,0.13,0.03,0.18,0.07
			c0.05,0.05,0.07,0.11,0.07,0.18c0,0.09,0.01,0.17,0.02,0.26c0.04,0.26,0.11,0.51,0.17,0.77c0.03,0.14-0.04,0.27-0.17,0.31
			c-0.06,0.02-0.14,0.01-0.19-0.03c-0.05-0.03-0.1-0.09-0.12-0.15c-0.1-0.38-0.21-0.76-0.21-1.16c0,0,0,0,0-0.01
			C53.64,40.25,53.66,40.21,53.7,40.18z M52.65,36.81c-0.06,0-0.13-0.03-0.18-0.07c-0.05-0.05-0.07-0.11-0.07-0.18
			c0-0.05,0-0.1-0.01-0.15c-0.03-0.18-0.08-0.36-0.15-0.53c-0.05-0.11-0.1-0.22-0.15-0.33c-0.02-0.04-0.03-0.08-0.03-0.13
			c0-0.02,0.01-0.04,0.01-0.07c0.01-0.06,0.06-0.12,0.12-0.15c0.05-0.03,0.13-0.04,0.19-0.03c0.05,0.01,0.13,0.06,0.15,0.11
			c0.03,0.08,0.07,0.16,0.1,0.23c0.07,0.16,0.14,0.32,0.19,0.48c0.05,0.18,0.08,0.36,0.08,0.55C52.9,36.7,52.78,36.8,52.65,36.81z
			 M52.8,48.87c0,0.04-0.02,0.06-0.04,0.09v0.02c0,0.07-0.06,0.12-0.12,0.12c-0.01,0-0.02-0.01-0.03-0.01
			c-0.02,0.01-0.03,0.02-0.05,0.02c-0.06,0-0.13-0.03-0.18-0.07c-0.05-0.05-0.07-0.11-0.07-0.18c0-0.05-0.01-0.1-0.01-0.15
			c-0.06-0.43-0.21-0.85-0.19-1.29c0.01-0.14,0.11-0.24,0.25-0.25c0.13-0.01,0.26,0.12,0.25,0.25c-0.01,0.12,0,0.24,0.02,0.35
			c0.01,0.09,0.04,0.19,0.05,0.28c0,0.01,0.01,0.02,0.02,0.04c0.06,0.16,0.07,0.34,0.08,0.52C52.77,48.71,52.79,48.79,52.8,48.87z
			 M51.54,44.47C51.55,44.47,51.55,44.48,51.54,44.47c0.01,0.01,0.01,0.01,0.01,0.01c0.01,0.01,0,0.01,0.01,0.02
			c0.03,0.04,0.06,0.1,0.05,0.14c0,0.02,0,0.04,0,0.06c0.01,0.04,0.02,0.08,0.03,0.12c0.03,0.09,0.06,0.18,0.09,0.27
			c0.06,0.18,0.12,0.37,0.11,0.57c0,0.05-0.03,0.08-0.06,0.1c0,0.02,0,0.05,0,0.07c0,0.07-0.03,0.13-0.07,0.18
			c-0.04,0.05-0.11,0.07-0.18,0.07c-0.06,0-0.13-0.03-0.18-0.07c-0.04-0.04-0.08-0.12-0.07-0.18c0-0.07,0-0.15-0.01-0.22
			c-0.05-0.32-0.19-0.63-0.16-0.96c0-0.07,0.03-0.13,0.07-0.18c0.05-0.05,0.11-0.07,0.18-0.07C51.43,44.4,51.5,44.43,51.54,44.47z
			 M51.22,43.04c0,0.14-0.11,0.24-0.25,0.25c-0.06,0-0.13-0.03-0.18-0.07c-0.05-0.05-0.07-0.11-0.07-0.18V41.8
			c0-0.14,0.11-0.24,0.25-0.25c0.06,0,0.13,0.03,0.18,0.07c0.05,0.05,0.07,0.11,0.07,0.18V43.04z M50.76,47.26v1.67
			c0,0.14-0.11,0.24-0.25,0.25c-0.13,0.01-0.25-0.12-0.25-0.25v-1.67c0-0.14,0.11-0.24,0.25-0.25
			C50.64,47.01,50.76,47.13,50.76,47.26z M54.69,45.32c0-0.03,0-0.07-0.01-0.1c-0.02-0.09-0.04-0.18-0.08-0.27
			c-0.06-0.13-0.13-0.26-0.2-0.39c-0.09-0.17-0.17-0.34-0.23-0.52c-0.04-0.13,0.05-0.27,0.17-0.31c0.06-0.02,0.14-0.01,0.19,0.03
			c0.06,0.03,0.1,0.09,0.12,0.15c0.02,0.05,0.04,0.1,0.06,0.15c0.08,0.19,0.19,0.37,0.28,0.55c0.11,0.23,0.19,0.46,0.19,0.71
			c0,0.14-0.12,0.24-0.25,0.25C54.81,45.58,54.69,45.46,54.69,45.32z M55.54,38.63c0.04,0.13-0.05,0.27-0.17,0.31
			c-0.06,0.02-0.14,0.01-0.19-0.03c-0.06-0.03-0.1-0.09-0.11-0.15c-0.01-0.04-0.03-0.09-0.05-0.13c-0.17-0.4-0.45-0.74-0.56-1.17
			c-0.03-0.14,0.04-0.27,0.17-0.31c0.13-0.04,0.27,0.05,0.31,0.17c0.01,0.04,0.03,0.08,0.04,0.12c0.22,0.35,0.41,0.71,0.53,1.11
			c0,0,0,0,0,0C55.51,38.59,55.53,38.6,55.54,38.63z M57.22,45.05c0.01,0.14-0.12,0.24-0.25,0.25c-0.14,0.01-0.24-0.12-0.25-0.25
			c0-0.02,0-0.05-0.01-0.07c-0.08-0.52-0.39-0.97-0.47-1.5c-0.01-0.07-0.01-0.13,0.03-0.19c0.03-0.06,0.09-0.1,0.15-0.11
			c0.06-0.02,0.14-0.01,0.19,0.03c0.05,0.03,0.11,0.09,0.12,0.15c0.04,0.29,0.16,0.56,0.27,0.83
			C57.11,44.46,57.21,44.74,57.22,45.05z M57.02,43.54c-0.03-0.14,0.04-0.27,0.17-0.31c0.13-0.04,0.28,0.05,0.31,0.17
			c0.11,0.45,0.37,0.86,0.46,1.32c0.01,0.07,0.01,0.13-0.02,0.19c-0.03,0.06-0.09,0.1-0.15,0.11c-0.06,0.02-0.14,0.01-0.19-0.03
			c-0.05-0.03-0.1-0.09-0.11-0.15C57.39,44.4,57.13,43.99,57.02,43.54z M57.33,49.2c0.01,0.06-0.05,0.11-0.11,0.12
			c-0.02,0.03-0.04,0.07-0.07,0.09c-0.05,0.03-0.13,0.04-0.19,0.03c-0.05-0.01-0.13-0.06-0.15-0.11c-0.12-0.27-0.2-0.54-0.26-0.83
			c-0.06-0.28-0.09-0.57-0.09-0.85c0-0.14,0.11-0.24,0.25-0.25s0.25,0.12,0.25,0.25c0,0.16,0.01,0.32,0.03,0.47
			c0.01,0.08,0.03,0.16,0.05,0.25c0.03,0.06,0.06,0.11,0.08,0.17C57.23,48.74,57.31,48.96,57.33,49.2z M56.25,45.14
			c0.01,0.14-0.12,0.24-0.25,0.25c-0.14,0.01-0.24-0.12-0.25-0.25c0-0.01,0-0.02,0-0.04c-0.03-0.21-0.11-0.41-0.2-0.61
			c0.01,0.02,0.02,0.04,0.03,0.06c-0.14-0.32-0.29-0.67-0.26-1.03c0.01-0.07,0.03-0.13,0.07-0.18c0.02-0.02,0.05-0.02,0.08-0.03
			c0.01-0.01,0.01-0.02,0.02-0.02c0.02-0.01,0.03-0.01,0.05-0.01c0.01,0,0.02-0.01,0.03-0.01c0.06,0,0.13,0.03,0.18,0.07
			c0.04,0.04,0.08,0.12,0.07,0.18c0,0.04,0,0.07,0,0.11c0,0,0,0,0,0.01c0.09,0.18,0.18,0.36,0.24,0.56
			c0.04,0.12,0.04,0.25,0.05,0.38C56.18,44.76,56.23,44.94,56.25,45.14z M55,47.61c0.02-0.14,0.14-0.23,0.28-0.22
			c0.14,0.01,0.23,0.15,0.22,0.28c-0.01,0.07-0.01,0.14-0.01,0.2c0.01,0.21,0.04,0.42,0.07,0.63c0.04,0.24,0.06,0.47,0.05,0.71
			c-0.01,0.14-0.15,0.23-0.28,0.22c-0.06,0-0.13-0.04-0.17-0.09c-0.04-0.05-0.06-0.12-0.05-0.18c0-0.04,0-0.07,0-0.11
			C55.1,48.57,54.95,48.1,55,47.61z M55.09,40.27c0.12,0.32,0.24,0.65,0.35,0.98c0.02,0.06,0.01,0.13-0.03,0.19
			c-0.03,0.06-0.09,0.1-0.15,0.11c-0.06,0.02-0.14,0.01-0.19-0.03c-0.06-0.03-0.09-0.09-0.11-0.15c-0.11-0.33-0.23-0.65-0.34-0.98
			c-0.02-0.06,0-0.14,0.02-0.19c0.03-0.06,0.09-0.1,0.15-0.11c0.06-0.02,0.14-0.01,0.19,0.03C55.03,40.15,55.06,40.21,55.09,40.27z
			 M54.85,56.9v-1.47c0-0.14,0.11-0.24,0.25-0.25c0.09,0,0.16,0.06,0.21,0.14c0.03,0.02,0.05,0.06,0.04,0.09c0,0,0,0.01,0,0.01
			c0,0,0,0,0,0v1.72c0,0.19-0.21,0.3-0.38,0.22c-0.13-0.07-0.18-0.19-0.18-0.33C54.8,56.98,54.83,56.94,54.85,56.9z M59.38,47.6
			c0.01-0.06,0.06-0.11,0.11-0.15c0.05-0.03,0.13-0.04,0.19-0.03c0.06,0.02,0.12,0.06,0.15,0.11c0.16,0.32,0.33,0.65,0.44,1
			c0.02,0.06,0.01,0.13-0.02,0.19c-0.03,0.06-0.09,0.1-0.15,0.11c-0.06,0.02-0.14,0.01-0.19-0.03c-0.06-0.03-0.09-0.09-0.11-0.15
			c-0.03-0.09-0.06-0.17-0.1-0.26c-0.09-0.21-0.19-0.41-0.29-0.62C59.38,47.73,59.37,47.67,59.38,47.6z M60.2,39.62
			c0.09-0.1,0.26-0.09,0.35,0c0.11,0.11,0.22,0.21,0.32,0.31c0.41,0.4,0.81,0.85,0.91,1.43c0.01,0.07,0.01,0.13-0.03,0.19
			c-0.03,0.06-0.09,0.1-0.15,0.11c-0.06,0.02-0.14,0.01-0.19-0.03c-0.05-0.03-0.1-0.09-0.12-0.15c-0.02-0.11-0.05-0.22-0.09-0.32
			c-0.05-0.1-0.1-0.2-0.16-0.29c-0.03-0.04-0.06-0.08-0.09-0.12c0,0,0,0,0,0c-0.01-0.01-0.02-0.02-0.02-0.03
			c-0.02-0.02-0.03-0.04-0.05-0.06c-0.07-0.08-0.14-0.16-0.22-0.24c-0.15-0.15-0.31-0.3-0.46-0.45
			C60.1,39.87,60.11,39.72,60.2,39.62z M59.6,40.26c0.04-0.05,0.12-0.07,0.18-0.07c0.03,0,0.07,0.01,0.1,0.02
			c0.03,0.01,0.06,0.03,0.08,0.05c0.05,0.06,0.09,0.12,0.14,0.18c0.18,0.23,0.36,0.46,0.52,0.71c0.04,0.06,0.04,0.13,0.03,0.19
			c-0.01,0.06-0.06,0.11-0.12,0.15c-0.05,0.03-0.13,0.04-0.19,0.03c-0.06-0.02-0.11-0.06-0.15-0.11c-0.11-0.17-0.23-0.33-0.35-0.49
			c-0.08-0.1-0.15-0.2-0.23-0.29c-0.03-0.03-0.05-0.07-0.06-0.11l-0.01-0.07C59.53,40.37,59.56,40.31,59.6,40.26z M58.61,43.5
			c0.05-0.03,0.13-0.04,0.19-0.03c0.06,0.02,0.11,0.06,0.15,0.11c0.05,0.07,0.1,0.14,0.15,0.21c0.18,0.26,0.36,0.53,0.45,0.84
			c0.02,0.07,0.01,0.13-0.03,0.19c-0.03,0.06-0.09,0.1-0.15,0.11c-0.06,0.02-0.14,0.01-0.19-0.03c-0.05-0.03-0.1-0.09-0.11-0.15
			c-0.01-0.04-0.03-0.08-0.04-0.12c-0.13-0.29-0.33-0.54-0.5-0.8c-0.04-0.06-0.04-0.13-0.03-0.19
			C58.51,43.58,58.56,43.53,58.61,43.5z M58.61,47.3c0.13-0.01,0.26,0.12,0.25,0.25c-0.01,0.12,0,0.24,0.02,0.37
			c0.03,0.19,0.1,0.38,0.16,0.57c0.03,0.09,0.06,0.18,0.08,0.26c0.02,0.04,0.03,0.08,0.05,0.11c0.06,0.13,0.03,0.26-0.09,0.34
			c-0.11,0.07-0.28,0.03-0.34-0.09c-0.06-0.11-0.11-0.23-0.15-0.35c-0.07-0.19-0.13-0.38-0.17-0.58c-0.04-0.21-0.07-0.42-0.06-0.64
			C58.37,47.41,58.47,47.31,58.61,47.3z M58.37,49.16c-0.01,0.14-0.11,0.24-0.25,0.25c-0.13,0.01-0.26-0.12-0.25-0.25
			c0-0.05,0-0.1-0.01-0.15c-0.03-0.16-0.08-0.32-0.15-0.47c-0.13-0.31-0.28-0.64-0.25-0.99c0.01-0.07,0.03-0.13,0.07-0.18
			c0.04-0.05,0.11-0.07,0.18-0.07c0.06,0,0.13,0.03,0.18,0.07c0.04,0.04,0.08,0.12,0.07,0.18c-0.01,0.07,0,0.13,0,0.2
			c0.03,0.16,0.08,0.31,0.14,0.46C58.25,48.51,58.39,48.82,58.37,49.16z M57.05,37.12c0.05-0.03,0.13-0.04,0.19-0.03
			c0.06,0.02,0.12,0.06,0.15,0.11c0.07,0.13,0.15,0.25,0.24,0.36c0.16,0.2,0.33,0.39,0.47,0.61c0.04,0.06,0.04,0.13,0.03,0.19
			c-0.01,0.06-0.06,0.12-0.11,0.15c-0.05,0.03-0.13,0.04-0.19,0.03c-0.06-0.02-0.12-0.06-0.15-0.11c-0.05-0.07-0.1-0.14-0.15-0.21
			c-0.2-0.25-0.42-0.48-0.56-0.76C56.9,37.34,56.93,37.2,57.05,37.12z M56.43,40.32c0.01,0.03,0.02,0.06,0.03,0.09
			c0.03,0.06,0.06,0.12,0.09,0.18c0.14,0.23,0.32,0.44,0.48,0.66c0.04,0.06,0.04,0.13,0.03,0.19c-0.01,0.06-0.06,0.11-0.12,0.15
			c-0.05,0.03-0.13,0.04-0.19,0.03c-0.06-0.02-0.11-0.06-0.15-0.11c-0.05-0.07-0.1-0.14-0.15-0.21c-0.2-0.26-0.41-0.52-0.5-0.84
			c-0.02-0.07-0.01-0.13,0.03-0.19c0.03-0.06,0.09-0.1,0.15-0.11c0.06-0.02,0.14-0.01,0.19,0.03C56.37,40.2,56.41,40.26,56.43,40.32
			z M55.14,34.91c0.05-0.03,0.13-0.04,0.19-0.03c0.06,0.02,0.12,0.06,0.15,0.11c0.04,0.09,0.09,0.18,0.15,0.26
			c0.09,0.15,0.19,0.29,0.27,0.44c0.1,0.16,0.18,0.33,0.25,0.5c0.02,0.06,0,0.14-0.03,0.19c-0.03,0.06-0.09,0.1-0.15,0.11
			c-0.06,0.02-0.14,0.01-0.19-0.03c-0.06-0.03-0.09-0.09-0.11-0.15c0-0.01-0.01-0.01-0.01-0.02c-0.16-0.38-0.43-0.69-0.61-1.06
			c-0.03-0.06-0.04-0.12-0.03-0.19C55.04,35,55.09,34.94,55.14,34.91z M54.67,36.82c-0.05,0.03-0.13,0.04-0.19,0.03
			c-0.06-0.02-0.12-0.06-0.15-0.11c-0.22-0.36-0.41-0.74-0.67-1.08c-0.03-0.04-0.06-0.07-0.09-0.1c0,0,0,0,0,0
			c-0.01-0.01-0.01-0.03-0.02-0.04c-0.03-0.04-0.05-0.08-0.06-0.13c0-0.05,0.03-0.09,0.06-0.14c0.01-0.01,0.01-0.03,0.02-0.04
			c0,0,0,0,0,0c0.04-0.05,0.12-0.07,0.18-0.07c0.06,0,0.14,0.03,0.18,0.07c0,0,0,0,0,0c0,0,0,0,0,0c0.08,0.1,0.16,0.2,0.24,0.31
			c0.22,0.31,0.39,0.65,0.59,0.98C54.83,36.6,54.78,36.75,54.67,36.82z M45.26,34.28c0.19-0.14,0.44-0.16,0.67-0.16
			c0.24,0,0.49,0.02,0.73,0.03c0.01,0,0.03,0,0.04,0c0.04,0,0.07-0.01,0.11-0.01c0.53-0.01,1.06,0.01,1.59,0.02
			c0.21,0.01,0.42,0.01,0.63,0c0.33-0.01,0.67-0.06,1-0.09c0.78-0.08,1.55-0.17,2.33-0.21c0.21-0.01,0.43-0.01,0.64,0
			c0.56-0.05,1.12-0.12,1.68-0.19c0.32-0.04,0.39,0.45,0.07,0.5c-0.73,0.1-1.47,0.2-2.21,0.23c-0.67,0.03-1.33,0.05-1.99,0.15
			c-0.65,0.1-1.3,0.19-1.96,0.18c-0.66-0.01-1.31-0.05-1.97-0.08c-0.2-0.01-0.39-0.03-0.59-0.03c-0.1,0-0.21,0-0.31,0.02
			c-0.07,0.01-0.13,0.02-0.15,0.04C45.31,34.87,45,34.47,45.26,34.28z M44.73,35.77c0.12-0.17,0.25-0.34,0.39-0.49
			c0.14-0.16,0.3-0.3,0.47-0.42c0.05-0.04,0.13-0.04,0.19-0.03c0.06,0.01,0.12,0.06,0.15,0.11c0.03,0.05,0.04,0.13,0.03,0.19
			c-0.01,0.03-0.02,0.06-0.04,0.09c-0.02,0.03-0.04,0.05-0.07,0.06c0.01,0,0.01-0.01,0.02-0.01c-0.22,0.17-0.41,0.37-0.58,0.59
			c-0.1,0.14-0.2,0.28-0.29,0.43c-0.07,0.12-0.22,0.15-0.34,0.09c-0.05-0.03-0.1-0.09-0.11-0.15c-0.02-0.06-0.01-0.14,0.02-0.19
			C44.61,35.95,44.67,35.86,44.73,35.77z M42.97,35.86c0.12-0.09,0.21-0.21,0.31-0.32c0.04-0.05,0.08-0.1,0.12-0.15
			c0.1-0.13,0.2-0.26,0.33-0.37c0.15-0.12,0.32-0.22,0.51-0.26c0.14-0.03,0.26,0.04,0.31,0.17c0.04,0.13-0.05,0.28-0.17,0.31
			c-0.04,0.01-0.08,0.02-0.12,0.04c-0.06,0.03-0.12,0.06-0.17,0.1c-0.11,0.09-0.2,0.19-0.29,0.31c-0.08,0.1-0.15,0.2-0.23,0.3
			c-0.09,0.11-0.2,0.21-0.32,0.3c-0.05,0.04-0.13,0.04-0.19,0.03c-0.06-0.01-0.12-0.06-0.15-0.11c-0.03-0.05-0.04-0.13-0.03-0.19
			c0.02-0.07,0.06-0.11,0.11-0.15C42.98,35.85,42.97,35.85,42.97,35.86z M42.43,37.53c0.11-0.21,0.24-0.42,0.36-0.63
			c0.07-0.12,0.22-0.15,0.34-0.09c0.12,0.06,0.15,0.23,0.09,0.34c-0.15,0.27-0.32,0.54-0.45,0.82c0,0.02-0.01,0.04-0.01,0.07
			c0,0.02-0.01,0.04-0.01,0.07c0,0.01,0,0.02,0,0.03c0-0.03,0,0.01,0,0.01c0,0.03-0.01,0.06-0.04,0.09
			c-0.01,0.01-0.02,0.01-0.02,0.01c-0.01,0.05-0.03,0.09-0.04,0.14c-0.01,0.06-0.06,0.12-0.12,0.15c-0.06,0.04-0.13,0.04-0.19,0.03
			c-0.06-0.01-0.12-0.06-0.15-0.11c-0.04-0.06-0.04-0.13-0.03-0.19C42.21,38,42.31,37.76,42.43,37.53z M42.28,41.31
			c0.06,0.01,0.12,0.06,0.15,0.11c0.03,0.06,0.04,0.13,0.03,0.19c-0.03,0.09-0.06,0.19-0.09,0.28c-0.06,0.18-0.13,0.36-0.21,0.53
			c-0.08,0.16-0.17,0.31-0.28,0.45c-0.04,0.05-0.12,0.07-0.18,0.07c-0.07,0-0.13-0.03-0.18-0.07c-0.05-0.04-0.07-0.12-0.07-0.18
			c0-0.07,0.03-0.12,0.07-0.18c-0.01,0.01-0.02,0.02-0.02,0.03c0.12-0.16,0.21-0.33,0.28-0.51c0.07-0.18,0.14-0.37,0.19-0.56
			C42.01,41.35,42.15,41.28,42.28,41.31z M42.21,46.88c0.02,0.07,0,0.13-0.03,0.19c-0.17,0.36-0.36,0.71-0.51,1.07
			c-0.02,0.05-0.04,0.11-0.06,0.16c-0.02,0.06-0.06,0.11-0.11,0.15c-0.06,0.04-0.13,0.04-0.19,0.03c-0.06-0.01-0.12-0.06-0.15-0.11
			c-0.03-0.05-0.05-0.14-0.02-0.19c0.18-0.47,0.42-0.9,0.63-1.35c0.03-0.06,0.09-0.1,0.15-0.11c0.06-0.02,0.13-0.01,0.19,0.03
			C42.15,46.76,42.19,46.82,42.21,46.88z M40.94,37.9c0.1-0.38,0.31-0.75,0.65-0.97c0.03-0.02,0.06-0.01,0.1-0.01
			c0.01,0,0.01,0,0.02,0c0.02,0,0.05-0.01,0.07-0.01c0.06,0.01,0.12,0.06,0.15,0.11c0.03,0.05,0.04,0.13,0.03,0.19
			c-0.01,0.04-0.05,0.07-0.08,0.1c0.02,0.13-0.04,0.29-0.22,0.29c-0.01,0-0.02-0.01-0.02-0.01c-0.05,0.07-0.1,0.15-0.14,0.24
			c-0.05,0.12-0.08,0.25-0.1,0.38c0,0.01,0,0.03,0,0.04c-0.01,0.07-0.03,0.13-0.07,0.18c-0.05,0.05-0.11,0.07-0.18,0.07
			c-0.06,0-0.13-0.03-0.18-0.07c-0.04-0.04-0.08-0.12-0.07-0.18C40.89,38.12,40.91,38.01,40.94,37.9z M40.9,45.21
			c0.07-0.38,0.24-0.74,0.45-1.06c0.08-0.12,0.22-0.16,0.34-0.09c0.05,0.03,0.1,0.09,0.11,0.15c0.02,0.06,0.01,0.14-0.02,0.19
			c-0.1,0.15-0.19,0.31-0.26,0.47c-0.07,0.18-0.12,0.36-0.15,0.56c-0.01,0.06-0.01,0.11-0.02,0.17c-0.01,0.14-0.11,0.24-0.25,0.25
			c-0.13,0.01-0.26-0.12-0.25-0.25C40.86,45.47,40.88,45.34,40.9,45.21z M40.52,46.88c0.07-0.12,0.22-0.15,0.34-0.09
			c0.12,0.06,0.16,0.23,0.09,0.34c-0.17,0.28-0.34,0.56-0.47,0.86c-0.04,0.1-0.08,0.21-0.11,0.32c-0.04,0.14-0.18,0.2-0.31,0.17
			c-0.06-0.01-0.12-0.06-0.15-0.11c-0.03-0.06-0.04-0.13-0.02-0.19C40.01,47.71,40.27,47.29,40.52,46.88z M39.88,45.75
			c-0.03-0.05-0.05-0.13-0.02-0.19c0.03-0.07,0.05-0.15,0.08-0.22c0.12-0.32,0.25-0.65,0.3-0.99c0.01-0.06,0.01-0.11,0.01-0.17
			c-0.01-0.14,0.12-0.24,0.25-0.25c0.06,0,0.13,0.03,0.18,0.07c0.05,0.05,0.07,0.11,0.07,0.18c0.01,0.12-0.01,0.25-0.03,0.36
			c-0.07,0.39-0.24,0.76-0.38,1.14c-0.02,0.06-0.06,0.11-0.11,0.15c-0.06,0.04-0.13,0.04-0.19,0.03
			C39.97,45.85,39.91,45.8,39.88,45.75z M39.86,42.12c0.06-0.05,0.11-0.11,0.17-0.17c0.06-0.08,0.1-0.16,0.14-0.25
			c0.07-0.18,0.12-0.37,0.14-0.56c0.01-0.06,0.06-0.12,0.11-0.15c0.06-0.04,0.13-0.04,0.19-0.03c0.06,0.01,0.12,0.06,0.15,0.11
			c0.02,0.03,0.03,0.06,0.03,0.09c0.01,0.03,0.01,0.07,0,0.1c-0.01,0.09-0.03,0.18-0.05,0.27c-0.08,0.35-0.25,0.69-0.53,0.93
			c-0.03,0.03-0.07,0.05-0.11,0.06c-0.02,0-0.04,0.01-0.07,0.01c-0.07,0-0.13-0.03-0.18-0.07c-0.05-0.04-0.07-0.12-0.07-0.18
			C39.78,42.24,39.81,42.16,39.86,42.12z M39.56,43.77c0.06,0.01,0.12,0.06,0.15,0.11c0.03,0.05,0.04,0.13,0.03,0.19
			c-0.09,0.28-0.22,0.54-0.33,0.8c-0.04,0.09-0.07,0.17-0.1,0.26c-0.04,0.13-0.17,0.21-0.31,0.17c-0.03-0.01-0.05-0.04-0.08-0.06
			c-0.03,0.03-0.07,0.04-0.11,0.03c-0.07-0.02-0.1-0.09-0.09-0.15c0.03-0.11,0.06-0.21,0.1-0.32c0.07-0.18,0.15-0.36,0.25-0.52
			c0.02-0.04,0.06-0.06,0.09-0.09c0.04-0.08,0.07-0.17,0.1-0.26C39.3,43.82,39.43,43.74,39.56,43.77z M38.74,40.53
			c0.05-0.13,0.17-0.21,0.31-0.17c0.06,0.01,0.12,0.06,0.15,0.11c0.03,0.05,0.05,0.13,0.03,0.19c-0.05,0.13-0.1,0.25-0.16,0.37
			c-0.2,0.39-0.46,0.74-0.67,1.12c-0.07,0.12-0.23,0.15-0.34,0.09c-0.12-0.06-0.15-0.23-0.09-0.34c0.23-0.44,0.55-0.84,0.75-1.3
			C38.72,40.58,38.73,40.55,38.74,40.53z M38.3,43.83c-0.02,0.02-0.05,0.03-0.07,0.05c-0.12,0.1-0.24,0.21-0.33,0.34
			c-0.09,0.12-0.17,0.25-0.23,0.39c-0.03,0.08-0.05,0.15-0.07,0.23c0,0.03-0.01,0.06,0,0.09c0,0.07-0.03,0.13-0.07,0.18
			c-0.04,0.05-0.11,0.07-0.18,0.07c-0.06,0-0.13-0.03-0.18-0.07c-0.05-0.05-0.07-0.11-0.07-0.18c-0.01-0.11,0.01-0.23,0.05-0.34
			c0.07-0.23,0.18-0.44,0.32-0.63c0.17-0.22,0.36-0.41,0.59-0.57c0.12-0.08,0.27-0.02,0.34,0.09c0.03,0.05,0.04,0.13,0.03,0.19
			C38.4,43.74,38.35,43.79,38.3,43.83z M38.3,47.05c-0.05,0.09-0.1,0.19-0.14,0.28c-0.17,0.4-0.26,0.83-0.41,1.24
			c-0.05,0.13-0.17,0.21-0.31,0.17c-0.06-0.01-0.12-0.06-0.15-0.11c-0.03-0.05-0.05-0.13-0.03-0.19c0.2-0.55,0.32-1.13,0.6-1.64
			c0.05-0.09,0.14-0.11,0.24-0.1c0.04-0.02,0.08-0.03,0.12-0.01c0.04,0.02,0.05,0.07,0.05,0.11C38.33,46.87,38.35,46.97,38.3,47.05z
			 M36.7,41.67c-0.01-0.05-0.01-0.12,0.02-0.16c0.07-0.1,0.13-0.2,0.2-0.29c0.25-0.34,0.51-0.68,0.75-1.03
			c0.08-0.12,0.22-0.16,0.34-0.09c0.05,0.03,0.1,0.09,0.11,0.15c0.02,0.06,0.01,0.14-0.02,0.19c-0.07,0.1-0.13,0.2-0.2,0.29
			c-0.25,0.34-0.51,0.68-0.75,1.03c-0.06,0.1-0.17,0.12-0.28,0.1c-0.03,0.05-0.07,0.08-0.14,0.06c-0.06-0.01-0.11-0.09-0.09-0.15
			C36.67,41.73,36.69,41.7,36.7,41.67z M36.27,46.62C36.27,46.62,36.27,46.62,36.27,46.62c0.02-0.01,0.03-0.02,0.04-0.03
			c0.04-0.02,0.08-0.01,0.12,0c0.07,0.01,0.14,0.05,0.18,0.11c0.08,0.12,0.02,0.27-0.09,0.34c-0.01,0.01-0.03,0.02-0.04,0.03
			c-0.05,0.04-0.1,0.09-0.15,0.15c-0.05,0.06-0.09,0.13-0.12,0.21c-0.06,0.14-0.09,0.29-0.11,0.44c-0.02,0.19-0.03,0.38-0.03,0.57
			c0,0.14-0.11,0.24-0.25,0.25c-0.14,0.01-0.25-0.12-0.25-0.25c0-0.13,0-0.26,0.01-0.39c0-0.01,0-0.01,0-0.02c0,0,0,0-0.01,0
			c-0.06-0.01-0.11-0.09-0.09-0.15c0.03-0.11,0.07-0.21,0.11-0.31c0.08-0.22,0.19-0.43,0.33-0.62c0.01-0.02,0.02-0.03,0.03-0.05
			c0.01-0.02,0.03-0.02,0.05-0.04c0.07-0.08,0.14-0.15,0.23-0.2C36.24,46.64,36.25,46.63,36.27,46.62z M36.12,43.51
			c0.07,0.11,0.02,0.27-0.09,0.34c-0.14,0.08-0.27,0.18-0.4,0.28c-0.33,0.26-0.63,0.57-0.89,0.9c0,0.01-0.01,0.01-0.01,0.02
			c-0.04,0.05-0.08,0.09-0.15,0.11c-0.06,0.02-0.13,0.01-0.19-0.03c-0.05-0.03-0.1-0.09-0.11-0.15c-0.02-0.06-0.01-0.14,0.03-0.19
			c0.09-0.12,0.18-0.24,0.28-0.35c0.35-0.4,0.75-0.75,1.2-1.02C35.9,43.35,36.05,43.4,36.12,43.51z M32.35,44.51
			c0.16-0.13,0.31-0.26,0.47-0.39c0.55-0.45,1.13-0.88,1.79-1.16c0.13-0.06,0.26-0.04,0.34,0.09c0.07,0.1,0.03,0.29-0.09,0.34
			c-0.18,0.08-0.35,0.17-0.52,0.26c-0.3,0.17-0.58,0.37-0.86,0.58c-0.02,0.01-0.03,0.02-0.05,0.04l-0.03,0.02
			c-0.03,0.02-0.06,0.05-0.09,0.07c-0.07,0.05-0.14,0.11-0.2,0.16c-0.14,0.11-0.27,0.23-0.41,0.34c-0.11,0.09-0.25,0.1-0.35,0
			C32.26,44.78,32.25,44.6,32.35,44.51z M32.27,47.91c0.06-0.12,0.12-0.24,0.18-0.36c0.1-0.21,0.21-0.42,0.34-0.62
			c0.16-0.23,0.34-0.43,0.57-0.58c0.12-0.08,0.27-0.02,0.34,0.09c0.03,0.05,0.04,0.13,0.03,0.19c-0.02,0.06-0.06,0.11-0.11,0.15
			c-0.01,0.01-0.03,0.02-0.04,0.03c-0.1,0.08-0.2,0.18-0.28,0.28c-0.24,0.33-0.4,0.71-0.6,1.07c-0.07,0.12-0.22,0.15-0.34,0.09
			C32.24,48.19,32.2,48.03,32.27,47.91z M31.64,46.33c0,0.01,0,0.03-0.01,0.04c0.01-0.07,0.03-0.12,0.07-0.18
			c0.04-0.05,0.11-0.07,0.18-0.07c0.06,0,0.12,0.03,0.17,0.07c0.05-0.02,0.1-0.02,0.14,0.01c0.05,0.04,0.05,0.13,0,0.18
			c-0.03,0.02-0.05,0.05-0.08,0.07c-0.02,0.11-0.04,0.22-0.08,0.32c-0.18,0.45-0.49,0.82-0.77,1.21c-0.04,0.06-0.08,0.09-0.15,0.11
			c-0.06,0.02-0.13,0.01-0.19-0.03c-0.05-0.03-0.1-0.09-0.11-0.15c-0.02-0.06-0.01-0.14,0.02-0.19c0.25-0.36,0.54-0.7,0.72-1.1
			C31.59,46.54,31.62,46.43,31.64,46.33z M29.97,47.14c0.05-0.08,0.1-0.16,0.15-0.23c0.19-0.3,0.39-0.59,0.63-0.85
			c0.04-0.05,0.11-0.07,0.18-0.07c0.03,0,0.04,0.02,0.07,0.03c0,0,0,0,0,0c0.06-0.04,0.13-0.01,0.17,0.04
			c0.03,0.04,0.01,0.09-0.01,0.13c0,0.02,0.02,0.03,0.02,0.05c0,0.07-0.03,0.13-0.07,0.18c-0.06,0.07-0.12,0.14-0.18,0.22
			c-0.19,0.25-0.36,0.51-0.53,0.77c-0.04,0.06-0.08,0.09-0.15,0.11c-0.06,0.02-0.13,0.01-0.19-0.03c-0.05-0.03-0.1-0.09-0.12-0.15
			C29.93,47.27,29.93,47.19,29.97,47.14z M28.39,49.85c0.19-0.37,0.4-0.73,0.7-1.02c0.1-0.1,0.25-0.09,0.35,0
			c0.1,0.09,0.09,0.26,0,0.35c-0.07,0.07-0.13,0.14-0.19,0.22c-0.24,0.31-0.41,0.66-0.59,1.01c-0.06,0.12-0.23,0.15-0.34,0.09
			c-0.05-0.03-0.1-0.09-0.11-0.15c-0.02-0.07-0.01-0.13,0.02-0.19C28.28,50.05,28.33,49.95,28.39,49.85z M26.92,49.5
			c0.1-0.24,0.23-0.45,0.4-0.65c0.15-0.17,0.34-0.31,0.54-0.41c0.13-0.06,0.27-0.03,0.34,0.09c0.03,0.05,0.04,0.13,0.02,0.19
			c-0.02,0.06-0.06,0.12-0.11,0.15c-0.08,0.04-0.16,0.09-0.23,0.15c-0.1,0.08-0.19,0.17-0.27,0.27c-0.08,0.11-0.15,0.24-0.21,0.36
			c-0.05,0.12-0.08,0.23-0.11,0.35c-0.01,0.06-0.06,0.12-0.11,0.15c-0.06,0.04-0.13,0.04-0.19,0.03c-0.06-0.01-0.12-0.06-0.15-0.11
			c-0.04-0.06-0.04-0.13-0.03-0.19C26.83,49.74,26.87,49.62,26.92,49.5z M24.29,52.16c1.95-2.03,2.89,0.5,5.15-1.54
			c1.28,0.64,1.98,0.77,3.14,0.2c1.46,0.45,2.97,0.49,4.07-0.05c0.8-0.58,1.56,0.44,2.36,0.52c0.48-0.51,0.78-0.84,1.06-0.26
			c0.13-0.16,0.35-0.91,0.62-0.26c0.53,0.78,1.15-1.29,2,0.38c0.83-1.31,1.22,0.77,1.98-1.55c1.12,1.51-1.99,2.7-2.4,1.81
			c-0.31-0.95-0.92,1.44-1.39,0.45c-0.21-0.74-0.29,0.32-0.74,0.07c-0.6-0.55-1.39-0.26-2.07-0.03c-1.06-1.38-0.93-0.04-1.98-0.29
			c-1.99,0.09-5.25,0.77-6.85-0.31C27.91,52.92,25.95,52.14,24.29,52.16z M41.71,56.88c-0.01-0.18-0.01-0.35,0-0.53
			c-0.02-0.36-0.05-0.73-0.05-1.09c0-0.14,0.09-0.24,0.2-0.25c0.11-0.01,0.2,0.12,0.2,0.25c0,0.13,0.01,0.26,0.02,0.39
			c0.02,0.28,0.04,0.57,0.05,0.85c0,0.13,0.01,0.26,0,0.39c-0.01,0.11-0.01,0.23-0.05,0.34c-0.02,0.06-0.04,0.11-0.09,0.15
			c-0.04,0.04-0.1,0.04-0.15,0.03c-0.05-0.01-0.09-0.06-0.12-0.11c-0.02-0.05-0.04-0.14-0.02-0.19c0.01-0.04,0.02-0.09,0.03-0.14
			C41.72,56.93,41.71,56.9,41.71,56.88z M39.89,57.24c0,0.07-0.03,0.13-0.07,0.18c-0.04,0.05-0.12,0.07-0.18,0.07
			c-0.06,0-0.14-0.03-0.18-0.07c-0.1-0.12-0.16-0.26-0.2-0.41c-0.08-0.29-0.1-0.6-0.12-0.89c-0.01-0.28-0.02-0.55-0.02-0.83
			c0-0.14,0.11-0.24,0.25-0.25c0.13-0.01,0.25,0.12,0.25,0.25c0,0.1,0,0.2,0,0.29c0.03,0.48,0.12,0.95,0.21,1.42
			c0.03,0.02,0.06,0.05,0.06,0.1c0,0.02,0,0.05-0.01,0.07c0,0.01-0.01,0.03-0.01,0.03c0,0.01-0.01,0.01-0.01,0.02
			C39.88,57.22,39.89,57.23,39.89,57.24z M36.93,56.98c0,0.1-0.01,0.2-0.03,0.29c-0.01,0.08-0.04,0.16-0.06,0.23
			c-0.01,0.04-0.03,0.08-0.06,0.11c-0.02,0.01-0.03,0.03-0.05,0.04c-0.03,0.02-0.06,0.03-0.09,0.03c-0.02,0.01-0.04,0.01-0.07,0
			c-0.03,0-0.06-0.01-0.09-0.03c-0.02-0.01-0.03-0.03-0.05-0.04c-0.02-0.02-0.04-0.05-0.05-0.08c-0.02-0.03-0.02-0.06-0.02-0.1V57.3
			c0-0.05,0.01-0.09,0.03-0.13c0.01-0.02,0.03-0.03,0.04-0.05c0,0,0,0,0,0c0,0,0-0.01,0-0.01c0-0.04,0.01-0.08,0.01-0.13
			c0-0.02,0.01-0.03,0.01-0.05c0-0.02-0.01-0.03,0-0.05c0.03-0.09,0.04-0.19,0.06-0.28c0.05-0.42,0.02-0.84,0.02-1.26
			c0-0.14,0.11-0.24,0.25-0.25s0.25,0.12,0.25,0.25C37.02,55.88,37.07,56.44,36.93,56.98C36.93,56.98,36.93,56.98,36.93,56.98z
			 M34.62,55.11c0-0.14,0.11-0.24,0.25-0.25s0.25,0.12,0.25,0.25c0,0.7,0.08,1.41-0.04,2.11c-0.02,0.14-0.19,0.2-0.31,0.17
			c-0.06-0.01-0.12-0.06-0.15-0.11c-0.04-0.06-0.04-0.12-0.03-0.19c0-0.02,0.01-0.05,0.01-0.07c0,0,0-0.01,0-0.01
			c0.01-0.04,0.01-0.09,0.02-0.13c0.01-0.08,0.01-0.16,0.02-0.25c0.01-0.17,0.01-0.33,0-0.5C34.64,55.78,34.62,55.45,34.62,55.11z
			 M32.77,56.09c0,0.04-0.01,0.09-0.01,0.13c0,0.09,0,0.18-0.02,0.26c0,0.02-0.01,0.03-0.01,0.05c0,0.01,0,0.01,0,0.02
			c0,0.03-0.01,0.06-0.01,0.09c0,0.03,0,0.07,0,0.11c-0.01,0.04-0.01,0.08-0.04,0.12c-0.07,0.09-0.16,0.14-0.28,0.11
			c-0.13-0.03-0.19-0.16-0.18-0.28c0-0.05,0.01-0.09,0.01-0.14c0.01-0.06,0.01-0.13,0.03-0.19c0,0,0,0,0,0c0-0.01,0-0.05,0-0.07
			c0-0.02,0-0.05,0-0.07c0.01-0.21,0.06-0.41,0.08-0.61c0-0.01,0-0.02,0-0.03c0-0.02,0-0.04,0.01-0.06c0-0.05,0.01-0.09,0.01-0.14
			c0.01-0.09,0.02-0.18,0.02-0.27c0-0.02,0-0.05,0-0.07c0-0.1,0-0.21,0-0.31c0-0.01,0.01-0.01,0.01-0.02c0-0.04,0-0.09,0-0.13
			c0-0.14,0.11-0.24,0.25-0.25c0.14-0.01,0.25,0.12,0.25,0.25c0,0.19-0.01,0.39-0.02,0.58c-0.01,0.19-0.03,0.37-0.06,0.56
			c-0.01,0.09-0.03,0.18-0.04,0.27c0,0.02-0.01,0.05-0.01,0.07C32.77,56.13,32.78,56.04,32.77,56.09z M30.3,54.58c0,0,0-0.02,0-0.03
			c0-0.02-0.01-0.03-0.01-0.05c-0.03-0.14,0.04-0.26,0.17-0.31c0.12-0.04,0.28,0.05,0.31,0.17c0.04,0.21,0.04,0.43,0.02,0.65
			c-0.02,0.19-0.06,0.38-0.09,0.57c-0.03,0.18-0.06,0.35-0.09,0.53c-0.01,0.04-0.02,0.08-0.02,0.12c0,0,0,0,0,0.01
			c0,0,0,0.01,0,0.01v0.33c0,0.14-0.11,0.24-0.25,0.25c-0.14,0.01-0.25-0.12-0.25-0.25v-0.23c0-0.04,0-0.08,0-0.11
			c0-0.09,0.03-0.19,0.05-0.28c0.03-0.17,0.06-0.34,0.09-0.51c0.01-0.07,0.02-0.13,0.04-0.2c0.01-0.22,0.02-0.43,0.05-0.65
			C30.3,54.59,30.3,54.59,30.3,54.58z M28.99,56.1c0,0.01,0,0.02,0.01,0.04c0,0.02,0.01,0.05,0.02,0.07
			c0.01,0.03,0.01,0.05,0.02,0.08c0,0.01,0.01,0.02,0.01,0.04c0,0.01,0,0.01,0.01,0.01c0.01,0.03-0.01-0.03-0.01-0.03
			c0.03,0.07,0.04,0.12,0.03,0.19c-0.01,0.06-0.06,0.11-0.12,0.15c-0.05,0.03-0.13,0.04-0.19,0.03c-0.05-0.01-0.13-0.06-0.15-0.11
			c-0.06-0.15-0.1-0.3-0.12-0.46c-0.06-0.5,0.05-1,0.05-1.5c0-0.14,0.11-0.24,0.25-0.25c0.13-0.01,0.25,0.12,0.25,0.25
			c0,0.13-0.01,0.25-0.02,0.38c-0.02,0.26-0.05,0.51-0.05,0.77C28.97,55.86,28.98,55.98,28.99,56.1z M27.71,54.75
			c0,0.11,0,0.22-0.01,0.33c-0.01,0.25-0.02,0.5-0.05,0.75c-0.01,0.13-0.03,0.25-0.06,0.38c-0.02,0.09-0.05,0.18-0.1,0.25
			c-0.08,0.11-0.21,0.16-0.34,0.09c-0.05-0.03-0.1-0.09-0.11-0.15c-0.02-0.06-0.01-0.14,0.02-0.19c0,0,0-0.01,0.01-0.01
			c0.04-0.1,0.06-0.22,0.07-0.32c0-0.04,0.01-0.08,0.01-0.12c0.01-0.2,0.02-0.39,0.03-0.59c0-0.14,0.02-0.27,0.02-0.41
			c0-0.14,0.11-0.24,0.25-0.25C27.59,54.49,27.71,54.61,27.71,54.75z M24.8,56.18v-0.73c0-0.01,0.01-0.02,0.01-0.03
			c-0.04-0.18-0.09-0.36-0.09-0.55c0-0.05,0.03-0.08,0.07-0.1c0-0.01,0-0.03,0-0.04c0-0.14,0.11-0.24,0.25-0.25
			c0.14-0.01,0.25,0.12,0.25,0.25c0,0.11,0.01,0.22,0.01,0.33c0.01,0.25,0.03,0.49,0.03,0.74c0,0.1,0.01,0.2,0,0.3
			c0,0.1-0.01,0.19-0.05,0.28c-0.06,0.13-0.23,0.15-0.34,0.09c-0.05-0.03-0.1-0.09-0.11-0.15c-0.01-0.02,0.01-0.04,0.01-0.06
			C24.81,56.24,24.8,56.21,24.8,56.18z M22.53,68.06c0.59,0.62,1.39,2.94,1.29,3.81C23.41,70.59,23.07,69.31,22.53,68.06z
			 M27.05,66.93c-0.29,1.28-0.64,2.53-0.81,3.84C26.06,69.96,26.53,67.61,27.05,66.93z M29.59,76.91c1.69-1.05,4.71-0.64,6.6-0.36
			c-1.85-1.85-4.99-0.65-7.01-0.52c2.38-1.33,4.78-2.37,7.42-2.68c-2.7-1.1-5.56-0.71-8.04,1.19c1.3-1.98,3.89-3.88,5.87-5.25
			c-2.81,0.08-4.93,1.39-6.9,3.81c1.66-2.73,2.76-5.41,4.84-7.62c-2.88,0.63-4.22,3.3-5.66,5.56c1.03-2.83,1.53-5.72,2.67-8.45
			c-2.31,1.27-3.31,3.99-3.91,6.39c-0.09-2.83-0.32-5.74-1.5-8.34c-0.53,2.52-0.34,5.74-0.15,8.34c-0.87-1.88-1.82-4.13-3.8-5.2
			c1.07,2.22,1.98,5.05,2.46,7.47C21.38,69,19.83,67,17.33,66.2c0.55,0.8,2.2,3.14,2.53,4.02c-0.96-1.56-2.65-2.99-3.35-4.63
			c2.06-0.33,3.17,1.39,4.63,2.46l-2.01-5.35c1.95,0.78,3.53,2.24,4.28,4.22c-0.51-2.45-0.01-4.88,0.3-7.31
			c1.61,1.97,2.01,4.71,2.12,7.21c0.31-1.78,2.16-4.82,3.97-5.23l-1.65,6.46c0.98-2.12,3.26-3.25,5.56-3.19
			c-1.69,1.51-2.63,3.48-3.91,5.3c6.94-2.62,5.95-1.23,0.92,2.63c2.29-0.91,4.81-0.67,6.9,0.61c-1.73,0.34-3.66,0.66-5.25,1.7
			c2.07-0.37,4.01,0.5,5.36,2.11C35.07,76.65,32.3,77,29.59,76.91z M26.52,73.81c0.01-0.83,1.03-3,1.7-3.54
			C27.63,71.45,26.99,72.58,26.52,73.81z M77.4,65.47l-0.18,0.04c-2.95,0.22-9.01,0.55-11.98,0.59l-4.32,0.42l2.88,0.3l2.27,0.1
			l9.81,0.58l-1.16,0.35c-1.48,0.31-1.5,0.21-2.99,0.31c-0.43,0.03-0.72-0.1-1.65,0.05l-3.39,0.26c-2.78-0.02-4.88,0.15-7.68,0.36
			c-0.14,0.01-1.28,0.17-1.09,0.31l5.06,0.57l7.72-0.01c-0.08,0.15-1.88,0.44-2.06,0.52c-0.47,0.22-1.75,0.41-2.36,0.31
			c-0.1-0.02-1.06-0.35-1.55-0.1c-0.14,0.07-0.67,0.23-0.62,0.51L64,71.2c-0.03,0.14,0.04,0.24,0.17,0.29
			c0.53,0.16,4.87-0.2,4.98-0.09c0.03,0.68-0.96,0.78-1.49,0.82c-1.63,0.14-5.18-0.19-6.79-0.2c-2.26-0.02-4.57-0.21-6.76,0.32
			c-0.32,0.29,0.14,0.35,0.22,0.36l0.3,0.15c1.55,0.25,2.79,0.05,4.68,0.42c1.51-0.06,0.99-0.06,1.61-0.16
			c0.46-0.08,1.03,0.1,1.96,0.2c0.2,0.02,0.8-0.02,1.13,0c0.62,0.04,1.55,0.21,2.47,0.82c-0.13-0.05-2.36-0.12-2.53-0.15
			c-1.24-0.22-2.45,0.4-4.37,0.16c-0.69-0.09-2.57,1.27-2.57,1.27l-0.38,0.09c-0.67,0.43-1.22,0.5-2.02,0.31
			c-0.23-0.06-0.43-0.26-0.65-0.28c-0.47-0.03-0.44,0.08-0.97-0.05l-0.52-0.05c-0.75-0.11-0.2,0.74-0.35,0.93
			c-0.78,0.05,7.73,0.51-1.29,0.46c-2.16,0-5.05-0.2-0.73-0.72l1.13-0.36c-1.13-0.22-2.3-0.24-3.43-0.43
			c-0.14-0.03-0.97,0.02-0.99-0.14l4.63-0.16c-0.08,0.18,0.01-0.06,0.21,0.06h0.31l0.15-0.06c0.58,0,1.18,0.05,1.75-0.1
			c0.14-0.04,0.32,0,0.36-0.21c-3.2-0.3-6.46,0.01-9.67-0.04l-0.93-0.51l2.51,0.04c0.12,0,0.53-0.15,0.37-0.36
			c-0.65-0.83-4.07-0.23-5.05-0.46l0.17-0.18l8.64-0.13l0.66-0.21l-8.17-0.7c-0.38,0.71-1.02-0.1-1.61,0.19v-0.31l8.44-0.31
			l-1.9-0.21l-2.83-0.1c-0.02-0.15,0.26-0.18,0.36-0.19c4.74-0.51,9.57,0.03,14.3-0.16c0.13-0.01,0.63-0.1,0.68-0.27l-21-0.45
			c-1.15,0-1.79-0.07-1.95-0.1c0.19,0,1.04-0.2,1.23-0.21c1.63-0.14,2.2,0.01,3.85-0.05l5.2-0.32c0.03-0.18-0.23-0.1-0.36-0.1
			c-2.7-0.11-4.98-0.33-7.66-0.77l1.44-0.31c2.26-0.41,1.98-0.18,4.32-0.51c0.13-0.02,3.28,0.04,3.3-0.11l1.68-0.26
			c0.3,0.01,0.57,0.02,0.63,0l0.98-0.21c-0.06-0.01-0.11-0.01-0.16-0.02l0.16-0.03c-2.5-0.55-3.93-0.14-6.48-0.2
			c-0.41-0.01-5.15,0.27-5.57-0.3c-0.3-0.27,0.26-0.15,0.36-0.16c0.48-0.05,1.15-0.09,1.64-0.11c0.98-0.04,1.96,0.07,2.94,0
			c0.03-0.02,1.76-0.21,1.76-0.25c-0.2-0.11-1.77-0.41-2.06-0.41L43.1,65.8c0.14-0.06-1.83,0.01-1.86-0.15l-6.08-0.1v-0.31
			c1.18,0,2.37-0.01,3.56-0.01c1.35,0,2.75,0.12,4.11,0c0.37-0.03,1.07-0.1,1.29-0.41c-2.37-0.25-4.78,0-7.16-0.1
			c-0.58-0.02-1.15-0.26-1.8-0.1c-0.02-0.15,0.27-0.19,0.37-0.2c2.52-0.27,5.08-0.21,7.61-0.32c0.13,0,0.39,0.08,0.36-0.1
			l-0.92-0.57c-0.04-0.18-2.58-0.14-2.73-0.16c-2.11-0.22-4.27-0.03-6.4-0.09l-1.07-0.21l15.41-0.39c-1.1-0.79-2.17-0.68-5.42-0.54
			l-0.67,0.01c-0.85,0.1-1.99-0.04-2.89-0.01c-1.75,0.05-3.39,0.05-5.14,0c-0.82-0.02-1.66,0.04-2.48,0.01
			c-0.12-0.01-0.38,0.07-0.36-0.11c0,0,15.43-1.77,15.55-1.82c0,0,1.77-0.5,1.94-0.69l5.61-0.33c0.15,0.35,0.56,0.11,0.71,0.42
			c0.28,0.56,8.79,1.24,9.21,1.34c0.84,0.19,0.8,0.24,1.62,0.28c4.28,0.24,4.17,0.47,8.48,0.57l0.73,0.1
			c0.09,0.01,0.09,0.15-0.01,0.15l-8.59,0.43l-2.68-0.1c-1.55,0.01-2.78,0.26-0.72,0.72c0,0.18,2.56,0.2,2.68,0.21
			c3.52,0.28,2.06,0.2,3.81,0.3l4.65,0.35c0.16,0.01,0.15,0.24,0,0.25L63.74,64.5l-2.39,0.17c-0.18,0.01-0.17,0.26,0,0.27
			l16.03,0.36C77.48,65.31,77.5,65.45,77.4,65.47z"/>
		<path class="st1" d="M30.02,49.06c0.05-0.05,0.11-0.07,0.18-0.07c0.07,0,0.13,0.03,0.18,0.07c0.05,0.04,0.07,0.12,0.07,0.18
			c0,0.06-0.03,0.13-0.07,0.18c-0.02,0.02-0.04,0.05-0.06,0.07c-0.08,0.11-0.14,0.23-0.19,0.35c-0.05,0.13-0.1,0.27-0.15,0.4
			c-0.02,0.06-0.06,0.11-0.11,0.15c-0.06,0.04-0.13,0.04-0.19,0.03c-0.06-0.01-0.12-0.06-0.15-0.11c-0.03-0.05-0.04-0.13-0.02-0.19
			c0.03-0.08,0.05-0.16,0.08-0.23C29.67,49.57,29.8,49.28,30.02,49.06z"/>
		<path class="st1" d="M55.15,38.67c-0.01,0.14-0.11,0.24-0.25,0.25c-0.06,0-0.13-0.03-0.18-0.07c-0.04-0.04-0.08-0.12-0.07-0.18
			c0-0.04,0-0.08,0-0.12c-0.02-0.11-0.05-0.21-0.09-0.31c-0.05-0.11-0.1-0.22-0.14-0.33c-0.05-0.13-0.08-0.28-0.08-0.42
			c0-0.07,0.04-0.14,0.09-0.18c0.01-0.04,0.04-0.07,0.08-0.08c0.03-0.01,0.07,0,0.1,0.02c0.06,0,0.12,0.03,0.16,0.07
			c0.05,0.05,0.07,0.11,0.07,0.18c0,0.02,0,0.04,0,0.06c0.02,0.11,0.05,0.22,0.1,0.33C55.05,38.13,55.17,38.38,55.15,38.67z"/>
		<path class="st1" d="M53.11,36.24c-0.03,0.06-0.09,0.1-0.15,0.11c-0.03,0.01-0.07,0.01-0.1,0c-0.03,0-0.06-0.01-0.09-0.03
			c-0.05-0.03-0.1-0.09-0.12-0.15c-0.06-0.23-0.15-0.46-0.2-0.69c-0.01-0.04-0.01-0.09,0-0.13c0.01-0.02,0.02-0.04,0.03-0.06
			c0.03-0.06,0.09-0.1,0.15-0.11c0.03-0.01,0.07-0.01,0.1,0c0.03,0,0.06,0.01,0.09,0.03c0.03,0.02,0.05,0.04,0.07,0.06
			c0.02,0.02,0.04,0.05,0.04,0.09c0.05,0.24,0.14,0.46,0.2,0.69C53.15,36.12,53.14,36.18,53.11,36.24z"/>
		<path class="st1" d="M46.08,6.19c-21.5,1.79-31.8,14.72-35.88,31.5c-0.03,0.11,0.12,0.18,0.18,0.08
			c15.24-20.59,56.7-22.58,76.7-0.58c0.48,5.06,0.56,8.9,0.38,11.85c0.33-2.18,0.54-4.47,0.62-6.85
			C85.08,12.19,58.08,5.19,46.08,6.19z M27.24,21.78c-0.82-2.76-0.72-2.65-3.47-3.47l2.34-0.79c0.44-0.04,0.95-2.39,1.13-2.68
			c0.82,2.76,0.72,2.65,3.47,3.47C27.95,19.13,28.06,19.03,27.24,21.78z M45.37,19.32c-2.39-2.2-2.24-2.15-4.87-1.5l1.28-1.96
			c0.32-0.26-0.8-2.76-0.85-3.12c2.39,2.19,2.25,2.14,4.87,1.5C44.22,16.44,44.23,16.29,45.37,19.32z M56.17,16.01
			c-0.88-2.62-0.79-2.52-3.03-3.13l1.78-0.93c0.07-0.01,0.13-0.12,0.19-0.28c0.07-0.19,0.13-0.46,0.19-0.75v-0.01
			c0.13-0.68,0.22-1.47,0.29-1.64c0.87,2.63,0.78,2.53,3.02,3.14C56.5,13.39,56.58,13.28,56.17,16.01z M68.51,22.38
			c-0.64-2.16-0.72-2.56-2.04-3.03c-0.11-0.04-0.24-0.08-0.37-0.12c-0.3-0.09-0.65-0.2-1.06-0.32l0.87-0.29l0.89-0.3l0.58-0.2
			c0.15-0.01,0.32-0.31,0.47-0.7c0.09-0.23,0.18-0.5,0.26-0.76c0.18-0.55,0.32-1.09,0.4-1.22c0.82,2.76,0.71,2.66,3.47,3.47
			C69.22,19.73,69.33,19.63,68.51,22.38z M76.91,28.27c0.39-2.16,0.35-2-0.84-3.73c1.92,0.59,2.09,0.55,3.57-0.8
			c-0.15,1.3-0.57,2.49,0.9,3.63C79.24,27.22,78.04,26.8,76.91,28.27z"/>
		<path class="st1" d="M29.08,34.19c-0.58-1.28-2-2-3.8-1.08c-0.07-1.24-1.16,0.42-1.86-0.31c0.31,0.57-0.65,0.51-0.37-0.01
			c1.18-0.19,1.92-0.94,0.17-0.92c0.1-0.83-0.5-0.82-1.14-0.62c-0.05-1.12-0.56-0.56-1.07-0.64c-0.3-0.05-1.16-0.83-0.99,0.33
			c-0.32,0.05-0.61,0.13-0.51,0.52c-1.72-0.52-2.32,1.28-0.41,1.44c-0.2,1.09-0.54-0.65-1.45,0.31c-0.22-1.22-1.82,0.08-1.54,0.72
			c-0.57-0.26-1.3-0.27-1.03,0.52c-1.02-0.16-1.5,0.72-0.21,0.83c-1.14,0.54-1.63,2.3-0.79,1.91c-0.19,1.25,3.7-0.51,2.75-1.2
			c0.83,0.26,1.68-0.49,1.34-1.34c0.41,0.18,1.06,0.25,1.13-0.31c0.47,0.35,0.9,0.61,1.44,0.21c-0.19,0.86,0.08,1.57,0.34,2.64
			s0.5,2.5,0,4c-1-1-0.35-0.8-1-2c0.03,0.17-0.57-4.31-1.5-4.28c0.03,0.14,0.06,0.28,0.1,0.42c0.28,1.23,0.64,2.64,0.4,2.86
			c-0.15,0.14-1.16-0.66-2-1c-0.42-0.17-0.7,0.09-1,0c0.92,0.92,2.4,1.06,3,2c1.17,1.84,1,4.34,1,5v11c0,0.58,0,1,0,1
			c0.15-0.27,2.97,0.02,3,0c-0.08-0.33-0.18-0.73-0.29-1.2c-0.75-3.25-1.93-9.57-0.71-13.8c0.41-1.4,0.88-2.28,2-3
			c0.96-0.62,4-1,2.33-1.32l-0.33,0.32h-2v-1.76c0.39,0.45,1.09,0.45,1.71,0.15c-0.02,0.86,0.78,0.83,1.34,0.41
			c0.12,1.07,1.65,0.52,0.93-0.41c0.47-0.18,0.54-0.33,0.2-0.72C29.34,34.89,28.14,34.5,29.08,34.19z M23.94,34.03
			c0.07,0.38-0.77,0.57-0.83,0.26C23.03,33.89,23.72,34.01,23.94,34.03z M21,33.62c-0.43,0.25-0.84,0.84-1.39,0.36
			c0.44-0.35,1.14-0.32,0.82-1.08c0.4,0.6,0.9,0.65,1.55,0.83C21.71,34.58,21.17,33.62,21,33.62z M21.16,34.45
			c0.56,0.2,1.04,0.08,1.54-0.21c-0.02,0.26,0.06,0.45,0.19,0.57C22.45,35.62,21.38,38.79,21.16,34.45z M22.09,38.98
			c0.19-1.73,0.95-3.22,0.99-3.79c0.01-0.1,0.01-0.18,0.01-0.25c0,0,0,0,0.01,0c0.21,0.07,0.48,0.04,0.73-0.08
			c0.03,0.18,0.09,0.33,0.18,0.46C23.7,35.91,22.43,38.31,22.09,38.98z"/>
		<path class="st2" d="M50.28,23.74c-0.21,1.14-0.22,1.73-0.2,2.78C50.21,25.84,50.29,24.44,50.28,23.74z"/>
		<path class="st2" d="M82.26,38.92c-3.46,0.79-9.95,2.77-12.97,3.86C72.76,41.99,79.24,40.01,82.26,38.92z"/>
		<path class="st2" d="M76.21,45.07c-0.8-0.04-2.43,0.08-3.24,0.2C73.77,45.31,75.4,45.19,76.21,45.07z"/>
		<path class="st2" d="M70.85,29.87c-2.64,1.48-7.47,4.71-9.67,6.36C63.82,34.75,68.65,31.52,70.85,29.87z"/>
		<path class="st2" d="M25.97,40.12c1.44,0.15,4.25,0.78,5.61,1.19C30.14,41.16,27.32,40.53,25.97,40.12z"/>
		<path class="st2" d="M41.47,24.4c1.28,1.36,3.5,4.22,4.48,5.66C44.67,28.69,42.45,25.83,41.47,24.4z"/>
		<path class="st2" d="M23.57,44.83c-1.89,0.13,0.23-0.34,4.23,0.2C26.79,45.1,24.65,44.97,23.57,44.83z"/>
		<path class="st2" d="M11.79,43.69c0.9,0.08,2.79,0.49,3.73,0.77C14.62,44.38,12.74,43.97,11.79,43.69z"/>
		<path class="st2" d="M58.02,23.91c-1.19,1.24-3.28,3.87-4.2,5.2C55.01,27.88,57.1,25.24,58.02,23.91z"/>
		<path class="st2" d="M32.99,26c2.24,1.57,6.28,4.96,8.11,6.7C38.86,31.13,34.82,27.74,32.99,26z"/>
		<path class="st2" d="M30.09,35.99c1.14,0.51,3.29,1.78,4.3,2.47C33.24,37.94,31.09,36.68,30.09,35.99z"/>
		<path class="st2" d="M65.36,26.52c-2.16,1.42-6.1,4.67-7.9,6.38C59.62,31.48,63.56,28.23,65.36,26.52z"/>
		<path class="st2" d="M77.55,33.88c-3.27,1.38-9.31,4.46-12.09,6.06C68.73,38.56,74.77,35.48,77.55,33.88z"/>
		<g class="st3">
			<g class="st4">
				<g>
					<path class="st0" d="M71.18,54.83c0.04,0.44,0.08,0.88,0.11,1.32c0,0.02,0.03,0.05,0.05,0.05c0.03,0.01,0.06,0.01,0.09,0
						c0.06-0.02,0.1-0.06,0.1-0.12c-0.04-0.44-0.08-0.88-0.11-1.32c0-0.02-0.03-0.05-0.05-0.05c-0.03-0.01-0.06-0.01-0.09,0
						C71.21,54.72,71.17,54.76,71.18,54.83L71.18,54.83z"/>
				</g>
			</g>
			<g class="st4">
				<g>
					<path class="st0" d="M69.88,55.13c0.02,0.4,0.13,0.78,0.1,1.18c-0.01,0.12,0.24,0.09,0.24-0.02c0.03-0.4-0.08-0.79-0.1-1.18
						c0-0.03-0.01-0.04-0.03-0.06c-0.02-0.02-0.06-0.02-0.08-0.02c-0.03,0-0.07,0.01-0.09,0.03C69.9,55.08,69.88,55.11,69.88,55.13
						L69.88,55.13z"/>
				</g>
			</g>
			<g class="st4">
				<g>
					<path class="st0" d="M68.12,55.33c0.04,0.49,0.09,0.97,0.14,1.46c0,0.02,0.03,0.03,0.05,0.04c0.03,0.01,0.06,0,0.09,0
						c0.05-0.01,0.11-0.04,0.1-0.1c-0.04-0.49-0.09-0.97-0.14-1.46c0-0.02-0.03-0.03-0.05-0.04c-0.03-0.01-0.06,0-0.09,0
						C68.18,55.25,68.12,55.28,68.12,55.33L68.12,55.33z"/>
				</g>
			</g>
			<g class="st4">
				<g>
					<path class="st0" d="M66.78,55.49c0.04,0.17,0.07,0.34,0.09,0.52c0.02,0.15,0.02,0.3,0.02,0.46c0,0.11,0,0.22-0.01,0.33
						c0,0.02,0.04,0.03,0.05,0.03c0.03,0,0.06,0,0.09-0.01c0.04-0.01,0.11-0.03,0.11-0.08c0.01-0.33,0.01-0.66-0.04-0.98
						c-0.02-0.11-0.04-0.21-0.06-0.32c0-0.02-0.03-0.03-0.05-0.03c-0.03,0-0.06,0-0.09,0.01C66.86,55.41,66.77,55.44,66.78,55.49
						L66.78,55.49z"/>
				</g>
			</g>
			<g class="st4">
				<g>
					<path class="st0" d="M65.24,55.49c0.04,0.43,0.06,0.87,0.1,1.3c0,0.02,0.03,0.02,0.04,0.02c0.03,0,0.06,0,0.09-0.01
						c0.03-0.01,0.11-0.03,0.11-0.07c-0.04-0.43-0.06-0.87-0.1-1.3c0-0.02-0.03-0.02-0.04-0.02c-0.03,0-0.06,0-0.09,0.01
						C65.32,55.42,65.24,55.45,65.24,55.49L65.24,55.49z"/>
				</g>
			</g>
			<g class="st4">
				<g>
					<path class="st0" d="M63.41,55.28c0.02,0.5-0.01,1,0.01,1.51c0,0.02,0.03,0.03,0.05,0.03c0.03,0,0.06,0,0.09-0.01
						c0.04-0.01,0.11-0.03,0.11-0.08c-0.02-0.5,0.01-1-0.01-1.51c0-0.02-0.03-0.03-0.05-0.03c-0.03,0-0.06,0-0.09,0.01
						C63.48,55.21,63.41,55.23,63.41,55.28L63.41,55.28z"/>
				</g>
			</g>
			<g class="st4">
				<g>
					<path class="st0" d="M72.53,54.83c0.05,0.37-0.1,0.76,0.05,1.12c0.02,0.05,0.1,0.03,0.14,0.02c0.03-0.01,0.06-0.02,0.08-0.04
						c0.01-0.01,0.03-0.03,0.02-0.05c-0.07-0.17-0.08-0.36-0.06-0.54c0.02-0.19,0.04-0.38,0.01-0.58c0-0.02-0.03-0.03-0.05-0.03
						c-0.03-0.01-0.06,0-0.09,0.01C72.6,54.75,72.53,54.78,72.53,54.83L72.53,54.83z"/>
				</g>
			</g>
			<g class="st4">
				<g>
					<path class="st0" d="M55.12,55.49c0.07,0.51,0.05,1.04,0,1.55c-0.01,0.12,0.23,0.09,0.24-0.02c0.06-0.53,0.07-1.07,0-1.6
						c-0.01-0.06-0.1-0.06-0.14-0.05C55.17,55.39,55.11,55.43,55.12,55.49L55.12,55.49z"/>
				</g>
			</g>
			<g class="st4">
				<g>
					<path class="st0" d="M52.45,55.33c0.12,0.55,0.14,1.11,0.06,1.67c-0.02,0.12,0.23,0.09,0.24-0.02
						c0.09-0.57,0.06-1.15-0.06-1.71C52.67,55.16,52.42,55.22,52.45,55.33L52.45,55.33z"/>
				</g>
			</g>
			<g class="st4">
				<g>
					<path class="st0" d="M50.53,55.32c-0.11,0.27-0.14,0.56-0.12,0.85c0.02,0.29,0.06,0.59,0.04,0.88c0,0.05,0.07,0.05,0.1,0.04
						c0.03,0,0.14-0.03,0.14-0.08c0.02-0.3-0.02-0.59-0.04-0.88c-0.02-0.29,0-0.57,0.12-0.84c0.02-0.05-0.08-0.04-0.1-0.04
						C50.62,55.25,50.55,55.27,50.53,55.32L50.53,55.32z"/>
				</g>
			</g>
			<g class="st4">
				<g>
					<path class="st0" d="M48.05,55.24c0,0.56,0,1.13,0,1.69c0,0.02,0.03,0.03,0.05,0.03c0.03,0.01,0.06,0,0.09-0.01
						c0.04-0.01,0.11-0.04,0.11-0.09c0-0.56,0-1.13,0-1.69c0-0.02-0.03-0.03-0.05-0.03c-0.03-0.01-0.06,0-0.09,0.01
						C48.11,55.16,48.05,55.19,48.05,55.24L48.05,55.24z"/>
				</g>
			</g>
			<g class="st4">
				<g>
					<path class="st0" d="M45.3,55.1c0.03,0.6,0.1,1.21,0,1.81c-0.01,0.08,0.23,0.04,0.24-0.04c0.1-0.61,0.03-1.23,0-1.84
						C45.54,54.97,45.3,55.02,45.3,55.1L45.3,55.1z"/>
				</g>
			</g>
			<g class="st4">
				<g>
					<path class="st0" d="M24.85,54.96c0.03,0.18,0.06,0.36,0.06,0.54c0,0.13,0,0.27-0.01,0.4c0,0.11-0.01,0.22-0.01,0.32
						c0,0.04,0.24,0,0.24-0.06c0-0.31,0.03-0.61,0-0.91c-0.01-0.12-0.03-0.23-0.05-0.34c0-0.01-0.03-0.02-0.04-0.02
						c-0.03,0-0.06,0-0.09,0.01c-0.03,0.01-0.06,0.02-0.08,0.03C24.87,54.94,24.85,54.95,24.85,54.96L24.85,54.96z"/>
				</g>
			</g>
			<g class="st4">
				<g>
					<path class="st0" d="M27,54.96c0.01,0.2,0.01,0.41,0.01,0.61c-0.01,0.17-0.01,0.34-0.02,0.52c0,0.13,0,0.25,0.01,0.38
						c0,0.02,0.03,0.03,0.05,0.03c0.03,0,0.06,0,0.09-0.01c0.04-0.01,0.11-0.03,0.11-0.08c-0.01-0.2-0.01-0.41-0.01-0.61
						c0.01-0.17,0.01-0.34,0.02-0.52c0-0.13,0-0.25-0.01-0.38c0-0.02-0.03-0.03-0.05-0.03c-0.03,0-0.06,0-0.09,0.01
						C27.07,54.89,27,54.91,27,54.96L27,54.96z"/>
				</g>
			</g>
			<g class="st4">
				<g>
					<path class="st0" d="M28.55,55.01c0.01,0.29,0.07,0.58,0.1,0.87c0.03,0.29,0.03,0.57-0.05,0.85c-0.01,0.04,0.08,0.03,0.1,0.02
						c0.03-0.01,0.06-0.01,0.09-0.03c0.01-0.01,0.04-0.02,0.05-0.04c0.08-0.28,0.08-0.57,0.05-0.86c-0.03-0.29-0.08-0.58-0.1-0.88
						C28.78,54.91,28.54,54.95,28.55,55.01L28.55,55.01z"/>
				</g>
			</g>
			<g class="st4">
				<g>
					<path class="st0" d="M30.28,55.01c0.07,0.29,0.04,0.59-0.01,0.88c-0.04,0.3-0.1,0.6-0.07,0.9c0,0.05,0.11,0.05,0.14,0.04
						c0.05-0.01,0.11-0.05,0.1-0.1c-0.05-0.59,0.23-1.18,0.08-1.78C30.49,54.85,30.25,54.92,30.28,55.01L30.28,55.01z"/>
				</g>
			</g>
			<g class="st4">
				<g>
					<path class="st0" d="M32.36,55.06c0,0.62,0.01,1.25,0.01,1.87c0,0.06,0.24,0.02,0.24-0.06c0-0.62-0.01-1.25-0.01-1.87
						C32.6,54.93,32.36,54.97,32.36,55.06L32.36,55.06z"/>
				</g>
			</g>
			<g class="st4">
				<g>
					<path class="st0" d="M34.85,55.24c0.02,0.33,0.05,0.67,0.06,1c0.01,0.33-0.01,0.66-0.06,0.99c-0.01,0.09,0.23,0.05,0.24-0.03
						c0.06-0.33,0.08-0.67,0.06-1.01c-0.01-0.34-0.05-0.68-0.06-1.02C35.08,55.1,34.84,55.15,34.85,55.24L34.85,55.24z"/>
				</g>
			</g>
			<g class="st4">
				<g>
					<path class="st0" d="M36.69,55.42c0,0.67,0,1.33,0,2c0,0.13,0.25,0.1,0.25-0.02c0-0.67,0-1.33,0-2
						C36.94,55.27,36.69,55.3,36.69,55.42L36.69,55.42z"/>
				</g>
			</g>
			<g class="st4">
				<g>
					<path class="st0" d="M39.38,55.15c0.06,0.67,0.19,1.33,0.24,2c0,0.05,0.11,0.05,0.14,0.04c0.05-0.01,0.11-0.05,0.1-0.1
						c-0.06-0.67-0.19-1.33-0.24-2c0-0.05-0.11-0.05-0.14-0.04C39.43,55.06,39.37,55.09,39.38,55.15L39.38,55.15z"/>
				</g>
			</g>
			<g class="st4">
				<g>
					<path class="st0" d="M41.7,55.44c0.01,0.27,0.05,0.54,0.1,0.8c0.05,0.27,0.07,0.53,0.06,0.8c0,0.05,0.07,0.05,0.1,0.04
						c0.03-0.01,0.06-0.01,0.09-0.03c0.01-0.01,0.05-0.03,0.05-0.05c0.02-0.28-0.01-0.55-0.05-0.82c-0.05-0.27-0.09-0.54-0.1-0.82
						C41.94,55.32,41.7,55.36,41.7,55.44L41.7,55.44z"/>
				</g>
			</g>
			<g class="st4">
				<g>
					<path class="st0" d="M61.97,55.49c0.03,0.24,0.04,0.47,0.04,0.71c0,0.2-0.02,0.39-0.03,0.59c-0.01,0.15-0.01,0.29-0.01,0.44
						c0,0.05,0.06,0.06,0.11,0.06c0.04,0,0.14-0.03,0.14-0.08c0-0.44,0.05-0.88,0.04-1.32c-0.01-0.15-0.02-0.3-0.04-0.45
						c-0.01-0.05-0.11-0.04-0.14-0.03C62.03,55.4,61.96,55.43,61.97,55.49L61.97,55.49z"/>
				</g>
			</g>
			<path class="st5" d="M56.03,53.12c0.04,1.49,0.23,2.51,0.26,4"/>
			<path class="st5" d="M60.75,52.79c0,1.82,0.2,2.6,0.29,4.42"/>
			<path class="st5" d="M68.63,47.83c0.09,0.26,0.75,0.83,0.84,1.09"/>
			<path class="st5" d="M66.75,47.79c0.13,0.26,0.66,0.76,0.79,1.02"/>
			<path class="st5" d="M65.46,47.53c0.05,0.25,0.8,1.04,0.85,1.29"/>
			<path class="st5" d="M39.5,46.82c-0.14,0.4-0.33,0.79-0.55,1.15"/>
			<path class="st5" d="M38.19,46.67c-0.2,0.23-0.45,0.97-0.52,1.27"/>
			<path class="st5" d="M36.4,46.57c-0.07,0.34-0.57,0.78-0.52,1.13"/>
			<path class="st5" d="M31.31,45.98c-0.33,0.24-0.71,0.94-0.77,1.34"/>
			<path class="st5" d="M32.14,46.12c-0.18,0.2-0.5,0.79-0.57,1.05"/>
			<path class="st5" d="M40.9,46.82c-0.06,0.25-0.17,0.49-0.32,0.7c0.03-0.04,0.07-0.07,0.1-0.11"/>
			<path class="st5" d="M42.03,46.67c-0.02,0.03-0.03,0.07-0.05,0.1"/>
			<path class="st5" d="M33.56,46.57c-0.19,0.27-0.33,0.57-0.4,0.89"/>
			<path class="st5" d="M44.87,37.21c0.01,0.25-0.03,0.5-0.12,0.74"/>
			<path class="st5" d="M44.11,37.1c-0.1,0.2-0.2,0.4-0.31,0.59"/>
			<path class="st5" d="M42.89,36.91c-0.15,0.21,0.07,0.79-0.08,1"/>
			<path class="st5" d="M41.82,36.91c-0.31,0.14-0.64,0.74-0.74,1.07"/>
			<path class="st5" d="M59.56,43.59c0.08,0.2,0.19,0.4,0.34,0.56"/>
			<path class="st5" d="M57.19,43.62c0.27,0.25,0.45,0.58,0.52,0.94c-0.02-0.02-0.04-0.05-0.06-0.07"/>
			<path class="st5" d="M62.97,47.48c0.26,0.21,0.7,0.73,0.82,1.04"/>
			<path class="st5" d="M61.94,47.7c0.1,0.2,0.41,0.64,0.51,0.85"/>
			<path class="st5" d="M60.39,47.79c0.01,0.27,0.48,0.64,0.57,0.9"/>
			<path class="st5" d="M58.6,47.53c0.03,0.23,0.61,1.35,0.71,1.56"/>
			<path class="st5" d="M54.67,47.7c0.12,0.26,0.52,1.35,0.6,1.62"/>
			<path class="st5" d="M55.66,47.7c0.07,0.21,0.41,1.18,0.5,1.38"/>
			<path class="st5" d="M56.7,47.63c0.14,0.28,0.46,1.17,0.6,1.46"/>
			<path class="st5" d="M57.85,47.7c0.07,0.34,0.3,1.04,0.37,1.38"/>
			<path class="st5" d="M53.15,47.63c0.1,0.3,0.19,0.6,0.29,0.9"/>
			<path class="st5" d="M51.57,47.47c0.14,0.46,0.29,0.92,0.43,1.38"/>
			<path class="st5" d="M50.52,47.33c-0.02,0.42,0.07,0.84,0.26,1.22"/>
			<path class="st5" d="M45.85,46.97c0.01,0.58,0.1,1.16,0.26,1.73"/>
			<path class="st5" d="M47.1,47.17c0.04,0.51,0.13,1.02,0.26,1.52"/>
			<path class="st5" d="M48.48,47.44c0.1,0.4,0.17,0.81,0.21,1.22"/>
			<path class="st5" d="M49.48,47.6c0.1,0.43,0.17,0.88,0.2,1.32"/>
			<path class="st5" d="M51.77,41.87c0.11,0.3,0.19,0.61,0.23,0.92"/>
			<path class="st5" d="M50.86,42.03c0.01,0.28,0.03,0.55,0.04,0.83"/>
			<path class="st5" d="M45.86,41.53c-0.01,0.39,0.07,0.77,0.23,1.13"/>
			<path class="st5" d="M47.35,41.6c-0.03,0.36,0.01,0.72,0.12,1.06"/>
			<path class="st5" d="M48.37,41.87c-0.01,0.34,0.05,0.68,0.17,0.99"/>
			<path class="st5" d="M49.73,41.93c0.08,0.3,0.17,0.59,0.25,0.89"/>
			<path class="st5" d="M57.84,40.58c0.22,0.2,0.35,0.49,0.38,0.78"/>
			<path class="st5" d="M56.44,40.35c0.24,0.33,0.42,0.71,0.53,1.11"/>
			<path class="st5" d="M52.38,40.18c0.21,0.34,0.38,0.71,0.5,1.09"/>
			<path class="st5" d="M53.62,40.35c0.11,0.34,0.23,0.68,0.38,1.01"/>
			<path class="st5" d="M54.9,40.44c0.23,0.25,0.39,0.58,0.43,0.92"/>
			<path class="st5" d="M64.37,43.87c0.26,0.28,0.45,0.61,0.88,1.08"/>
			<path class="st5" d="M61.04,43.86c0.29,0.28,0.71,0.78,0.93,1.12"/>
			<path class="st5" d="M62.45,43.86c0.11,0.35,0.37,0.88,0.55,1.19"/>
			<path class="st5" d="M63.5,44.12c0.06,0.24,0.47,0.77,0.57,0.99"/>
			<path class="st5" d="M58.6,43.53c0.24,0.28,0.43,0.6,0.53,0.95"/>
			<path class="st5" d="M44.57,44.25c-0.15,0.2-0.16,1.07-0.23,1.31"/>
			<path class="st5" d="M43.5,44.12c-0.19,0.22-0.5,1.11-0.61,1.38"/>
			<path class="st5" d="M42.13,44.11c-0.15,0.26-0.16,0.93-0.31,1.18"/>
			<path class="st5" d="M40.58,44.06c-0.09,0.07-0.23,1.12-0.26,1.23"/>
			<path class="st5" d="M33.34,43.56c-0.29,0.2-0.51,0.49-0.63,0.82"/>
			<path class="st5" d="M33.98,43.73c-0.01,0.04-0.02,0.09-0.03,0.13c-0.04,0.19-0.08,0.37-0.13,0.56"/>
			<path class="st5" d="M35.13,43.85c-0.17,0.27-0.28,0.58-0.32,0.9"/>
			<path class="st5" d="M36.4,43.85c-0.12,0.3-0.49,0.55-0.53,0.87"/>
			<path class="st5" d="M38.46,43.73c-0.34,0.24-0.82,0.83-0.8,1.24"/>
			<path class="st5" d="M39.62,43.87c-0.29,0.12-0.62,0.93-0.68,1.24"/>
			<path class="st5" d="M43.52,46.8c0.04,0.46,0.06,0.98-0.25,1.33"/>
			<path class="st5" d="M41.99,46.7c-0.04,0.3-0.19,0.58-0.41,0.79"/>
			<path class="st5" d="M45.31,50.3c0.09-0.17-0.18,1,0,1.07c-0.31,0.36,0.45,0.55,1.13,0.48c0.4-0.22,0.77-0.53,1.06-0.88
				c0.07,0.3,0.24,0.57,0.48,0.77c0.28-0.23,0.56-0.46,0.84-0.68c0.06,0.25,0.23,0.46,0.45,0.59c0.22-0.28,0.5-0.52,0.81-0.69
				c0.07,0.18,0.17,0.39,0.36,0.43c0.23,0.05,0.42-0.16,0.57-0.33c0.15-0.18,0.39-0.35,0.59-0.24c0.07,0.32,0.23,0.61,0.45,0.84
				c0.17-0.41,0.54-0.73,0.97-0.83c0.05,0.25,0.15,0.5,0.31,0.71c0.02,0.03,0.06,0.07,0.1,0.07c0.04,0,0.07-0.03,0.1-0.05
				c0.14-0.13,0.28-0.25,0.42-0.38c0.04,0.26,0.1,0.46,0.34,0.54c0.55-0.09,0.14-1.51,0.03-1.7"/>
			<path class="st5" d="M44.57,50.3c-0.31,0.2-0.3,1.14-0.62,1.34c0.02-0.31-0.61-0.74-0.91-0.65c-0.3,0.09-1.09,0.61-1.24,0.88
				c-0.17-0.22-0.95-0.34-1.12-0.56c-0.14,0.25-0.41,0.43-0.69,0.46c-0.05-0.2-0.15-0.4-0.28-0.56c-0.04,0.28-0.22,0.53-0.47,0.65
				c-0.04-0.18-0.14-0.35-0.27-0.48c-0.17,0.3-0.44,0.53-0.76,0.65c-0.07-0.32-0.23-0.63-0.45-0.87c-0.01,0.38-0.38,0.71-0.76,0.7
				c-0.04,0-0.08-0.01-0.12-0.03c-0.14-0.09-0.03-0.36-0.16-0.46c-0.27,0.19-0.55,0.37-0.83,0.54c-0.04-0.21-0.05-0.43-0.03-0.65
				c0,0.1,0,0.19-0.01,0.29c-0.06,0.03-0.13,0.06-0.19,0.09c0.02-0.12-0.03-0.25-0.13-0.32c0,0.12,0,0.24-0.01,0.36
				c0-0.02,0-0.05,0-0.07c-0.38,0.14-1.1,0.36-1.48,0.5c-0.05-0.13-0.08-0.26-0.1-0.4c-0.23,0.09-0.27,0.45-0.51,0.5
				c-0.15,0.04-0.3-0.07-0.37-0.21c-0.06-0.14-0.06-0.3-0.06-0.45c-0.38,0.05-0.75,0.17-1.09,0.35c-0.09-0.17-0.19-0.34-0.28-0.52
				c-0.03-0.06-0.07-0.12-0.13-0.14c-0.06-0.02-0.13,0.01-0.18,0.03c-0.19,0.1-0.37,0.22-0.53,0.37c-0.04-0.19-0.05-0.39-0.04-0.59
				c0,0.32,0,0.64,0,0.95"/>
			<path class="st5" d="M24.57,51.02c0.18,0.39,0.42,0.82,0.84,0.88c0.44,0.07,0.81-0.31,1.1-0.65c0.02,0.21,0.04,0.42,0.06,0.64
				c0.44-0.14,0.84-0.4,1.14-0.74c0,0.35,0.19,0.69,0.49,0.87c0.09,0.05,0.2,0.09,0.31,0.07c0.12-0.03,0.2-0.12,0.28-0.22
				c0.22-0.26,0.44-0.53,0.67-0.79c0.01,0.26,0.14,0.5,0.34,0.66c0.2-0.08,0.38-0.21,0.52-0.37"/>
			<path class="st5" d="M73.27,51.52c0.07,0.3,0.13,0.59,0.18,0.89c0.01,0.08,0.01,0.19-0.07,0.21c-0.06,0.01-0.11-0.03-0.15-0.08
				c-0.37-0.39-0.81-0.71-1.31-0.92c0.09,0.26-0.18,0.53-0.46,0.54s-0.52-0.16-0.72-0.34c-0.2-0.18-0.4-0.39-0.65-0.49
				c0.08,0.37-0.26,0.75-0.63,0.78c-0.38,0.03-0.74-0.24-0.89-0.59c-0.03,0.36-0.37,0.67-0.74,0.67c-0.39,0-0.5-0.65-0.75-0.94
				c-0.01,0.12-0.22,0.58-0.23,0.7c-0.11,0.05-1.03-1.14-1.05-1.25"/>
			<path class="st5" d="M60.87,51.69c0.24,0.18,0.46,0.41,0.62,0.66c0.11-0.36,0.3-0.69,0.54-0.98c0.18,0.31,0.42,0.59,0.71,0.81
				c0.16-0.2,0.51-0.45,0.73-0.6c0.06-0.16,0.09-0.34,0.08-0.51c0.03,0.17,0.05,0.34,0.08,0.52c0.01,0.05,0.02,0.11,0.05,0.15
				c0.09,0.1,0.26,0.04,0.35-0.05c0.09-0.09,0.17-0.22,0.29-0.26c0.24,0.42,0.65,0.73,1.12,0.85c0-0.42-0.11-0.84-0.31-1.22"/>
			<path class="st5" d="M70.57,49.32c0.25,0.29,0.46,0.62,0.62,0.97"/>
			<path class="st5" d="M68.82,49.56c0.12,0.3,0.25,0.6,0.37,0.91"/>
			<path class="st5" d="M67.54,49.4c0.04,0.25,0.15,0.49,0.32,0.67"/>
			<path class="st5" d="M66.02,49.56c0.03,0.13,0.57,0.78,0.59,0.91"/>
			<path class="st5" d="M44.68,40.04c0.05,0.44-0.07,0.9-0.34,1.26"/>
			<path class="st5" d="M43.47,40.19c-0.22,0.41-0.06,0.7-0.28,1.11"/>
			<path class="st5" d="M42.05,40.35c-0.23,0.37-0.17,0.69-0.26,1.12"/>
			<path class="st5" d="M40.32,40.35c-0.37,0.3-0.31,0.75-0.51,1.18"/>
			<path class="st5" d="M38.94,40.57c-0.16,0.4-0.32,0.8-0.48,1.2"/>
			<path class="st5" d="M37.88,40.5c-0.47,0.28-0.85,0.7-1.08,1.19"/>
			<path class="st5" d="M48.9,36.57c-0.08-0.35-0.1-0.71-0.06-1.06C48.94,35.74,48.88,36.31,48.9,36.57z"/>
			<path class="st5" d="M47.54,35.58c0,0.38,0.03,0.76,0.09,1.13"/>
			<path class="st5" d="M46.32,35.29c0,0.28-0.34,1.14-0.34,1.42"/>
			<path class="st5" d="M54.69,35.83c0.21,0.2,0.34,0.46,0.38,0.74"/>
			<path class="st5" d="M54.01,35.88c0.1,0.22,0.21,0.44,0.32,0.66"/>
			<path class="st5" d="M52.82,35.85c0.04,0.18,0.11,0.36,0.21,0.52"/>
			<path class="st5" d="M52.18,35.8c-0.01,0.24,0.06,0.71,0.2,0.91"/>
			<path class="st5" d="M50.66,35.8c0.05,0.27,0.3,0.67,0.45,0.91"/>
			<path class="st5" d="M43.77,35.29c-0.23,0.17-0.43,0.4-0.58,0.65"/>
			<path class="st5" d="M54.67,34.69c-0.32,0.04-8.85-0.76-9.24-0.81"/>
			<path class="st5" d="M60.97,51.68c-0.99-0.86-2.42-1.18-3.69-0.85c-0.09,0.02-0.18,0.05-0.23,0.13
				c-0.06,0.09-0.05,0.21-0.08,0.32c-0.09,0.35-0.59,0.43-0.78,0.74c-0.12-0.13-0.23-0.25-0.35-0.38c-0.02-0.02-0.05-0.05-0.08-0.06
				c-0.08-0.02-0.14,0.07-0.21,0.12c-0.07,0.05-0.21-0.03-0.14-0.08"/>
			<path class="st5" d="M65.34,51.59c-0.1-0.27-0.19-0.54-0.29-0.81c-0.07-0.2-0.2-0.43-0.41-0.4"/>
			<path class="st5" d="M55.24,51.64c-0.21-0.38-0.14-0.83-0.13-1.26"/>
			<path class="st5" d="M57.3,37.37c0.26,0.31,0.45,0.68,0.55,1.08"/>
			<path class="st5" d="M56.43,37.47c0.17,0.33,0.32,0.67,0.43,1.02"/>
			<path class="st5" d="M58.15,37.69c0.13,0.22,0.23,0.46,0.29,0.71"/>
			<path class="st5" d="M55.29,37.29c0.04,0.36,0.6,0.93,0.74,1.26"/>
			<path class="st5" d="M51.28,37.29c0.14,0.38,0.23,0.84,0.43,1.2"/>
			<path class="st5" d="M52.75,37.28c0.11,0.42,0.23,0.84,0.34,1.27"/>
			<path class="st5" d="M54.42,37.26c0.02,0.44,0.34,0.98,0.54,1.38"/>
			<path class="st5" d="M50.52,38.63c0.21,0.24,0.37,0.56,0.25,0.85"/>
			<path class="st5" d="M45.85,38.49c0.04,0.36-0.18,0.64-0.14,1"/>
			<path class="st5" d="M46.68,38.41c0,0.35,0,0.96,0,1.3"/>
			<path class="st5" d="M48.07,38.23c0,0.47,0,0.93,0,1.4"/>
			<path class="st5" d="M49.34,38.45c-0.04,0.39-0.01,0.79,0.08,1.17"/>
			<path class="st5" d="M52.76,44.48c0.09,0.21,0.22,0.39,0.31,0.6c0.09,0.21,0.14,0.44,0.08,0.65"/>
			<path class="st5" d="M51.58,44.62c0.05,0.32,0.14,0.64,0.26,0.94"/>
			<path class="st5" d="M45.76,44.09c0.02,0.42,0.05,0.84,0.07,1.26"/>
			<path class="st5" d="M46.97,44.46c0.22,0.33,0.35,0.72,0.35,1.12c0,0.05-0.03,0.12-0.07,0.1"/>
			<path class="st5" d="M48.75,44.38c0.2,0.41,0.3,0.87,0.3,1.32"/>
			<path class="st5" d="M50.01,44.7c0.17,0.24,0.29,0.51,0.36,0.79"/>
			<path class="st5" d="M53.81,43.53c0.4,0.43,0.48,0.69,0.61,1.26"/>
			<path class="st5" d="M55.66,43.55c0.12,0.23,0.12,0.48,0.28,0.68c0.17,0.2,0.31,0.32,0.22,0.56"/>
			<path class="st5" d="M56.53,43.55c0.26,0.34,0.44,0.74,0.54,1.16"/>
		</g>
		<path class="st2" d="M28.77,30.27c2.52,1.07,7.17,3.55,9.32,4.86C35.58,34.06,30.92,31.58,28.77,30.27z"/>
		<circle class="st6" cx="48.44" cy="45.09" r="39.2"/>
		<path class="st1" d="M81.7,60.86c0,0-8.12-5.61-7.62-6.67s3.13,1.85,3.13,1.85s-3.19-5.87-2.13-5.85
			c2.07,0.02,3.09,3.31,3.09,3.31s-2.7-6.78-2.09-7.31c0.61-0.53,2.67,4.54,2.67,4.54s-1.67-8.54-0.67-8.54s2,8,2,8
			s1.31-10.68,2.16-10.34c0.84,0.34-0.22,9.71-0.22,9.71s3.1-8.34,4.08-7.86s-3.5,10.65-3.5,10.65s2.49-5.16,4.49-6.16c1,0-3,9-3,9
			l3-5l-2.02,9.1L81.7,60.86z"/>
	</g>
	<g>
		<path class="st0" d="M107.04,40.83h-2.05l-1.48-4.37h-5.65l-1.44,4.37h-1.89l4.96-14.71h2.44L107.04,40.83z M100.66,27.82
			l-2.36,7.03h4.74l-2.36-7.03H100.66z"/>
		<path class="st0" d="M109.01,40.83V30.38h1.58l0.1,1.18c1.04-0.79,2.13-1.4,3.56-1.4c1.38,0,2.22,0.47,2.62,1.44
			c1.02-0.81,2.2-1.44,3.62-1.44c2.2,0,2.97,1.22,2.97,3.56v7.11h-1.85v-6.85c0-1.4-0.29-2.19-1.63-2.19c-1,0-2.2,0.65-2.81,1.16
			c0.02,0.24,0.04,0.51,0.04,0.77v7.11h-1.85v-6.85c0-1.4-0.28-2.19-1.63-2.19c-1.06,0-2.34,0.73-2.89,1.24v7.8H109.01z"/>
		<path class="st0" d="M134.49,39.67c0.18,0,0.37-0.04,0.63-0.12l0.08,1.16c-0.41,0.2-0.93,0.33-1.44,0.33
			c-1.04,0-1.5-0.57-1.61-1.24c-0.81,0.81-1.89,1.28-3.35,1.28c-2.64,0-3.09-1.79-3.09-2.81c0-2.78,2.46-3.56,5.41-3.56
			c0.33,0,0.63,0.02,0.91,0.04v-1.02c0-1.32-0.37-2.13-2.07-2.13c-1.44,0-1.99,0.57-2.21,1.73l-1.63-0.3c0.33-1.95,1.58-2.87,4-2.87
			c2.58,0,3.74,1,3.74,3.6v5.1C133.86,39.43,133.96,39.67,134.49,39.67z M130.99,36.03c-1.44,0-3.37,0.14-3.37,1.93
			c0,0.89,0.33,1.67,1.75,1.67c1.08,0,2.11-0.57,2.68-1.18v-2.36C131.76,36.05,131.38,36.03,130.99,36.03z"/>
		<path class="st0" d="M143.75,40.83v-6.81c0-1.44-0.53-2.24-1.95-2.24c-1.2,0-2.5,0.77-3.05,1.26v7.78h-1.85V30.38h1.63l0.1,1.24
			c1.02-0.81,2.32-1.46,3.76-1.46c2.24,0,3.21,1.22,3.21,3.58v7.09H143.75z"/>
		<path class="st0" d="M147.69,35.63c0-3.82,2.24-5.47,4.92-5.47c2.93,0,4.15,1.93,4.15,4.51c0,0.41-0.02,0.87-0.08,1.36h-7.03
			c0.08,2.66,1.26,3.5,2.93,3.5c1.48,0,2.17-0.67,2.46-1.85l1.63,0.37c-0.43,2.03-2.05,3.03-4.15,3.03
			C148.81,41.07,147.69,38.49,147.69,35.63z M152.49,31.66c-1.38,0-2.72,0.83-2.83,2.91h5.18C154.85,32.7,154.13,31.66,152.49,31.66
			z"/>
		<path class="st0" d="M158.4,35.71c0-3.64,1.87-5.55,5-5.55c2.34,0,3.88,1.22,4.02,3.64l-1.77,0.24c-0.16-1.54-0.87-2.34-2.34-2.34
			c-1.5,0-2.99,0.81-2.99,3.78c0,3.11,1.26,4.04,2.93,4.04c1.42,0,2.34-0.69,2.6-2.24l1.63,0.35c-0.35,2.42-2.2,3.44-4.29,3.44
			C159.74,41.07,158.4,38.84,158.4,35.71z"/>
		<path class="st0" d="M168.94,35.63c0-3.82,2.24-5.47,4.92-5.47c2.93,0,4.15,1.93,4.15,4.51c0,0.41-0.02,0.87-0.08,1.36h-7.03
			c0.08,2.66,1.26,3.5,2.93,3.5c1.48,0,2.17-0.67,2.46-1.85l1.63,0.37c-0.43,2.03-2.05,3.03-4.15,3.03
			C170.06,41.07,168.94,38.49,168.94,35.63z M173.74,31.66c-1.38,0-2.72,0.83-2.83,2.91h5.18C176.1,32.7,175.39,31.66,173.74,31.66z
			"/>
		<path class="st0" d="M182.15,33.23v7.6h-1.85V30.38h1.54l0.14,1.5c0.92-1.24,2.01-1.73,3.48-1.73c0.12,0,0.26,0.02,0.39,0.02v1.91
			C184.55,31.91,183,32.44,182.15,33.23z"/>
	</g>
	<g>
		<path class="st0" d="M111.44,59.73V43.14h5.41c4.24,0,5.52,2.34,5.52,4.97c0,3.94-2.34,5.59-6.33,5.59h-2.52v6.03H111.44z
			 M120.19,48.23c0-2.38-1.31-3.3-3.96-3.3h-2.7v6.97h2.36C118.29,51.89,120.19,51.32,120.19,48.23z"/>
		<path class="st0" d="M133.12,58.43c0.21,0,0.41-0.05,0.71-0.14l0.09,1.31c-0.46,0.23-1.05,0.37-1.63,0.37
			c-1.17,0-1.7-0.64-1.81-1.4c-0.92,0.92-2.13,1.44-3.78,1.44c-2.98,0-3.48-2.02-3.48-3.16c0-3.14,2.77-4.01,6.1-4.01
			c0.37,0,0.71,0.02,1.03,0.05v-1.15c0-1.49-0.41-2.41-2.34-2.41c-1.63,0-2.25,0.64-2.5,1.95l-1.83-0.34
			c0.37-2.2,1.79-3.23,4.51-3.23c2.91,0,4.22,1.12,4.22,4.06v5.75C132.41,58.15,132.53,58.43,133.12,58.43z M129.18,54.32
			c-1.63,0-3.8,0.16-3.8,2.18c0,1.01,0.37,1.88,1.97,1.88c1.21,0,2.38-0.64,3.03-1.33v-2.66C130.05,54.35,129.62,54.32,129.18,54.32
			z"/>
		<path class="st0" d="M135.85,59.73v-17.3h2.09v17.3H135.85z"/>
		<path class="st0" d="M150.45,58.43c0.21,0,0.41-0.05,0.71-0.14l0.09,1.31c-0.46,0.23-1.05,0.37-1.63,0.37
			c-1.17,0-1.7-0.64-1.81-1.4c-0.92,0.92-2.13,1.44-3.78,1.44c-2.98,0-3.48-2.02-3.48-3.16c0-3.14,2.77-4.01,6.1-4.01
			c0.37,0,0.71,0.02,1.03,0.05v-1.15c0-1.49-0.41-2.41-2.34-2.41c-1.63,0-2.25,0.64-2.5,1.95l-1.83-0.34
			c0.37-2.2,1.79-3.23,4.51-3.23c2.91,0,4.22,1.12,4.22,4.06v5.75C149.74,58.15,149.86,58.43,150.45,58.43z M146.51,54.32
			c-1.63,0-3.8,0.16-3.8,2.18c0,1.01,0.37,1.88,1.97,1.88c1.21,0,2.38-0.64,3.02-1.33v-2.66C147.38,54.35,146.95,54.32,146.51,54.32
			z"/>
		<path class="st0" d="M153.18,42.43h2.06v6.83c1.03-0.92,2.27-1.56,3.99-1.56c2.43,0,4.29,1.54,4.29,5.87
			c0,4.58-2.25,6.44-4.97,6.44c-1.4,0-2.57-0.64-3.42-1.31h-0.02L155,59.73h-1.81V42.43z M158.29,58.24c2.22,0,3.07-1.83,3.07-4.7
			c0-2.8-0.85-4.08-2.8-4.08c-1.31,0-2.61,0.8-3.3,1.47v6.1C155.8,57.42,156.94,58.24,158.29,58.24z"/>
		<path class="st0" d="M168.15,51.16v8.57h-2.09V47.95h1.74l0.16,1.7c1.03-1.4,2.27-1.95,3.92-1.95c0.14,0,0.3,0.02,0.44,0.02v2.15
			C170.86,49.67,169.12,50.27,168.15,51.16z"/>
		<path class="st0" d="M182.8,58.43c0.21,0,0.41-0.05,0.71-0.14l0.09,1.31c-0.46,0.23-1.05,0.37-1.63,0.37
			c-1.17,0-1.7-0.64-1.81-1.4c-0.92,0.92-2.13,1.44-3.78,1.44c-2.98,0-3.48-2.02-3.48-3.16c0-3.14,2.77-4.01,6.1-4.01
			c0.37,0,0.71,0.02,1.03,0.05v-1.15c0-1.49-0.41-2.41-2.34-2.41c-1.63,0-2.25,0.64-2.5,1.95l-1.83-0.34
			c0.37-2.2,1.79-3.23,4.51-3.23c2.91,0,4.22,1.12,4.22,4.06v5.75C182.09,58.15,182.21,58.43,182.8,58.43z M178.86,54.32
			c-1.63,0-3.8,0.16-3.8,2.18c0,1.01,0.37,1.88,1.97,1.88c1.21,0,2.38-0.64,3.02-1.33v-2.66C179.73,54.35,179.29,54.32,178.86,54.32
			z"/>
	</g>
	<g>
		<path class="st0" d="M95.13,55.67v-12.5h1.51v12.5H95.13z"/>
		<path class="st0" d="M105.99,54.73c0.15,0,0.3-0.03,0.51-0.1l0.07,0.94c-0.33,0.17-0.76,0.26-1.17,0.26
			c-0.84,0-1.23-0.46-1.31-1.01c-0.66,0.66-1.54,1.04-2.73,1.04c-2.15,0-2.52-1.46-2.52-2.28c0-2.27,2-2.9,4.4-2.9
			c0.26,0,0.51,0.02,0.75,0.03V49.9c0-1.08-0.3-1.74-1.69-1.74c-1.18,0-1.62,0.46-1.8,1.41l-1.33-0.25
			c0.27-1.59,1.29-2.33,3.26-2.33c2.1,0,3.05,0.81,3.05,2.93v4.16C105.48,54.53,105.56,54.73,105.99,54.73z M103.14,51.77
			c-1.17,0-2.75,0.12-2.75,1.57c0,0.73,0.26,1.36,1.42,1.36c0.88,0,1.72-0.46,2.19-0.96v-1.92
			C103.77,51.78,103.46,51.77,103.14,51.77z"/>
	</g>
	<g>
		<path class="st0" d="M95.21,65.08c0,0.79,0.8,1.02,1.66,1.26c1.02,0.28,2.12,0.58,2.12,1.85c0,1.38-1.17,1.92-2.46,1.92
			c-1.45,0-2.35-0.54-2.53-1.88l0.84-0.12c0.16,0.69,0.51,1.3,1.7,1.3c0.75,0,1.54-0.23,1.54-1.1c0-0.81-0.78-1.03-1.63-1.25
			c-1.03-0.27-2.15-0.55-2.15-1.89c0-1.12,1-1.8,2.34-1.8c1.22,0,2.14,0.44,2.28,1.84l-0.83,0.09c-0.11-0.62-0.38-1.22-1.45-1.22
			C95.59,64.06,95.21,64.5,95.21,65.08z"/>
		<path class="st0" d="M99.42,67.69c0-1.69,1.06-2.42,2.32-2.42c1.38,0,1.96,0.86,1.96,2c0,0.18-0.01,0.39-0.04,0.6h-3.32
			c0.04,1.18,0.59,1.55,1.38,1.55c0.7,0,1.03-0.3,1.16-0.82l0.77,0.16c-0.2,0.9-0.97,1.34-1.96,1.34
			C99.95,70.1,99.42,68.96,99.42,67.69z M101.69,65.93c-0.65,0-1.29,0.37-1.33,1.29h2.45C102.8,66.39,102.47,65.93,101.69,65.93z"/>
		<path class="st0" d="M104.54,69.99v-4.63h0.75l0.05,0.52c0.49-0.35,1.01-0.62,1.68-0.62c0.65,0,1.05,0.21,1.24,0.64
			c0.48-0.36,1.04-0.64,1.71-0.64c1.04,0,1.4,0.54,1.4,1.58v3.15h-0.87v-3.03c0-0.62-0.13-0.97-0.77-0.97
			c-0.47,0-1.04,0.29-1.32,0.51c0.01,0.11,0.02,0.23,0.02,0.34v3.15h-0.87v-3.03c0-0.62-0.13-0.97-0.77-0.97
			c-0.5,0-1.1,0.32-1.36,0.55v3.46H104.54z"/>
		<path class="st0" d="M112.87,64.47c-0.39,0-0.61-0.22-0.61-0.59c0-0.38,0.22-0.58,0.61-0.58s0.62,0.21,0.62,0.58
			C113.5,64.26,113.27,64.47,112.87,64.47z M112.42,69.99v-4.63h0.87v4.63H112.42z"/>
		<path class="st0" d="M114.38,69.99v-6.8h0.87v6.8H114.38z"/>
		<path class="st0" d="M116.34,69.99v-6.8h0.87v6.8H116.34z"/>
		<path class="st0" d="M117.99,67.69c0-1.69,1.06-2.42,2.32-2.42c1.38,0,1.96,0.86,1.96,2c0,0.18-0.01,0.39-0.04,0.6h-3.32
			c0.04,1.18,0.59,1.55,1.38,1.55c0.7,0,1.03-0.3,1.16-0.82l0.77,0.16c-0.2,0.9-0.97,1.34-1.96,1.34
			C118.52,70.1,117.99,68.96,117.99,67.69z M120.25,65.93c-0.65,0-1.29,0.37-1.33,1.29h2.45C121.37,66.39,121.03,65.93,120.25,65.93
			z"/>
		<path class="st0" d="M123.98,66.63v3.37h-0.87v-4.63h0.73l0.07,0.67c0.43-0.55,0.95-0.77,1.64-0.77c0.06,0,0.12,0.01,0.18,0.01
			v0.85C125.11,66.04,124.38,66.28,123.98,66.63z"/>
		<path class="st0" d="M125.73,67.7c0-1.49,0.83-2.43,2.4-2.43c1.56,0,2.21,0.95,2.21,2.32c0,1.52-0.67,2.51-2.33,2.51
			C126.29,70.1,125.73,69.07,125.73,67.7z M129.42,67.64c0-1.28-0.48-1.7-1.33-1.7c-0.87,0-1.46,0.49-1.46,1.72
			c0,1.22,0.46,1.78,1.42,1.78C128.9,69.44,129.42,68.96,129.42,67.64z"/>
		<path class="st0" d="M136.06,69.99L136,69.5l-0.01-0.01c-0.42,0.36-0.92,0.61-1.63,0.61c-1.12,0-1.88-0.67-1.88-2.35
			c0-1.83,0.99-2.49,2.08-2.49c0.57,0,1.04,0.17,1.38,0.43v-2.5h0.85v6.8H136.06z M134.67,65.97c-0.95,0-1.3,0.71-1.3,1.78
			c0,1.12,0.38,1.67,1.24,1.67c0.51,0,1.01-0.28,1.32-0.57v-2.48C135.7,66.21,135.24,65.97,134.67,65.97z"/>
		<path class="st0" d="M137.57,67.69c0-1.69,1.06-2.42,2.32-2.42c1.38,0,1.96,0.86,1.96,2c0,0.18-0.01,0.39-0.04,0.6h-3.32
			c0.04,1.18,0.59,1.55,1.38,1.55c0.7,0,1.03-0.3,1.16-0.82l0.77,0.16c-0.2,0.9-0.97,1.34-1.96,1.34
			C138.1,70.1,137.57,68.96,137.57,67.69z M139.84,65.93c-0.65,0-1.29,0.37-1.33,1.29h2.45C140.95,66.39,140.61,65.93,139.84,65.93z
			"/>
	</g>
	<g>
		<path class="st0" d="M94.26,75.44c0-1.61,0.88-2.46,2.36-2.46c1.1,0,1.83,0.54,1.9,1.61l-0.83,0.11c-0.08-0.68-0.41-1.04-1.1-1.04
			c-0.71,0-1.41,0.36-1.41,1.67c0,1.38,0.6,1.79,1.38,1.79c0.67,0,1.1-0.31,1.23-0.99l0.77,0.15c-0.16,1.07-1.04,1.52-2.03,1.52
			C94.89,77.82,94.26,76.83,94.26,75.44z"/>
		<path class="st0" d="M100.17,74.35v3.37H99.3v-4.63h0.73l0.07,0.67c0.43-0.55,0.95-0.77,1.64-0.77c0.06,0,0.12,0.01,0.18,0.01
			v0.85C101.3,73.76,100.57,73.99,100.17,74.35z"/>
		<path class="st0" d="M101.92,75.41c0-1.69,1.06-2.42,2.32-2.42c1.38,0,1.96,0.86,1.96,2c0,0.18-0.01,0.39-0.04,0.6h-3.32
			c0.04,1.18,0.59,1.55,1.38,1.55c0.7,0,1.03-0.3,1.16-0.82l0.77,0.16c-0.2,0.9-0.97,1.34-1.96,1.34
			C102.45,77.82,101.92,76.68,101.92,75.41z M104.18,73.65c-0.65,0-1.29,0.37-1.33,1.29h2.45C105.3,74.11,104.96,73.65,104.18,73.65
			z"/>
		<path class="st0" d="M110.79,77.2c0.09,0,0.17-0.02,0.3-0.05l0.04,0.51c-0.19,0.09-0.44,0.14-0.68,0.14
			c-0.49,0-0.71-0.25-0.76-0.55c-0.38,0.36-0.89,0.57-1.58,0.57c-1.25,0-1.46-0.79-1.46-1.24c0-1.23,1.16-1.58,2.55-1.58
			c0.15,0,0.3,0.01,0.43,0.02v-0.45c0-0.58-0.17-0.95-0.98-0.95c-0.68,0-0.94,0.25-1.05,0.77l-0.77-0.14
			c0.15-0.86,0.75-1.27,1.89-1.27c1.22,0,1.77,0.44,1.77,1.59v2.26C110.49,77.09,110.54,77.2,110.79,77.2z M109.14,75.59
			c-0.68,0-1.59,0.06-1.59,0.85c0,0.4,0.15,0.74,0.83,0.74c0.51,0,1-0.25,1.27-0.52v-1.04C109.5,75.6,109.32,75.59,109.14,75.59z"/>
		<path class="st0" d="M111.33,75.44c0-1.61,0.88-2.46,2.36-2.46c1.1,0,1.83,0.54,1.9,1.61l-0.83,0.11
			c-0.08-0.68-0.41-1.04-1.1-1.04c-0.71,0-1.41,0.36-1.41,1.67c0,1.38,0.6,1.79,1.38,1.79c0.67,0,1.1-0.31,1.23-0.99l0.77,0.15
			c-0.16,1.07-1.04,1.52-2.03,1.52C111.96,77.82,111.33,76.83,111.33,75.44z"/>
		<path class="st0" d="M116.82,72.19c-0.39,0-0.61-0.22-0.61-0.59s0.22-0.59,0.61-0.59s0.62,0.21,0.62,0.59
			S117.21,72.19,116.82,72.19z M116.37,77.71v-4.63h0.87v4.63H116.37z"/>
		<path class="st0" d="M118.02,75.42c0-1.49,0.83-2.43,2.4-2.43c1.56,0,2.21,0.95,2.21,2.32c0,1.52-0.67,2.51-2.33,2.51
			C118.58,77.82,118.02,76.79,118.02,75.42z M121.71,75.36c0-1.28-0.48-1.7-1.33-1.7c-0.87,0-1.46,0.49-1.46,1.72
			c0,1.22,0.46,1.78,1.42,1.78C121.2,77.16,121.71,76.68,121.71,75.36z M119.58,72.45l0.93-1.47h1.05l-1.34,1.58L119.58,72.45z"/>
		<path class="st0" d="M126.68,77.71V74.7c0-0.64-0.25-0.99-0.92-0.99c-0.57,0-1.18,0.34-1.44,0.56v3.45h-0.87v-4.63h0.77l0.05,0.55
			c0.48-0.36,1.09-0.65,1.78-0.65c1.06,0,1.52,0.54,1.52,1.58v3.14H126.68z"/>
		<path class="st0" d="M130.67,72.19c-0.39,0-0.61-0.22-0.61-0.59s0.22-0.59,0.61-0.59s0.62,0.21,0.62,0.59
			S131.06,72.19,130.67,72.19z M130.22,77.71v-4.63h0.87v4.63H130.22z"/>
		<path class="st0" d="M135.41,77.71V74.7c0-0.64-0.25-0.99-0.92-0.99c-0.57,0-1.18,0.34-1.44,0.56v3.45h-0.87v-4.63h0.77l0.05,0.55
			c0.48-0.36,1.09-0.65,1.78-0.65c1.06,0,1.52,0.54,1.52,1.58v3.14H135.41z"/>
		<path class="st0" d="M138.86,77.82c-0.92,0-1.39-0.4-1.39-1.32v-2.75h-0.76v-0.66h0.76v-1.34l0.87-0.13v1.47h1.36v0.66h-1.36v2.65
			c0,0.49,0.12,0.76,0.71,0.76c0.3,0,0.65-0.12,0.86-0.22l0.15,0.59C139.83,77.67,139.32,77.82,138.86,77.82z"/>
		<path class="st0" d="M140.12,75.41c0-1.69,1.06-2.42,2.32-2.42c1.38,0,1.96,0.86,1.96,2c0,0.18-0.01,0.39-0.04,0.6h-3.32
			c0.04,1.18,0.59,1.55,1.38,1.55c0.7,0,1.03-0.3,1.16-0.82l0.77,0.16c-0.2,0.9-0.97,1.34-1.96,1.34
			C140.64,77.82,140.12,76.68,140.12,75.41z M142.38,73.65c-0.65,0-1.29,0.37-1.33,1.29h2.45
			C143.49,74.11,143.16,73.65,142.38,73.65z"/>
		<path class="st0" d="M146.11,74.35v3.37h-0.87v-4.63h0.73l0.07,0.67c0.43-0.55,0.95-0.77,1.64-0.77c0.06,0,0.12,0.01,0.18,0.01
			v0.85C147.24,73.76,146.51,73.99,146.11,74.35z"/>
		<path class="st0" d="M147.85,75.44c0-1.61,0.88-2.46,2.36-2.46c1.1,0,1.83,0.54,1.9,1.61l-0.83,0.11
			c-0.08-0.68-0.41-1.04-1.1-1.04c-0.71,0-1.41,0.36-1.41,1.67c0,1.38,0.6,1.79,1.38,1.79c0.67,0,1.1-0.31,1.23-0.99l0.77,0.15
			c-0.16,1.07-1.04,1.52-2.03,1.52C148.49,77.82,147.85,76.83,147.85,75.44z"/>
		<path class="st0" d="M153.75,73.08v3.02c0,0.64,0.16,0.99,0.89,0.99c0.57,0,1.17-0.34,1.43-0.57v-3.44h0.87v4.63h-0.76l-0.06-0.53
			c-0.48,0.37-1.07,0.62-1.75,0.62c-1.05,0-1.51-0.54-1.51-1.58v-3.14H153.75z"/>
		<path class="st0" d="M158.04,77.71v-6.8h0.87v6.8H158.04z"/>
		<path class="st0" d="M161.54,77.82c-0.92,0-1.39-0.4-1.39-1.32v-2.75h-0.76v-0.66h0.76v-1.34l0.87-0.13v1.47h1.36v0.66h-1.36v2.65
			c0,0.49,0.12,0.76,0.71,0.76c0.3,0,0.65-0.12,0.86-0.22l0.15,0.59C162.51,77.67,162,77.82,161.54,77.82z"/>
		<path class="st0" d="M163.89,73.08v3.02c0,0.64,0.16,0.99,0.89,0.99c0.57,0,1.17-0.34,1.43-0.57v-3.44h0.87v4.63h-0.76l-0.06-0.53
			c-0.48,0.37-1.07,0.62-1.75,0.62c-1.05,0-1.51-0.54-1.51-1.58v-3.14H163.89z"/>
		<path class="st0" d="M169.06,74.35v3.37h-0.87v-4.63h0.73l0.07,0.67c0.43-0.55,0.95-0.77,1.64-0.77c0.06,0,0.12,0.01,0.18,0.01
			v0.85C170.19,73.76,169.46,73.99,169.06,74.35z"/>
		<path class="st0" d="M174.94,77.2c0.09,0,0.17-0.02,0.3-0.05l0.04,0.51c-0.19,0.09-0.44,0.14-0.68,0.14
			c-0.49,0-0.71-0.25-0.76-0.55c-0.38,0.36-0.89,0.57-1.58,0.57c-1.25,0-1.46-0.79-1.46-1.24c0-1.23,1.16-1.58,2.55-1.58
			c0.15,0,0.3,0.01,0.43,0.02v-0.45c0-0.58-0.17-0.95-0.98-0.95c-0.68,0-0.94,0.25-1.05,0.77l-0.77-0.14
			c0.15-0.86,0.75-1.27,1.89-1.27c1.22,0,1.77,0.44,1.77,1.59v2.26C174.64,77.09,174.69,77.2,174.94,77.2z M173.29,75.59
			c-0.68,0-1.59,0.06-1.59,0.85c0,0.4,0.15,0.74,0.83,0.74c0.51,0,1-0.25,1.27-0.52v-1.04C173.66,75.6,173.47,75.59,173.29,75.59z"
			/>
		<path class="st0" d="M175.84,77.71v-6.8h0.87v6.8H175.84z"/>
	</g>
</g>
<g id="Layer_4" class="st3">
</g>
</svg>
