<?xml version="1.0" encoding="utf-8"?>
<!-- Generator: Adobe Adobe Illustrator 24.2.0, SVG Export Plug-In . SVG Version: 6.00 Build 0)  -->
<svg version="1.1" xmlns="http://www.w3.org/2000/svg" xmlns:xlink="http://www.w3.org/1999/xlink" x="0px" y="0px"
	 width="2599.07px" height="439.63px" viewBox="0 0 2599.07 439.63" style="enable-background:new 0 0 2599.07 439.63;"
	 xml:space="preserve">
<style type="text/css">
	.st0{fill:#FFFEFF;}
</style>
<g id="Layer_1">
	<rect x="49.88" y="-15.65" width="2599.07" height="470.93"/>
</g>
<g id="Layer_2">
	<polygon class="st0" points="1851.46,162.65 1856.55,175.02 1869.75,179.77 1855.52,182.34 1850.79,200.79 1848.16,181.98 
		1835.86,180.27 1846.43,176.78 	"/>
	<polygon class="st0" points="1391.67,288.07 1384.97,280.46 1371.37,278.57 1384.97,275.59 1387.06,263.1 1392.23,275.14 
		1404.53,275.13 1394.65,278.38 	"/>
	<polygon class="st0" points="2443.45,104.23 2432.47,115.51 2433.39,132.42 2424.12,117.67 2402.12,120.72 2421.15,109.29 
		2417.37,94.76 2425.96,105 	"/>
	<polygon class="st0" points="1560.77,134.49 1568,146.72 1583.97,150.63 1567.53,154.23 1563.85,173.32 1558.86,154.37 
		1544.25,153.48 1556.31,149.2 	"/>
	<polygon class="st0" points="2192.02,171.46 2203.38,189.34 2226.43,193.77 2203.38,200.79 2199.83,230.12 2191.06,201.83 
		2170.21,201.86 2186.97,194.22 	"/>
	<polygon class="st0" points="1158.57,283.82 1169.92,301.7 1192.98,306.13 1169.92,313.15 1166.38,342.48 1157.61,314.19 
		1136.76,314.22 1153.52,306.57 	"/>
	<polygon class="st0" points="844.84,137.61 856.98,144.81 870.23,140.45 861.08,151.64 869.79,170.2 855.23,156 844.69,162.35 
		850.43,152.71 	"/>
	<polygon class="st0" points="1779.84,283.82 1786.78,296.11 1802.66,300.38 1786.14,303.55 1782.02,322.39 1777.47,303.48 
		1762.89,302.25 1775.04,298.29 	"/>
	<polygon class="st0" points="1291.23,65.64 1299.14,73.89 1315.75,76.5 1298.95,78.97 1295.88,91.88 1290.02,79.08 1274.93,78.52 
		1287.19,75.59 	"/>
</g>
</svg>
