<?xml version="1.0" encoding="utf-8"?>
<!-- Generator: Adobe Adobe Illustrator 24.2.0, SVG Export Plug-In . SVG Version: 6.00 Build 0)  -->
<svg version="1.1" id="Layer_1" xmlns="http://www.w3.org/2000/svg" xmlns:xlink="http://www.w3.org/1999/xlink" x="0px" y="0px"
	 viewBox="0 0 878.9 178.09" style="enable-background:new 0 0 878.9 178.09;" xml:space="preserve">
<style type="text/css">
	.st0{clip-path:url(#SVGID_2_);}
	.st1{clip-path:url(#SVGID_2_);fill:none;stroke:#000000;stroke-width:2;stroke-miterlimit:10;}
</style>
<g>
	<g>
		<defs>
			<rect id="SVGID_1_" width="878.9" height="178.09"/>
		</defs>
		<clipPath id="SVGID_2_">
			<use xlink:href="#SVGID_1_"  style="overflow:visible;"/>
		</clipPath>
		<g class="st0">
			<path d="M528.73,61.15V36.18h8.65c1.99,0,3.75,0.33,5.26,0.98c1.51,0.66,2.77,1.55,3.78,2.67s1.76,2.44,2.27,3.96
				c0.5,1.51,0.76,3.12,0.76,4.83c0,1.9-0.28,3.62-0.84,5.15c-0.56,1.54-1.37,2.85-2.43,3.94c-1.05,1.09-2.33,1.93-3.82,2.53
				s-3.15,0.9-4.98,0.9H528.73z M546.24,48.63c0-1.41-0.19-2.7-0.58-3.89s-0.96-2.2-1.72-3.04c-0.76-0.84-1.69-1.51-2.8-1.99
				c-1.1-0.48-2.36-0.72-3.76-0.72h-5.49v19.34h5.49c1.43,0,2.7-0.25,3.82-0.74s2.04-1.17,2.78-2.04c0.74-0.87,1.3-1.89,1.69-3.08
				C546.05,51.29,546.24,50.01,546.24,48.63z"/>
			<path d="M571.21,58.33v2.81h-16.95V36.18h16.63v2.81h-13.47v8.09h11.71v2.64h-11.71v8.61H571.21z"/>
			<path d="M575.89,61.15V36.18h10.41c1.1,0,2.12,0.23,3.04,0.69s1.72,1.07,2.39,1.83s1.19,1.62,1.56,2.57s0.56,1.92,0.56,2.9
				c0,1.03-0.18,2.03-0.53,2.99c-0.35,0.96-0.85,1.82-1.49,2.57c-0.65,0.75-1.42,1.35-2.32,1.79s-1.9,0.67-3.01,0.67h-7.46v8.97
				H575.89z M579.05,49.37h7.28c0.66,0,1.25-0.13,1.78-0.4s0.98-0.64,1.35-1.13c0.38-0.48,0.67-1.04,0.88-1.67s0.32-1.3,0.32-2
				c0-0.73-0.12-1.41-0.37-2.04s-0.57-1.18-0.98-1.65s-0.89-0.83-1.44-1.09s-1.13-0.39-1.74-0.39h-7.07V49.37z"/>
			<path d="M603.98,36.18h2.67l10.2,24.97h-3.38l-2.95-7.31h-10.48l-2.92,7.31h-3.38L603.98,36.18z M609.82,51.37l-4.5-11.53
				l-4.64,11.53H609.82z"/>
			<path d="M620.54,61.15V36.18h10.69c1.1,0,2.12,0.23,3.04,0.69s1.72,1.07,2.39,1.83s1.19,1.62,1.56,2.57s0.56,1.92,0.56,2.9
				c0,0.87-0.12,1.71-0.37,2.51s-0.6,1.54-1.05,2.2s-1.01,1.22-1.65,1.69c-0.65,0.47-1.37,0.81-2.16,1.02l6.05,9.56h-3.59l-5.7-8.97
				h-6.61v8.97H620.54z M623.71,49.37h7.56c0.66,0,1.25-0.14,1.78-0.42s0.98-0.66,1.35-1.14c0.38-0.48,0.67-1.04,0.88-1.67
				c0.21-0.63,0.32-1.29,0.32-1.97c0-0.7-0.12-1.37-0.37-1.99c-0.25-0.62-0.57-1.17-0.98-1.65s-0.89-0.86-1.44-1.12
				s-1.13-0.4-1.74-0.4h-7.35V49.37z"/>
			<path d="M661.75,38.99h-8.62v22.15h-3.16V38.99h-8.62v-2.81h20.39V38.99z"/>
			<path d="M670.97,36.18h2.67l10.2,24.97h-3.38l-2.95-7.31h-10.48l-2.92,7.31h-3.38L670.97,36.18z M676.8,51.37l-4.5-11.53
				l-4.64,11.53H676.8z"/>
			<path d="M709.12,61.15v-19.3l-8.3,14.8h-1.79l-8.33-14.8v19.3h-3.16V36.18h3.34l9.04,16.21l9.07-16.21h3.3v24.97H709.12z"/>
			<path d="M735.56,58.33v2.81h-16.95V36.18h16.63v2.81h-13.47v8.09h11.71v2.64h-11.71v8.61H735.56z"/>
			<path d="M743.4,42.09v19.06h-3.16V36.18h2.46l15.47,19.45V36.22h3.17v24.93h-2.67L743.4,42.09z"/>
			<path d="M785.67,38.99h-8.62v22.15h-3.16V38.99h-8.62v-2.81h20.39V38.99z"/>
			<path d="M798.99,61.32c-1.76,0-3.36-0.36-4.8-1.07c-1.44-0.71-2.68-1.66-3.71-2.85c-1.03-1.18-1.83-2.54-2.39-4.06
				c-0.56-1.52-0.84-3.08-0.84-4.68c0-1.67,0.3-3.26,0.9-4.78c0.6-1.52,1.42-2.87,2.48-4.04s2.3-2.1,3.75-2.8
				c1.44-0.69,3.01-1.04,4.69-1.04c1.76,0,3.35,0.37,4.78,1.11c1.43,0.74,2.66,1.71,3.69,2.9s1.83,2.55,2.39,4.06
				c0.56,1.51,0.84,3.05,0.84,4.62c0,1.66-0.3,3.26-0.9,4.78c-0.6,1.52-1.42,2.87-2.46,4.03c-1.04,1.16-2.29,2.09-3.73,2.78
				C802.25,60.98,800.68,61.32,798.99,61.32z M790.45,48.66c0,1.27,0.21,2.49,0.62,3.67c0.41,1.18,0.99,2.23,1.74,3.15
				s1.65,1.64,2.71,2.18c1.05,0.54,2.23,0.81,3.52,0.81c1.34,0,2.53-0.29,3.59-0.86c1.05-0.57,1.95-1.32,2.69-2.25
				s1.3-1.97,1.69-3.15c0.39-1.17,0.58-2.36,0.58-3.55c0-1.27-0.21-2.49-0.62-3.67s-1-2.23-1.76-3.13c-0.76-0.9-1.67-1.62-2.71-2.16
				s-2.2-0.81-3.46-0.81c-1.34,0-2.53,0.28-3.59,0.84s-1.95,1.3-2.69,2.21s-1.31,1.96-1.71,3.13S790.45,47.44,790.45,48.66z"/>
			<path d="M824.77,61.15V36.18h8.65c1.99,0,3.75,0.33,5.26,0.98c1.51,0.66,2.77,1.55,3.78,2.67s1.76,2.44,2.27,3.96
				c0.5,1.51,0.76,3.12,0.76,4.83c0,1.9-0.28,3.62-0.84,5.15c-0.56,1.54-1.37,2.85-2.43,3.94c-1.05,1.09-2.33,1.93-3.82,2.53
				s-3.15,0.9-4.98,0.9H824.77z M842.28,48.63c0-1.41-0.19-2.7-0.58-3.89s-0.96-2.2-1.72-3.04c-0.76-0.84-1.69-1.51-2.8-1.99
				c-1.1-0.48-2.36-0.72-3.76-0.72h-5.49v19.34h5.49c1.43,0,2.7-0.25,3.82-0.74s2.04-1.17,2.78-2.04c0.74-0.87,1.3-1.89,1.69-3.08
				C842.08,51.29,842.28,50.01,842.28,48.63z"/>
			<path d="M867.24,58.33v2.81h-16.95V36.18h16.63v2.81h-13.47v8.09h11.71v2.64h-11.71v8.61H867.24z"/>
		</g>
		<g class="st0">
			<path d="M542.36,90h12.07l16.68,48.15h-13.43l-2.92-9.43h-12.82l-2.85,9.43h-13.5L542.36,90z M552.67,119.9l-4.27-14.92
				l-4.48,14.92H552.67z"/>
			<path d="M575.79,138.15V90h22.11c2.35,0,4.52,0.49,6.51,1.46c1.99,0.97,3.7,2.24,5.12,3.8c1.42,1.56,2.54,3.35,3.36,5.36
				c0.81,2.01,1.22,4.04,1.22,6.07c0,2.8-0.61,5.41-1.83,7.83s-2.92,4.4-5.09,5.93l10.17,17.7h-14.92l-8.48-14.78h-4.95v14.78
				H575.79z M589.01,111.83h8.34c0.81,0,1.57-0.45,2.27-1.36c0.7-0.9,1.05-2.17,1.05-3.8c0-1.67-0.41-2.95-1.22-3.83
				c-0.81-0.88-1.63-1.32-2.44-1.32h-8V111.83z"/>
			<path d="M659.07,101.53h-13.83v36.62h-13.22v-36.62h-13.9V90h40.96V101.53z"/>
			<path d="M698.8,126.62v11.53h-34.31V90h33.7v11.53h-20.48v6.78h17.5v10.71h-17.5v7.6H698.8z"/>
		</g>
		<line class="st1" x1="465.64" y1="10" x2="465.64" y2="164.91"/>
		<polygon class="st0" points="101.83,117.33 101.83,117.33 98.11,119.66 94.28,121.65 90.57,123.4 86.85,124.8 83.25,126.08 
			79.89,127.02 76.64,127.83 73.62,128.53 70.83,129 68.28,129.35 64.22,129.7 61.55,129.82 60.62,129.82 60.5,129.35 60.27,127.83 
			60.15,125.5 60.27,122.46 60.38,120.95 60.62,120.36 60.73,119.9 61.31,119.2 61.89,118.61 62.59,118.03 63.4,117.45 64.1,116.63 
			64.8,115.46 65.84,113.36 66.42,111.96 67.12,110.1 66.42,97.61 65.96,87.11 65.49,78.12 65.26,73.8 64.8,68.44 64.1,62.49 
			63.29,56.3 63.05,54.55 62.71,52.8 61.89,49.53 61.08,46.26 60.73,44.63 60.5,42.88 58.29,28.53 58.06,29.69 57.71,31.21 
			56.9,35.53 55.97,41.25 55.16,47.78 53.42,60.97 50.98,81.16 49.82,90.84 49.36,93.99 49.12,95.51 48.89,96.09 48.78,96.33 
			48.66,96.21 48.54,95.98 48.43,95.39 48.43,95.04 49.24,80.92 50.05,68.9 50.52,58.4 51.1,50 51.45,45.56 51.91,41.25 52.26,38.1 
			52.72,34.95 53.3,31.91 53.88,29.11 54.35,27.71 55.51,24.68 56.09,23.04 56.79,21.53 57.25,20.48 57.48,20.24 57.71,20.13 
			57.95,20.13 58.18,20.24 58.76,20.94 59.57,21.99 60.38,23.39 61.2,25.03 61.89,26.89 62.59,28.76 63.17,30.74 63.98,34.6 
			64.91,37.75 66.31,43 67,45.56 67.7,48.37 68.39,51.63 69.09,55.72 71.65,70.77 72.92,78.36 73.15,81.04 73.27,84.54 73.27,88.62 
			73.27,93.06 73.04,97.61 72.81,101.93 72.34,105.78 71.88,108.81 71.65,110.1 71.41,111.03 70.95,111.85 70.25,112.78 
			69.09,113.95 68.16,115.11 67.35,116.28 66.54,117.45 65.96,118.61 65.49,119.66 65.26,120.71 65.14,121.65 65.14,123.05 
			65.03,123.87 65.03,124.45 65.38,125.27 65.49,125.5 65.84,125.73 66.31,125.97 66.89,126.2 67.7,126.43 68.74,126.55 
			70.02,126.55 71.65,126.32 73.39,125.97 75.59,125.38 78.03,124.57 80.82,123.4 83.95,121.88 87.55,120.01 91.5,117.8 
			92.54,117.1 93.7,116.16 94.98,114.88 95.56,114.18 96.26,113.25 96.84,112.31 97.3,111.26 97.77,110.1 98.11,108.81 
			98.35,107.53 98.46,106.01 98.46,24.21 94.75,23.04 90.57,21.88 85.23,20.48 79.19,19.08 75.94,18.49 72.57,17.91 69.32,17.44 
			65.96,17.09 62.59,16.86 59.34,16.74 56.09,16.86 52.84,17.09 49.47,17.44 46.22,17.91 42.97,18.49 39.72,19.08 33.8,20.48 
			28.69,21.88 24.63,23.04 21.03,24.21 21.03,105.66 21.15,107.76 21.26,110.1 21.73,112.55 21.96,113.83 22.31,115.11 22.77,116.4 
			23.35,117.56 23.93,118.73 24.74,119.9 25.56,120.83 26.49,121.76 27.65,122.58 28.92,123.28 28.11,122.93 25.9,122.11 
			22.89,120.6 21.26,119.66 19.4,118.61 17.66,117.45 15.92,116.05 14.41,114.65 12.9,113.01 12.32,112.2 11.74,111.38 
			11.16,110.45 10.81,109.51 10.46,108.58 10.23,107.53 10,106.59 10,105.54 10,17.33 14.76,16.51 20.22,15.57 26.95,14.64 
			34.73,13.71 42.97,12.77 47.27,12.42 51.33,12.19 55.39,12.07 59.34,11.96 63.29,12.07 67.35,12.19 71.53,12.42 75.82,12.77 
			84.18,13.71 91.96,14.64 98.93,15.57 104.38,16.51 109.26,17.33 109.26,105.66 109.26,107.06 108.91,108.35 108.56,109.51 
			108.1,110.68 107.52,111.73 106.94,112.66 106.24,113.6 105.54,114.3 104.27,115.58 102.99,116.51 		"/>
		<path class="st0" d="M376.85,48.95L376.85,48.95l-0.81,0.47l-0.81,0.35l-1.97,0.47l-2.09,0.35l-2.44,0.12l-1.28-0.12l-1.16-0.12
			l-1.16-0.23l-1.04-0.35l-0.93-0.47l-0.93-0.47l-0.81-0.7l-0.7-0.7l-0.7-0.82l-0.58-0.93l-0.58-0.93l-0.35-1.05l-0.35-1.17
			l-0.23-1.17l-0.12-1.4V38.8v-1.4l0.12-1.28l0.23-1.28l0.35-1.17l0.35-1.05l0.58-1.05l0.58-0.93l0.7-0.93l0.7-0.7l0.7-0.7
			l0.93-0.58l0.81-0.35l1.04-0.35l0.93-0.35l1.04-0.12h1.16l1.86,0.12l1.62,0.23v-9.45h5.34V48.95z M371.51,46.73V29.81l-1.05-0.23
			l-1.28-0.12l-0.7,0.12l-0.7,0.12l-0.7,0.12l-0.58,0.23l-0.58,0.35l-0.46,0.35l-0.46,0.47l-0.46,0.58l-0.35,0.58l-0.23,0.58
			l-0.58,1.63l-0.23,1.75l-0.12,2.1l0.12,2.1l0.23,1.75l0.46,1.52l0.35,0.7l0.35,0.58l0.35,0.47l0.46,0.47l0.46,0.35l0.46,0.35
			l0.58,0.23l0.58,0.12l0.7,0.12l0.7,0.12l0.81-0.12l0.81-0.12l0.58-0.12L371.51,46.73z"/>
		<path class="st0" d="M401,38.33l-14.28,2.1l0.23,1.52l0.35,1.28l0.58,1.17l0.7,0.93l0.93,0.7l1.05,0.47l1.16,0.35l1.28,0.12
			l1.74-0.12l1.51-0.23l1.39-0.35l1.28-0.58l1.28,3.38l-1.62,0.7l-1.74,0.47l-2.09,0.35l-2.21,0.12l-1.28-0.12l-1.16-0.12
			l-1.05-0.23L388,49.88l-0.93-0.47l-0.93-0.58l-0.81-0.58l-0.81-0.7l-0.7-0.93l-0.58-0.93l-0.46-0.93l-0.46-1.17l-0.23-1.17
			l-0.23-1.17l-0.12-1.4l-0.12-1.4v-1.4l0.23-1.28l0.12-1.28l0.35-1.17l0.35-1.05l0.47-1.05l0.58-0.82l0.58-0.93l0.7-0.7l0.81-0.7
			l0.81-0.47l0.81-0.47l1.05-0.35l0.93-0.23l1.05-0.23h1.16h1.16l1.05,0.23l1.04,0.23l0.93,0.35l0.81,0.35l0.81,0.58l0.7,0.58
			l0.58,0.7l0.58,0.82l0.58,0.93l0.35,0.93l0.35,1.17l0.23,1.17l0.12,1.17l0.12,1.4V38.33z M396.01,36.23L396.01,36.23v-1.52
			l-0.23-1.4l-0.35-1.17l-0.58-0.93l-0.58-0.7l-0.81-0.47l-0.93-0.35l-1.05-0.12l-1.16,0.12l-1.04,0.35l-0.46,0.35l-0.35,0.23
			l-0.81,0.93l-0.23,0.58l-0.35,0.58l-0.46,1.4l-0.23,1.63v1.98L396.01,36.23z"/>
		<rect x="126.44" y="61.32" class="st0" width="8.36" height="51.69"/>
		<path class="st0" d="M173.11,94.58L173.11,94.58l-0.12,2.1l-0.12,1.98l-0.35,1.87l-0.35,1.75l-0.58,1.63l-0.58,1.52l-0.81,1.4
			l-0.93,1.4l-1.04,1.28l-1.16,1.05l-1.28,0.93l-1.39,0.82l-1.51,0.58l-1.51,0.35l-1.74,0.35h-1.86h-1.74l-1.74-0.35l-1.51-0.35
			l-1.51-0.58l-1.39-0.82l-1.28-0.93l-1.16-1.05l-1.16-1.28l-0.81-1.4l-0.81-1.4l-0.58-1.52l-0.58-1.63l-0.35-1.75l-0.35-1.87
			l-0.12-1.98l-0.12-2.1l0.12-2.1l0.12-1.98l0.35-1.87l0.35-1.75l0.58-1.63l0.58-1.63l0.81-1.4l0.81-1.28l1.16-1.28l1.16-1.17
			l1.28-0.93l1.39-0.7l1.51-0.58l1.51-0.47l1.74-0.23l1.74-0.12l1.86,0.12l1.74,0.23l1.63,0.47l1.39,0.58l1.39,0.7l1.28,0.93
			l1.16,1.17l1.04,1.28l0.93,1.28l0.81,1.4l0.58,1.63l0.58,1.63l0.35,1.75l0.35,1.87l0.12,1.98L173.11,94.58z M164.87,94.46
			L164.87,94.46l-0.12-3.15l-0.35-2.8l-0.23-1.28l-0.35-1.17l-0.35-1.05l-0.35-0.82l-0.46-0.82l-0.58-0.7l-0.58-0.58l-0.58-0.58
			l-0.7-0.35l-0.7-0.23l-0.81-0.23h-0.93h-0.81l-0.81,0.23l-0.7,0.23l-0.7,0.35l-0.58,0.58l-0.58,0.58l-0.58,0.7l-0.46,0.82
			l-0.35,0.82l-0.35,1.05l-0.35,1.17l-0.23,1.28l-0.35,2.8l-0.12,3.15l0.12,3.15l0.35,2.8l0.23,1.17l0.35,1.17l0.35,0.93l0.35,0.93
			l0.46,0.82l0.58,0.7l0.58,0.58l0.58,0.47l0.7,0.35l0.7,0.23l0.81,0.12l0.81,0.12l0.93-0.12l0.81-0.12l0.7-0.23l0.7-0.35l0.58-0.47
			l0.58-0.58l0.58-0.7l0.46-0.82l0.35-0.93l0.35-0.93l0.35-1.17l0.23-1.17l0.35-2.8L164.87,94.46z"/>
		<polygon class="st0" points="201.55,102.39 201.55,102.39 201.44,103.56 201.32,104.61 200.97,105.66 200.62,106.71 
			200.16,107.65 199.46,108.58 198.77,109.4 197.95,110.33 197.02,111.03 195.98,111.73 194.94,112.31 193.77,112.78 192.5,113.13 
			191.22,113.36 189.94,113.48 188.43,113.6 186.92,113.48 185.53,113.36 184.14,113.25 182.75,112.9 181.58,112.55 180.42,112.08 
			179.38,111.5 178.33,110.91 180.54,105.55 181.24,106.13 181.93,106.48 182.75,106.83 183.56,107.18 184.49,107.41 185.42,107.53 
			187.39,107.76 188.55,107.65 189.71,107.3 190.64,106.83 191.45,106.25 192.15,105.43 192.61,104.61 192.96,103.56 193.08,102.51 
			192.96,101.46 192.73,100.41 192.38,99.59 191.8,98.89 191.1,98.19 190.18,97.61 189.01,97.03 187.62,96.44 185.65,95.51 
			184.02,94.58 182.51,93.41 181.35,92.24 180.89,91.54 180.42,90.84 180.08,90.14 179.84,89.44 179.61,88.62 179.38,87.81 
			179.26,86.06 179.38,85.01 179.49,83.96 179.73,82.91 180.08,81.97 180.54,81.04 181.12,80.11 181.82,79.29 182.51,78.47 
			183.33,77.77 184.25,77.19 185.18,76.61 186.23,76.26 187.27,75.91 188.43,75.67 189.59,75.44 190.87,75.44 192.27,75.44 
			193.54,75.56 194.82,75.79 196.1,76.14 197.26,76.49 198.3,76.84 199.46,77.42 200.39,78.01 198.42,82.91 197.14,81.97 
			195.63,81.39 194.12,80.92 192.5,80.81 191.45,80.92 190.41,81.16 189.48,81.62 188.67,82.21 188.09,83.02 187.62,83.84 
			187.39,84.66 187.27,85.71 187.39,86.52 187.62,87.46 188.09,88.16 188.67,88.97 189.48,89.68 190.41,90.26 191.45,90.96 
			192.73,91.54 194.82,92.48 196.56,93.53 198.07,94.69 198.77,95.28 199.35,95.98 199.81,96.68 200.28,97.38 200.62,98.19 
			200.97,98.89 201.2,99.71 201.44,100.64 201.55,101.46 		"/>
		<path class="st0" d="M262.73,113.01h-9.64l-3.95-13.19h-16.37l-4.06,13.19h-8.48l16.83-51.23h8.94L262.73,113.01z M247.87,94.34
			l-5.34-18.09l-0.81-3.38l-0.35-1.52l-0.12-1.17h-0.12l-0.58,2.45l-0.81,3.62l-5.57,18.09H247.87z"/>
		<polygon class="st0" points="296.86,113.01 288.62,113.01 288.62,86.87 288.51,85.36 288.16,84.19 287.69,83.14 287.34,82.67 
			287,82.21 286.07,81.51 284.91,81.04 283.51,80.81 282,80.69 280.5,80.81 278.99,80.92 277.59,81.27 276.32,81.74 276.32,113.01 
			267.96,113.01 267.96,78.12 269.47,77.42 270.98,76.96 272.72,76.49 274.46,76.14 276.2,75.79 278.17,75.56 280.26,75.44 
			282.35,75.44 284.21,75.44 285.95,75.67 287.58,75.91 289.09,76.26 290.36,76.72 291.64,77.31 292.69,78.01 293.73,78.82 
			294.43,79.64 295.12,80.46 295.7,81.27 296.17,82.21 296.52,83.26 296.75,84.31 296.86,85.47 296.86,86.76 		"/>
		<path class="st0" d="M334.36,111.03L334.36,111.03l-1.28,0.58l-1.39,0.58l-1.39,0.35l-1.51,0.47l-1.74,0.23l-1.74,0.23l-1.86,0.12
			h-1.86h-1.97l-1.86-0.23l-1.74-0.47l-1.62-0.47l-1.63-0.7l-1.39-0.82l-1.28-1.05l-1.16-1.17l-1.04-1.28l-0.93-1.4l-0.81-1.52
			l-0.58-1.63l-0.46-1.87l-0.35-1.87l-0.23-1.98l-0.12-2.22l0.12-2.1l0.23-2.1l0.35-1.87l0.46-1.87l0.58-1.75l0.81-1.52l0.93-1.52
			l1.04-1.4l1.16-1.17l1.16-1.05l1.39-0.82l1.39-0.7l1.51-0.58l1.51-0.35l1.74-0.35h1.74h1.51l1.39,0.12l1.39,0.23l1.16,0.35V61.55
			h8.36V111.03z M326,107.53V80.92l-1.74-0.35l-1.86-0.12l-1.28,0.12l-1.04,0.12l-1.05,0.35l-0.93,0.35l-0.81,0.47l-0.81,0.58
			l-0.7,0.7l-0.7,0.82l-0.58,0.93l-0.46,1.05l-0.46,1.17l-0.23,1.28l-0.35,1.4l-0.12,1.4l-0.12,1.63l-0.12,1.63l0.12,1.75l0.12,1.52
			l0.12,1.52l0.23,1.28l0.35,1.28l0.35,1.05l0.46,1.05l0.58,0.93l0.58,0.82l0.7,0.7l0.7,0.58l0.81,0.47l0.93,0.47l0.93,0.23
			l1.05,0.12l1.04,0.12l1.39-0.12l1.16-0.12l1.04-0.23L326,107.53z"/>
		<path class="st0" d="M372.09,94.34l-22.41,3.27l0.12,1.17l0.23,1.17l0.23,1.17l0.35,0.93l0.46,0.93l0.46,0.82l0.58,0.82l0.58,0.7
			l0.58,0.58l0.81,0.47l0.7,0.47l0.81,0.35l0.93,0.35l1.05,0.12l0.93,0.12l1.16,0.12l2.55-0.12l2.44-0.47l1.05-0.23l1.16-0.35
			l1.05-0.47l1.05-0.47l1.97,5.25l-1.28,0.58l-1.28,0.58l-1.39,0.47l-1.51,0.35l-1.51,0.23l-1.63,0.23l-1.74,0.12h-1.86h-1.86
			l-1.86-0.23l-1.74-0.47l-1.62-0.47l-1.39-0.7l-1.51-0.93l-1.28-0.93l-1.16-1.17l-1.05-1.4l-0.93-1.4l-0.81-1.63l-0.58-1.63
			l-0.58-1.87l-0.35-1.98l-0.23-2.1v-2.22v-2.22l0.23-1.98l0.35-1.98l0.46-1.87l0.58-1.63l0.7-1.52l0.81-1.52l1.04-1.28l1.04-1.17
			l1.16-1.05l1.39-0.82l1.39-0.7l1.39-0.58l1.63-0.35l1.62-0.23l1.86-0.12l1.74,0.12l1.62,0.23l1.63,0.35l1.39,0.47l1.39,0.7
			l1.16,0.82l1.16,1.05l1.04,1.05l0.81,1.28l0.81,1.4l0.58,1.63l0.58,1.63l0.35,1.87l0.23,1.87l0.12,2.1V94.34z M364.31,91.07
			L364.31,91.07l-0.12-2.45l-0.35-2.22l-0.23-0.93l-0.35-0.82l-0.35-0.82l-0.35-0.7l-0.46-0.58l-0.58-0.58l-0.58-0.35l-0.7-0.47
			l-0.7-0.23l-0.7-0.23l-0.81-0.12h-0.93h-0.93l-0.81,0.23l-0.81,0.23l-0.81,0.23l-0.7,0.47l-0.7,0.58l-0.58,0.58l-0.46,0.7
			l-0.58,0.93l-0.46,0.93l-0.35,1.05l-0.35,1.17l-0.12,1.28l-0.23,1.4v1.4v1.52L364.31,91.07z"/>
		<polygon class="st0" points="400.65,102.39 400.65,102.39 400.54,103.56 400.42,104.61 400.07,105.66 399.72,106.71 
			399.26,107.65 398.56,108.58 397.87,109.4 397.05,110.33 396.12,111.03 395.08,111.73 394.03,112.31 392.87,112.78 391.6,113.13 
			390.32,113.36 389.04,113.48 387.53,113.6 386.02,113.48 384.63,113.36 383.24,113.25 381.96,112.9 380.68,112.55 379.52,112.08 
			378.48,111.5 377.43,110.91 379.64,105.55 380.34,106.13 381.03,106.48 381.84,106.83 382.66,107.18 383.59,107.41 384.51,107.53 
			386.49,107.76 387.65,107.65 388.81,107.3 389.74,106.83 390.55,106.25 391.25,105.43 391.71,104.61 392.06,103.56 392.18,102.51 
			392.06,101.46 391.83,100.41 391.48,99.59 390.9,98.89 390.2,98.19 389.27,97.61 388.11,97.03 386.72,96.44 384.75,95.51 
			383.12,94.58 381.61,93.41 380.45,92.24 379.99,91.54 379.52,90.84 379.17,90.14 378.94,89.44 378.71,88.62 378.48,87.81 
			378.36,86.06 378.48,85.01 378.59,83.96 378.83,82.91 379.17,81.97 379.64,81.04 380.22,80.11 380.92,79.29 381.61,78.47 
			382.42,77.77 383.35,77.19 384.28,76.61 385.33,76.26 386.37,75.91 387.53,75.67 388.81,75.44 389.97,75.44 391.36,75.44 
			392.76,75.56 393.92,75.79 395.2,76.14 396.36,76.49 397.52,76.84 398.56,77.42 399.49,78.01 397.52,82.91 396.24,81.97 
			394.73,81.39 393.22,80.92 391.71,80.81 390.55,80.92 389.51,81.16 388.58,81.62 387.77,82.21 387.18,83.02 386.72,83.84 
			386.49,84.66 386.49,85.71 386.49,86.52 386.72,87.46 387.18,88.16 387.77,88.97 388.58,89.68 389.51,90.26 390.55,90.96 
			391.83,91.54 393.92,92.48 395.66,93.53 397.17,94.69 397.87,95.28 398.45,95.98 398.91,96.68 399.37,97.38 399.72,98.19 
			400.07,98.89 400.3,99.71 400.54,100.64 400.65,101.46 		"/>
		<polygon class="st0" points="170.32,50.35 164.98,50.35 164.98,33.66 164.87,32.73 164.75,31.91 164.4,31.21 163.94,30.75 
			163.36,30.28 162.66,29.93 161.73,29.81 160.8,29.69 159.76,29.81 158.83,29.93 158.02,30.05 157.09,30.4 157.09,50.35 
			151.86,50.35 151.86,28.06 152.79,27.71 153.72,27.36 155.93,26.78 158.37,26.43 161.04,26.43 162.2,26.43 163.24,26.54 
			164.29,26.66 165.22,26.89 166.14,27.24 166.96,27.59 167.65,28.06 168.23,28.53 168.7,28.99 169.16,29.58 169.51,30.16 
			169.74,30.75 169.98,31.33 170.09,32.03 170.32,33.55 		"/>
		<path class="st0" d="M181.7,20.13L181.7,20.13l-0.12,0.47l-0.12,0.58l-0.23,0.35l-0.46,0.47l-0.35,0.35l-0.58,0.23l-0.46,0.12
			h-0.58h-0.58l-0.58-0.12l-0.46-0.23l-0.46-0.35l-0.35-0.47l-0.35-0.35l-0.12-0.58v-0.47v-0.58l0.12-0.47l0.35-0.47l0.35-0.35
			l0.46-0.35l0.46-0.23l0.58-0.12l0.58-0.12l0.58,0.12l0.46,0.12l0.58,0.23l0.35,0.35l0.46,0.35l0.23,0.47l0.12,0.47L181.7,20.13z
			 M181.35,50.35h-5.22V26.78h5.22V50.35z"/>
		<polygon class="st0" points="205.5,26.78 197.95,50.35 192.96,50.35 185.3,26.78 190.99,26.78 195.05,41.95 195.4,43.7 
			195.63,45.21 195.75,45.21 196.33,41.95 200.51,26.78 		"/>
		<path class="st0" d="M227.67,38.45l-14.4,2.1l0.35,1.52l0.35,1.28l0.58,1.17l0.7,0.93l0.93,0.7l0.93,0.47l1.28,0.35l1.28,0.12
			l1.74-0.12l1.51-0.23l1.39-0.47l1.28-0.47l1.28,3.27l-1.62,0.7l-1.74,0.58l-2.09,0.35h-2.21h-1.28l-1.16-0.12l-1.04-0.23
			L214.67,50l-0.93-0.47l-0.93-0.58L212,48.37l-0.81-0.82l-0.7-0.82l-0.58-0.93l-0.46-1.05l-0.46-1.05l-0.23-1.17l-0.23-1.28
			l-0.23-1.28v-1.52v-1.28l0.23-1.4l0.12-1.17l0.35-1.17l0.35-1.05l0.46-1.05l0.58-0.93l0.58-0.82l0.7-0.7l0.81-0.7l0.81-0.58
			l0.81-0.47l0.93-0.35l1.04-0.23l1.04-0.12h1.16h1.16l1.05,0.12l1.04,0.23l0.93,0.35l0.81,0.47l0.81,0.47l0.7,0.7l0.58,0.7
			l0.58,0.82l0.46,0.93l0.46,0.93l0.35,1.05l0.23,1.17l0.12,1.28l0.12,1.28V38.45z M222.68,36.35L222.68,36.35v-1.63l-0.23-1.28
			l-0.35-1.17l-0.58-0.93l-0.58-0.7l-0.81-0.58l-0.93-0.35h-1.04l-1.16,0.12l-1.04,0.35l-0.46,0.23l-0.35,0.35l-0.81,0.82
			l-0.35,0.58l-0.23,0.7l-0.47,1.4l-0.23,1.63v1.87L222.68,36.35z"/>
		<polygon class="st0" points="243.69,26.43 242.65,30.28 241.49,30.04 240.21,29.93 239.52,29.93 238.82,30.04 238.24,30.28 
			237.77,30.51 237.77,50.35 232.43,50.35 232.43,28.06 233.48,27.59 234.64,27.24 235.8,26.89 237.19,26.66 238.7,26.54 
			240.21,26.43 		"/>
		<polygon class="st0" points="260.64,43.58 260.64,43.58 260.53,44.28 260.41,44.98 260.3,45.68 260.06,46.27 259.72,46.97 
			259.37,47.55 258.9,48.13 258.32,48.6 257.74,49.07 257.05,49.53 256.35,49.88 255.65,50.23 254.84,50.47 254.03,50.58 
			252.29,50.7 250.43,50.58 248.69,50.35 247.18,49.77 245.78,49.07 247.18,45.57 248.11,46.15 249.15,46.62 250.31,46.85 
			251.59,46.97 252.4,46.97 252.98,46.73 253.68,46.5 254.14,46.03 254.61,45.57 254.96,44.98 255.07,44.4 255.19,43.7 255.19,43 
			254.96,42.3 254.72,41.83 254.38,41.36 253.91,40.9 253.33,40.55 252.63,40.08 251.71,39.73 250.54,39.26 249.38,38.56 
			248.45,37.86 247.76,37.05 247.18,36.23 246.71,35.3 246.48,34.25 246.48,33.2 246.6,31.8 246.71,31.1 246.95,30.51 247.18,29.93 
			247.53,29.35 248.45,28.29 249.04,27.83 249.62,27.48 250.2,27.13 250.89,26.89 252.29,26.54 253.8,26.43 255.54,26.43 
			257.16,26.78 258.55,27.36 259.95,28.06 258.55,31.1 257.74,30.51 256.93,30.16 255.88,29.93 254.84,29.81 254.14,29.81 
			253.45,30.05 252.87,30.28 252.4,30.75 252.05,31.21 251.82,31.68 251.59,32.26 251.59,32.96 251.59,33.43 251.71,34.01 
			252.05,34.48 252.4,34.95 252.87,35.41 253.45,35.88 254.14,36.23 255.07,36.58 256.35,37.28 257.51,37.86 258.44,38.68 
			259.25,39.5 259.83,40.43 260.3,41.36 260.53,42.41 		"/>
		<path class="st0" d="M270.98,20.13L270.98,20.13l-0.12,0.47l-0.12,0.58l-0.23,0.35l-0.35,0.47l-0.46,0.35l-0.46,0.23l-0.58,0.12
			h-0.58h-0.58l-0.58-0.12l-0.46-0.23l-0.46-0.35l-0.35-0.47l-0.23-0.35l-0.23-0.58v-0.47v-0.58l0.23-0.47l0.23-0.47l0.35-0.35
			l0.46-0.35l0.46-0.23l0.58-0.12l0.58-0.12l0.58,0.12l0.58,0.12l0.46,0.23l0.46,0.35l0.35,0.35l0.23,0.47l0.12,0.47L270.98,20.13z
			 M270.74,50.35h-5.34V26.78h5.34V50.35z"/>
		<path class="st0" d="M294.77,49.07L294.77,49.07l-0.81,0.35l-0.93,0.35l-1.86,0.58l-2.2,0.35h-2.44h-1.28l-1.16-0.12l-1.05-0.23
			L282.01,50l-1.05-0.47l-0.81-0.58l-0.81-0.58l-0.81-0.82l-0.7-0.82l-0.58-0.82l-0.46-1.05l-0.35-1.05l-0.35-1.05l-0.23-1.28
			l-0.12-1.28l-0.12-1.4l0.12-1.4l0.12-1.28l0.23-1.17l0.35-1.17l0.35-1.17l0.46-0.93l0.58-1.05l0.7-0.82l0.7-0.82l0.81-0.58
			l0.81-0.58l0.93-0.47l0.93-0.35l1.04-0.23l1.04-0.12l1.16-0.12l1.86,0.12l1.62,0.35v-9.45h5.34V49.07z M289.43,46.85V29.93
			l-1.16-0.23l-1.16-0.12h-0.81l-0.7,0.12l-0.58,0.23l-0.58,0.23l-0.58,0.35l-0.58,0.35l-0.35,0.47l-0.46,0.47l-0.35,0.58l-0.35,0.7
			l-0.46,1.52l-0.23,1.87l-0.12,2.1l0.12,1.98l0.23,1.87l0.46,1.52l0.23,0.58l0.35,0.58l0.35,0.58l0.46,0.47l0.46,0.35l0.58,0.23
			l0.58,0.35l0.58,0.12l0.58,0.12h0.7h0.93l0.81-0.12l0.58-0.12L289.43,46.85z"/>
		<path class="st0" d="M317.3,49.07L317.3,49.07l-0.81,0.35l-0.93,0.35l-1.97,0.58l-2.32,0.35h-2.44l-2.32-0.12l-1.86-0.23
			L303.71,50l-0.7-0.23l-0.7-0.35l-0.7-0.47l-0.58-0.47l-0.46-0.47l-0.35-0.7l-0.35-0.58l-0.35-0.7l-0.12-0.7l-0.12-0.82v-0.93
			v-1.05l0.23-0.93l0.23-0.93l0.46-0.82l0.58-0.7l0.58-0.7l0.81-0.7l0.93-0.58l1.74-0.7l2.09-0.7l2.44-0.47l2.9-0.35v-1.28
			l-0.12-0.93l-0.12-0.82l-0.46-0.58l-0.46-0.58l-0.7-0.47l-0.7-0.23l-1.05-0.23h-1.05l-1.51,0.12l-1.39,0.23l-1.51,0.47l-1.39,0.58
			l-1.28-3.03l1.86-0.82l1.97-0.58l2.09-0.23l2.09-0.12l2.09,0.12l0.93,0.12l0.81,0.23l0.7,0.23l0.81,0.35l0.58,0.47l0.58,0.47
			l0.46,0.58l0.46,0.58l0.35,0.58l0.35,0.82l0.23,0.7l0.12,0.93l0.12,0.93l0.12,0.93V49.07z M312.31,47.2v-9.8l-1.97,0.35
			l-1.62,0.35l-1.28,0.47l-1.04,0.47l-0.46,0.35l-0.46,0.47l-0.35,0.47l-0.35,0.47l-0.23,0.58l-0.12,0.7l-0.12,0.58v0.82v0.93
			l0.23,0.93l0.46,0.82l0.46,0.58l0.7,0.47l0.81,0.35l1.04,0.23h1.16h0.81l0.93-0.12l0.7-0.23L312.31,47.2z"/>
		<path class="st0" d="M341.1,49.07L341.1,49.07l-0.81,0.35l-0.81,0.35l-1.97,0.58l-2.09,0.35h-2.44h-1.28l-1.16-0.12l-1.16-0.23
			L328.33,50l-0.93-0.47l-0.93-0.58l-0.81-0.58l-0.81-0.82l-0.58-0.82l-0.58-0.82l-0.58-1.05l-0.35-1.05l-0.35-1.05l-0.23-1.28
			l-0.12-1.28v-1.4v-1.4l0.12-1.28l0.23-1.17l0.35-1.17l0.35-1.17l0.58-0.93l0.58-1.05l0.58-0.82l0.81-0.82l0.7-0.58l0.93-0.58
			l0.81-0.47l1.04-0.35l0.93-0.23l1.04-0.12l1.16-0.12l1.86,0.12l1.62,0.35v-9.45h5.34V49.07z M335.76,46.85V29.93l-1.05-0.23
			l-1.28-0.12h-0.7l-0.7,0.12l-0.7,0.23l-0.58,0.23l-0.58,0.35l-0.46,0.35l-0.46,0.47l-0.46,0.47l-0.35,0.58l-0.23,0.7l-0.58,1.52
			l-0.23,1.87l-0.12,2.1l0.12,1.98l0.23,1.87l0.46,1.52l0.35,0.58l0.35,0.58l0.35,0.58l0.46,0.47l0.46,0.35l0.46,0.23l0.58,0.35
			l0.58,0.12l0.7,0.12h0.7h0.81l0.81-0.12l0.58-0.12L335.76,46.85z"/>
		<polygon class="st0" points="126.44,17.56 132.01,17.56 132.01,42.88 132.13,43.81 132.36,44.75 132.71,45.45 133.17,46.03 
			133.75,46.5 134.57,46.73 135.5,46.96 136.54,47.08 137.59,46.96 138.51,46.85 139.44,46.61 140.37,46.38 140.37,17.56 
			146.06,17.56 146.06,48.83 145.02,49.18 143.97,49.53 142.81,49.88 141.65,50.12 139.09,50.47 136.31,50.58 135.03,50.58 
			133.87,50.47 132.71,50.23 131.78,50 130.85,49.65 130.04,49.3 129.23,48.83 128.53,48.25 128.07,47.78 127.6,47.2 127.25,46.61 
			126.9,46.03 126.67,45.33 126.56,44.51 126.44,43.81 126.44,43 		"/>
		<polygon class="st0" points="20.33,144.52 14.3,144.52 14.3,150.71 19.64,150.71 19.64,153.16 14.3,153.16 14.3,162.26 
			10.58,162.26 10.58,141.95 20.33,141.95 		"/>
		<path class="st0" d="M33.22,161.56L33.22,161.56l-1.04,0.47l-1.28,0.35l-1.39,0.12l-1.51,0.12l-1.39-0.12l-1.16-0.23l-1.05-0.35
			l-0.81-0.47l-0.7-0.58l-0.46-0.82l-0.23-0.82l-0.12-1.05v-0.7l0.12-0.7l0.23-0.58l0.35-0.58l0.35-0.47l0.58-0.47l0.58-0.35
			l0.58-0.35l1.05-0.47l1.16-0.23l1.51-0.35l1.62-0.23v-0.7l-0.12-0.58l-0.12-0.47l-0.23-0.47l-0.23-0.35l-0.46-0.23l-0.46-0.23
			l-0.58-0.12h-0.7l-0.93,0.12l-0.93,0.12L24.51,150l-0.81,0.47l-0.81-1.98l1.16-0.47l1.28-0.35l1.28-0.12l1.28-0.12l1.28,0.12
			l1.05,0.23l0.93,0.35l0.81,0.58l0.58,0.7l0.35,0.82l0.35,1.05v1.17V161.56z M30.2,160.27v-5.95l-2.09,0.35l-0.81,0.23l-0.58,0.23
			l-0.7,0.47l-0.47,0.7l-0.35,0.82l-0.12,0.93l0.12,0.58l0.12,0.58l0.23,0.47l0.35,0.35l0.46,0.35l0.46,0.23l0.7,0.12h0.7l1.04-0.12
			L30.2,160.27z"/>
		<polygon class="st0" points="45.41,161.56 45.41,161.56 44.71,162.02 43.9,162.37 42.97,162.49 41.93,162.61 41.23,162.49 
			40.53,162.37 39.95,162.26 39.37,161.91 38.79,161.67 38.33,161.21 37.86,160.74 37.51,160.16 36.93,158.99 36.47,157.82 
			36.24,156.42 36.24,154.91 36.24,153.51 36.47,152.11 36.93,150.94 37.51,149.89 37.86,149.3 38.33,148.84 38.91,148.37 
			39.37,148.02 39.95,147.79 40.65,147.55 41.23,147.44 41.93,147.44 42.97,147.44 43.9,147.67 44.71,148.02 45.29,148.37 
			44.6,150.36 44.25,150 43.78,149.89 43.2,149.77 42.74,149.65 41.93,149.77 41.35,150 40.76,150.47 40.3,151.06 39.95,151.76 
			39.72,152.69 39.6,153.74 39.49,154.91 39.49,155.84 39.6,156.77 39.84,157.59 40.07,158.29 40.53,159.11 41.11,159.69 
			41.81,160.04 42.62,160.16 43.2,160.16 43.67,160.04 44.13,159.81 44.6,159.57 		"/>
		<polygon class="st0" points="59.22,161.44 59.22,161.44 57.95,161.91 56.67,162.37 55.16,162.49 53.53,162.61 52.26,162.49 
			51.1,162.26 50.17,161.91 49.36,161.32 48.78,160.62 48.31,159.81 48.08,158.87 47.96,157.71 47.96,147.67 51.21,147.67 
			51.21,157.82 51.33,158.41 51.45,158.99 51.56,159.34 51.91,159.69 52.26,160.04 52.61,160.16 53.07,160.27 53.65,160.27 
			54.93,160.16 55.39,160.04 55.86,159.81 55.86,147.67 59.22,147.67 		"/>
		<rect x="62.82" y="141.84" class="st0" width="3.25" height="20.42"/>
		<polygon class="st0" points="76.29,162.14 76.29,162.14 75.48,162.37 74.55,162.49 73.73,162.37 72.92,162.26 72.23,161.91 
			71.64,161.44 71.18,160.86 70.83,160.16 70.6,159.34 70.6,158.52 70.6,149.77 68.97,149.77 68.97,147.67 70.6,147.67 70.6,142.77 
			73.85,141.95 73.85,147.67 76.29,147.67 76.29,149.77 73.85,149.77 73.85,158.41 73.97,159.22 74.08,159.46 74.31,159.81 
			74.55,160.04 74.78,160.16 75.48,160.27 76.29,160.16 		"/>
		<path class="st0" d="M89.52,161.56L89.52,161.56l-1.04,0.47l-1.28,0.35l-1.39,0.12l-1.51,0.12l-1.39-0.12l-1.28-0.23l-1.04-0.35
			l-0.81-0.47l-0.58-0.58l-0.46-0.82l-0.35-0.82l-0.12-1.05l0.12-0.7l0.12-0.7l0.23-0.58l0.35-0.58l0.35-0.47l0.47-0.47l0.58-0.35
			l0.7-0.35l0.93-0.47l1.28-0.23l1.39-0.35l1.62-0.23v-0.7v-0.58l-0.12-0.47l-0.23-0.47l-0.35-0.35l-0.35-0.23l-0.58-0.23
			l-0.58-0.12H83.6l-0.93,0.12l-0.93,0.12L80.82,150l-0.93,0.47l-0.7-1.98l1.16-0.47l1.16-0.35l1.28-0.12l1.39-0.12l1.16,0.12
			l1.16,0.23l0.93,0.35l0.7,0.58l0.58,0.7l0.46,0.82l0.23,1.05l0.12,1.17V161.56z M86.39,160.27v-5.95l-1.97,0.35l-0.81,0.23
			l-0.58,0.23l-0.7,0.47l-0.58,0.7l-0.23,0.82l-0.12,0.93v0.58l0.23,0.58l0.23,0.47l0.35,0.35l0.35,0.35l0.58,0.23l0.58,0.12h0.7
			l1.16-0.12L86.39,160.27z"/>
		<path class="st0" d="M104.15,161.44L104.15,161.44l-0.93,0.47l-1.28,0.35l-1.28,0.12l-1.51,0.12l-1.63-0.12l-0.7-0.23l-0.7-0.23
			l-0.58-0.23l-0.58-0.35l-0.46-0.47l-0.46-0.47l-0.7-1.05l-0.58-1.28l-0.35-1.4v-1.63v-1.52l0.35-1.4l0.46-1.28l0.7-1.05l0.47-0.58
			l0.46-0.47l0.47-0.35l0.58-0.35l0.7-0.23l0.58-0.23l0.81-0.12h0.7h1.16l1.04,0.23v-5.95h3.25V161.44z M100.9,160.04v-10.5
			l-0.7-0.23h-0.81l-0.81,0.12l-0.81,0.23l-0.7,0.47l-0.46,0.58l-0.47,0.82l-0.23,0.93l-0.23,1.05v1.4v1.28l0.23,1.05l0.23,0.93
			l0.35,0.82l0.58,0.58l0.58,0.47l0.7,0.23l0.81,0.12l1.04-0.12L100.9,160.04z"/>
		<path class="st0" d="M126.33,161.44L126.33,161.44l-1.04,0.47l-1.16,0.35l-1.28,0.12l-1.51,0.12l-1.63-0.12l-0.7-0.23l-0.7-0.23
			l-0.58-0.23l-0.58-0.35l-0.46-0.47l-0.46-0.47l-0.81-1.05l-0.46-1.28l-0.35-1.4l-0.12-1.63l0.12-1.52l0.35-1.4l0.46-1.28
			l0.58-1.05l0.47-0.58l0.58-0.47l0.47-0.35l0.58-0.35l0.58-0.23l0.7-0.23l0.7-0.12h0.81h1.16l1.04,0.23v-5.95h3.25V161.44z
			 M123.07,160.04v-10.5l-0.7-0.23h-0.81l-0.93,0.12l-0.7,0.23l-0.7,0.47l-0.46,0.58l-0.47,0.82l-0.35,0.93l-0.12,1.05l-0.12,1.4
			l0.12,1.28l0.12,1.05l0.35,0.93l0.35,0.82l0.47,0.58l0.7,0.47l0.7,0.23l0.81,0.12l1.04-0.12L123.07,160.04z"/>
		<path class="st0" d="M141.42,154.91l-8.94,1.28l0.23,0.93l0.23,0.82l0.35,0.82l0.46,0.47l0.46,0.47l0.7,0.35l0.7,0.23h0.93h0.93
			l1.04-0.23l0.81-0.23l0.81-0.35l0.81,2.1l-1.04,0.47l-1.04,0.35l-1.28,0.12l-1.39,0.12l-0.81-0.12h-0.81l-0.7-0.23l-0.7-0.23
			l-0.58-0.23l-0.58-0.47l-0.58-0.35l-0.46-0.58l-0.7-1.05l-0.46-1.28l-0.35-1.52l-0.12-1.63l0.12-1.52l0.35-1.4l0.35-1.17l0.7-1.17
			l0.35-0.47l0.58-0.47l0.46-0.35l0.58-0.35l0.58-0.23l0.7-0.23l0.7-0.12h0.81h0.81l0.7,0.12l0.7,0.23l0.58,0.23l0.58,0.23
			l0.46,0.47l0.46,0.47l0.35,0.47l0.58,1.05l0.35,1.28l0.23,1.4V154.91z M138.4,153.62L138.4,153.62l-0.12-1.05l-0.12-0.82
			l-0.23-0.7l-0.35-0.58l-0.35-0.47l-0.46-0.35l-0.58-0.12l-0.7-0.12l-0.81,0.12l-0.81,0.35l-0.58,0.58l-0.46,0.7l-0.23,0.7
			l-0.12,0.82l-0.12,0.82v1.05L138.4,153.62z"/>
		<path class="st0" d="M166.96,162.26h-3.83l-1.63-5.13H155l-1.62,5.13h-3.37l6.73-20.31h3.48L166.96,162.26z M161.04,154.91
			l-2.09-7.12l-0.35-1.4l-0.23-1.05l-0.23,1.17l-0.35,1.28l-2.2,7.12H161.04z"/>
		<polygon class="st0" points="177.06,147.44 176.48,149.89 175.78,149.65 174.97,149.65 174.16,149.65 173.46,150 173.46,162.26 
			170.09,162.26 170.09,148.49 171.49,148.02 172.99,147.67 174.97,147.44 		"/>
		<polygon class="st0" points="185.76,162.14 185.76,162.14 185.07,162.37 184.14,162.49 183.21,162.37 182.4,162.26 181.7,161.91 
			181.12,161.44 180.66,160.86 180.42,160.16 180.19,159.34 180.08,158.52 180.08,149.77 178.45,149.77 178.45,147.67 
			180.08,147.67 180.08,142.77 183.44,141.95 183.44,147.67 185.76,147.67 185.76,149.77 183.44,149.77 183.44,158.41 
			183.56,159.22 183.67,159.46 183.79,159.81 184.02,160.04 184.26,160.16 184.95,160.27 185.76,160.16 		"/>
		<path class="st0" d="M200.04,154.91l-8.94,1.28l0.12,0.93l0.23,0.82l0.35,0.82l0.46,0.47l0.58,0.47l0.7,0.35l0.7,0.23h0.81h1.04
			l0.93-0.23l0.93-0.23l0.81-0.35l0.81,2.1l-1.04,0.47l-1.16,0.35l-1.28,0.12l-1.39,0.12l-0.81-0.12h-0.7l-0.81-0.23l-0.58-0.23
			l-0.7-0.23l-0.46-0.47l-0.58-0.35l-0.46-0.58l-0.7-1.05l-0.47-1.28l-0.35-1.52l-0.12-1.63l0.12-1.52l0.23-1.4l0.46-1.17l0.58-1.17
			l0.46-0.47l0.46-0.47l0.58-0.35l0.58-0.35l0.58-0.23l0.7-0.23l0.7-0.12h0.81h0.7l0.7,0.12l0.7,0.23l0.58,0.23l0.58,0.23l0.46,0.47
			l0.46,0.47l0.46,0.47l0.46,1.05l0.46,1.28l0.12,1.4L200.04,154.91z M196.91,153.62L196.91,153.62v-1.05l-0.12-0.82l-0.23-0.7
			l-0.35-0.58l-0.35-0.47l-0.58-0.35l-0.58-0.12l-0.58-0.12l-0.93,0.12l-0.7,0.35l-0.58,0.58l-0.46,0.7l-0.23,0.7l-0.23,0.82v0.82
			l-0.12,1.05L196.91,153.62z"/>
		<polygon class="st0" points="211.3,158.06 211.3,158.06 211.19,159.11 210.96,159.92 210.49,160.74 209.8,161.44 208.98,161.91 
			208.05,162.26 207.13,162.49 206.2,162.61 204.92,162.49 203.87,162.26 202.95,161.91 202.13,161.44 202.95,159.34 203.53,159.81 
			204.22,160.04 204.92,160.16 205.73,160.27 206.2,160.16 206.54,160.04 207.01,159.92 207.36,159.69 207.59,159.34 207.82,158.99 
			207.94,158.64 207.94,158.17 207.94,157.82 207.82,157.36 207.47,156.77 206.78,156.19 205.85,155.72 205.04,155.37 
			204.34,155.02 203.76,154.56 203.29,154.09 202.95,153.51 202.71,152.92 202.6,152.34 202.48,151.64 202.6,150.7 202.83,149.89 
			203.29,149.19 203.87,148.6 204.57,148.02 205.38,147.67 206.2,147.55 207.13,147.44 208.17,147.44 209.21,147.67 210.03,148.02 
			210.96,148.49 210.14,150.35 209.56,150 208.98,149.77 208.4,149.65 207.82,149.54 207.01,149.65 206.66,149.89 206.31,150.12 
			206.08,150.35 205.85,150.7 205.73,151.05 205.73,151.52 205.85,152.22 206.2,152.81 206.89,153.27 207.82,153.74 208.63,154.21 
			209.33,154.56 210.03,155.02 210.49,155.61 210.84,156.19 211.07,156.77 211.3,157.36 		"/>
		<polygon class="st0" points="232.9,147.67 226.28,168.09 222.8,168.09 225.12,162.26 220.36,147.67 223.84,147.67 226.4,157.12 
			226.51,158.17 226.63,159.22 226.74,159.22 227.09,157.12 229.76,147.67 		"/>
		<polygon class="st0" points="256,162.26 252.17,162.26 252.17,153.04 245.78,153.04 245.78,162.26 242.07,162.26 242.07,141.84 
			245.78,141.84 245.78,150.59 252.17,150.59 252.17,141.84 256,141.84 		"/>
		<polygon class="st0" points="270.28,161.44 270.28,161.44 269.12,161.91 267.73,162.37 266.33,162.49 264.71,162.61 
			263.31,162.49 262.15,162.26 261.22,161.91 260.41,161.32 259.83,160.62 259.37,159.81 259.13,158.87 259.02,157.71 
			259.02,147.67 262.39,147.67 262.39,157.82 262.39,158.41 262.5,158.99 262.73,159.34 262.97,159.69 263.31,160.04 263.66,160.16 
			264.24,160.27 264.71,160.27 265.98,160.16 266.45,160.04 266.91,159.81 266.91,147.67 270.28,147.67 		"/>
		<polygon class="st0" points="293.38,162.26 290.13,162.26 290.13,151.87 290.02,151.41 289.9,150.94 289.78,150.47 289.44,150.12 
			289.09,149.89 288.74,149.65 288.16,149.54 287.58,149.54 287,149.65 286.3,149.77 285.72,150.12 285.26,150.59 285.26,162.26 
			281.89,162.26 281.89,151.87 281.89,151.29 281.77,150.82 281.54,150.47 281.19,150.12 280.84,149.89 280.38,149.65 279.8,149.54 
			279.22,149.54 278.06,149.65 277.01,150 277.01,162.26 273.76,162.26 273.76,148.49 274.92,148.02 276.2,147.67 277.59,147.44 
			279.22,147.44 280.61,147.55 281.89,147.79 282.93,148.37 283.28,148.6 283.75,149.07 284.68,148.37 285.72,147.79 287,147.55 
			288.39,147.44 289.44,147.55 290.36,147.67 291.18,148.14 291.99,148.6 292.57,149.19 293.03,150 293.27,150.94 293.38,151.87 		
			"/>
		<path class="st0" d="M307.43,161.56L307.43,161.56l-1.04,0.47l-1.28,0.35l-1.39,0.12l-1.63,0.12l-1.39-0.12l-1.16-0.23l-1.04-0.35
			l-0.81-0.47l-0.58-0.58l-0.46-0.82l-0.35-0.82l-0.12-1.05l0.12-0.7l0.12-0.7l0.23-0.58l0.23-0.58l0.46-0.47l0.46-0.47l0.58-0.35
			l0.7-0.35l0.93-0.47l1.28-0.23l1.39-0.35l1.62-0.23v-0.7v-0.58l-0.12-0.47l-0.23-0.47l-0.35-0.35l-0.35-0.23l-0.58-0.23
			l-0.58-0.12h-0.7l-0.81,0.12l-0.93,0.12l-0.93,0.23l-0.93,0.47l-0.7-1.98l1.16-0.47l1.16-0.35l1.28-0.12l1.39-0.12l1.16,0.12
			l1.16,0.23l0.93,0.35l0.7,0.58l0.58,0.7l0.46,0.82l0.23,1.05l0.12,1.17V161.56z M304.29,160.27v-5.95l-1.97,0.35l-0.81,0.23
			l-0.58,0.23l-0.7,0.47l-0.58,0.7l-0.23,0.82l-0.12,0.93v0.58l0.12,0.58l0.35,0.47l0.23,0.35l0.46,0.35l0.58,0.23l0.58,0.12h0.7
			l1.16-0.12L304.29,160.27z"/>
		<polygon class="st0" points="322.29,162.26 319.04,162.26 319.04,151.99 319.04,151.41 318.92,150.94 318.69,150.47 
			318.34,150.12 317.99,149.89 317.53,149.65 317.07,149.54 316.48,149.54 315.32,149.65 314.16,149.89 314.16,162.26 
			310.91,162.26 310.91,148.49 312.07,148.02 313.47,147.67 314.98,147.44 316.6,147.44 317.76,147.44 318.81,147.67 319.74,147.9 
			320.55,148.37 321.36,149.07 321.94,149.89 322.29,150.82 322.29,151.87 		"/>
		<path class="st0" d="M329.37,143.59L329.37,143.59v0.35l-0.12,0.23l-0.12,0.35l-0.23,0.23l-0.58,0.35l-0.7,0.12l-0.7-0.12
			l-0.58-0.35l-0.23-0.23l-0.23-0.35v-0.23l-0.12-0.35l0.12-0.35v-0.35l0.23-0.23l0.23-0.23l0.58-0.35l0.7-0.12h0.7l0.58,0.35
			l0.23,0.35l0.12,0.23l0.12,0.35V143.59z M329.26,162.26h-3.37v-14.59h3.37V162.26z"/>
		<path class="st0" d="M344.11,161.44L344.11,161.44l-1.05,0.47l-1.16,0.35l-1.39,0.12l-1.51,0.12l-1.63-0.12l-0.7-0.23l-0.58-0.23
			l-0.7-0.23l-0.46-0.35l-0.58-0.47l-0.46-0.47l-0.7-1.05l-0.58-1.28l-0.23-1.4l-0.12-1.63l0.12-1.52l0.23-1.4l0.46-1.28l0.7-1.05
			l0.46-0.58l0.46-0.47l0.58-0.35l0.58-0.35l0.58-0.23l0.7-0.23l0.7-0.12h0.7h1.28l0.93,0.23v-5.95h3.37V161.44z M340.75,160.04
			v-10.5l-0.7-0.23h-0.7l-0.93,0.12l-0.81,0.23l-0.58,0.47l-0.58,0.58l-0.46,0.82l-0.23,0.93l-0.23,1.05v1.4v1.28l0.23,1.05
			l0.23,0.93l0.46,0.82l0.46,0.58l0.58,0.47l0.7,0.23l0.93,0.12l0.93-0.12L340.75,160.04z"/>
		<path class="st0" d="M358.16,161.56L358.16,161.56l-1.04,0.47l-1.28,0.35l-1.39,0.12l-1.51,0.12l-1.39-0.12l-1.16-0.23l-1.04-0.35
			l-0.81-0.47l-0.7-0.58l-0.46-0.82l-0.23-0.82l-0.12-1.05v-0.7l0.12-0.7l0.23-0.58l0.35-0.58l0.35-0.47l0.58-0.47l0.46-0.35
			l0.7-0.35l1.04-0.47l1.16-0.23l1.39-0.35l1.74-0.23v-0.7l-0.12-0.58l-0.12-0.47l-0.23-0.47l-0.23-0.35l-0.46-0.23l-0.46-0.23
			l-0.58-0.12h-0.7l-0.93,0.12l-0.93,0.12l-0.93,0.23l-0.81,0.47l-0.81-1.98l1.16-0.47l1.28-0.35l1.28-0.12l1.28-0.12l1.28,0.12
			l1.05,0.23l0.93,0.35l0.81,0.58l0.58,0.7l0.35,0.82l0.35,1.05v1.17V161.56z M355.14,160.27v-5.95l-2.09,0.35l-0.81,0.23
			l-0.58,0.23l-0.7,0.47l-0.47,0.7l-0.35,0.82l-0.12,0.93l0.12,0.58l0.12,0.58l0.23,0.47l0.35,0.35l0.46,0.35l0.46,0.23l0.7,0.12
			h0.7l1.05-0.12L355.14,160.27z"/>
		<path class="st0" d="M372.91,161.44L372.91,161.44l-1.05,0.47l-1.16,0.35l-1.39,0.12l-1.51,0.12l-1.51-0.12l-0.81-0.23l-0.58-0.23
			l-0.58-0.23l-0.58-0.35l-0.58-0.47l-0.46-0.47l-0.7-1.05l-0.58-1.28l-0.23-1.4l-0.12-1.63l0.12-1.52l0.23-1.4l0.46-1.28l0.7-1.05
			l0.46-0.58l0.46-0.47l0.58-0.35l0.58-0.35l0.58-0.23l0.7-0.23l0.7-0.12h0.81h1.16l0.93,0.23v-5.95h3.37V161.44z M369.54,160.04
			v-10.5l-0.7-0.23h-0.7l-0.93,0.12l-0.81,0.23l-0.58,0.47l-0.58,0.58l-0.35,0.82l-0.35,0.93l-0.23,1.05v1.4v1.28l0.23,1.05
			l0.23,0.93l0.46,0.82l0.46,0.58l0.58,0.47l0.7,0.23l0.93,0.12l0.93-0.12L369.54,160.04z"/>
		<path class="st0" d="M388,154.91l-8.94,1.28l0.12,0.93l0.23,0.82l0.35,0.82l0.46,0.47l0.58,0.47l0.7,0.35l0.7,0.23h0.81h1.04
			l0.93-0.23l0.93-0.23l0.81-0.35l0.81,2.1l-1.05,0.47l-1.16,0.35l-1.28,0.12l-1.39,0.12l-0.81-0.12h-0.7l-0.81-0.23l-0.58-0.23
			l-0.7-0.23l-0.46-0.47l-0.58-0.35l-0.46-0.58l-0.7-1.05l-0.46-1.28l-0.35-1.52l-0.12-1.63l0.12-1.52l0.23-1.4l0.46-1.17l0.58-1.17
			l0.46-0.47l0.46-0.47l0.58-0.35l0.58-0.35l0.58-0.23l0.7-0.23l0.7-0.12h0.81h0.7l0.7,0.12l0.7,0.23l0.58,0.23l0.58,0.23l0.58,0.47
			l0.35,0.47l0.46,0.47l0.46,1.05l0.46,1.28l0.12,1.4L388,154.91z M384.86,153.62L384.86,153.62v-1.05l-0.12-0.82l-0.23-0.7
			l-0.35-0.58l-0.35-0.47l-0.58-0.35l-0.58-0.12l-0.58-0.12l-0.93,0.12l-0.7,0.35l-0.58,0.58l-0.46,0.7l-0.23,0.7l-0.23,0.82v0.82
			l-0.12,1.05L384.86,153.62z"/>
		<polygon class="st0" points="399.26,158.06 399.26,158.06 399.14,159.11 398.91,159.92 398.45,160.74 397.75,161.44 
			396.94,161.91 396.01,162.26 395.08,162.49 394.15,162.61 392.87,162.49 391.83,162.26 390.9,161.91 390.09,161.44 390.9,159.34 
			391.48,159.81 392.18,160.04 392.87,160.16 393.69,160.27 394.15,160.16 394.5,160.04 394.96,159.92 395.31,159.69 395.54,159.34 
			395.78,158.99 395.89,158.64 395.89,158.17 395.89,157.82 395.78,157.36 395.43,156.77 394.73,156.19 393.8,155.72 392.99,155.37 
			392.29,155.02 391.71,154.56 391.25,154.09 390.9,153.51 390.67,152.92 390.55,152.34 390.44,151.64 390.55,150.7 390.78,149.89 
			391.25,149.19 391.83,148.6 392.53,148.02 393.34,147.67 394.15,147.55 395.08,147.44 396.12,147.44 397.17,147.67 397.98,148.02 
			398.91,148.49 398.1,150.35 397.52,150 396.94,149.77 396.36,149.65 395.78,149.54 394.96,149.65 394.61,149.89 394.27,150.12 
			394.03,150.35 393.8,150.7 393.69,151.05 393.69,151.52 393.8,152.22 394.15,152.81 394.85,153.27 395.78,153.74 396.59,154.21 
			397.28,154.56 397.98,155.02 398.45,155.61 398.79,156.19 399.03,156.77 399.26,157.36 		"/>
	</g>
</g>
</svg>
